/* XPM */
static xpm_row_t const count1[]={
"128 128 2 1",
"# c #51a86b",
". c #ffffff",
"................................................................................................................................",
"................................................................................................................................",
"................................................................................................................................",
"................................................................................................................................",
"................................................................................................................................",
"................................................................................................................................",
"................................................................................................................................",
"................................................................................................................................",
"................................................................................................................................",
"................................................................................................................................",
"..............................................................###...............................................................",
".............................................................#####..............................................................",
"............................................................######..............................................................",
"...........................................................#######..............................................................",
".........................................................#########..............................................................",
".......................................................##########...............................................................",
"......................................................###########...............................................................",
".....................................................############...............................................................",
"...................................................##############...............................................................",
"................................................#################...............................................................",
"...............................................##################...............................................................",
"..............................................###########.######................................................................",
"..............................................##########..######................................................................",
".............................................##########...######................................................................",
"............................................#########.....######................................................................",
"..........................................#########.......######................................................................",
".........................................#########........######................................................................",
"......................................###########.........######................................................................",
".....................................###########..........######................................................................",
"....................................###########...........######................................................................",
"...................................###########............######................................................................",
"..................................##########..............######................................................................",
".................................#########................######................................................................",
"................................#########.................######................................................................",
"................................########..................######................................................................",
"...............................#######....................######................................................................",
"..............................########....................######................................................................",
".............................########.....................######................................................................",
".............................#######......................######................................................................",
"............................#######.......................######................................................................",
"...........................#######........................######................................................................",
"..........................########........................######................................................................",
".........................########.........................######................................................................",
"........................########..........................######................................................................",
"........................#######...........................######................................................................",
"........................######............................######................................................................",
".........................####.............................######................................................................",
"..........................................................######................................................................",
"..........................................................######................................................................",
"..........................................................######................................................................",
"..........................................................######................................................................",
"..........................................................######................................................................",
"..........................................................######................................................................",
"..........................................................######................................................................",
"..........................................................#######...............................................................",
"..........................................................#######...............................................................",
"..........................................................#######...............................................................",
"...........................................................######...............................................................",
"...........................................................######...............................................................",
"...........................................................######...............................................................",
"...........................................................######...............................................................",
"...........................................................######...............................................................",
"...........................................................######...............................................................",
"...........................................................######...............................................................",
"...........................................................######...............................................................",
"...........................................................######...............................................................",
"...........................................................######...............................................................",
"...........................................................######...............................................................",
"...........................................................######...............................................................",
"...........................................................######...............................................................",
"...........................................................######...............................................................",
"...........................................................######...............................................................",
"...........................................................######...............................................................",
"...........................................................######...............................................................",
"...........................................................######...............................................................",
"...........................................................######...............................................................",
"...........................................................######...............................................................",
"...........................................................######...............................................................",
"...........................................................######...............................................................",
"...........................................................######...............................................................",
"...........................................................######...............................................................",
"...........................................................######...............................................................",
"...........................................................######...............................................................",
"...........................................................######...............................................................",
"...........................................................######...............................................................",
"...........................................................######...............................................................",
"...........................................................######...............................................................",
"...........................................................######...............................................................",
"...........................................................######...............................................................",
"...........................................................######...............................................................",
"...........................................................######...............................................................",
"...........................................................######...............................................................",
"...........................................................######...............................................................",
"...........................................................######...............................................................",
"...........................................................######...............................................................",
"...........................................................######...............................................................",
"...........................................................######...............................................................",
"...........................................................######...............................................................",
"...........................................................######...............................................................",
"..........................................................#######...............................................................",
"..........................................................#######...............................................................",
"..........................................................######................................................................",
"..........................................................######................................................................",
"..........................................................######................................................................",
"..........................................................######................................................................",
"..........................................................######................................................................",
"..........................................................######................................................................",
"..........................................................######................................................................",
"..........................................................######................................................................",
"..........................................................######................................................................",
"..........................................................######................................................................",
"..........................................................######................................................................",
"..........................................................######................................................................",
"...........................................................####.................................................................",
"................................................................................................................................",
"................................................................................................................................",
"................................................................................................................................",
"................................................................................................................................",
"................................................................................................................................",
"................................................................................................................................",
"................................................................................................................................",
"................................................................................................................................",
"................................................................................................................................",
"................................................................................................................................",
"................................................................................................................................",
"................................................................................................................................",
"................................................................................................................................",
"................................................................................................................................"};
