/* XPM */
static xpm_row_t const letterZ_xpm[] = {
"128 128 3 1",
". c None",
"# c #000000",
"a c #ffffff",
"................................................................................................................................",
"................................................................................................................................",
"................................................................................................................................",
"................................................................................................................................",
"......#########################################################################################################.................",
"......##########################################################################################################................",
"......##########################################################################################################................",
"......##########################################################################################################................",
"......##########################################################################################################................",
"......##########################################################################################################................",
"......##########################################################################################################................",
"......##########################################################################################################................",
"......##########################################################################################################................",
"......##########################################################################################################................",
"......##########################################################################################################................",
"......##########################################################################################################................",
"......############aaaaaaaaaaaaaaaaaaaaaaaaaaaaaaaaaaaaaaaaaaaaaaaaaaaaaaaaaaaaaaaaaaaaaaaaaaaaaaaaaa#######################.....",
"......############aaaaaaaaaaaaaaaaaaaaaaaaaaaaaaaaaaaaaaaaaaaaaaaaaaaaaaaaaaaaaaaaaaaaaaaaaaaaaaaaaa#######################.....",
"......############aaaaaaaaaaaaaaaaaaaaaaaaaaaaaaaaaaaaaaaaaaaaaaaaaaaaaaaaaaaaaaaaaaaaaaaaaaaaaaaaaa#######################.....",
"......############aaaaaaaaaaaaaaaaaaaaaaaaaaaaaaaaaaaaaaaaaaaaaaaaaaaaaaaaaaaaaaaaaaaaaaaaaaaaaaaaaa#######################.....",
"......############aaaaaaaaaaaaaaaaaaaaaaaaaaaaaaaaaaaaaaaaaaaaaaaaaaaaaaaaaaaaaaaaaaaaaaaaaaaaaaaaaa#######################.....",
"......############aaaaaaaaaaaaaaaaaaaaaaaaaaaaaaaaaaaaaaaaaaaaaaaaaaaaaaaaaaaaaaaaaaaaaaaaaaaaaaaaaa#######################.....",
"......############aaaaaaaaaaaaaaaaaaaaaaaaaaaaaaaaaaaaaaaaaaaaaaaaaaaaaaaaaaaaaaaaaaaaaaaaaaaaaaaaaa#######################.....",
"......############aaaaaaaaaaaaaaaaaaaaaaaaaaaaaaaaaaaaaaaaaaaaaaaaaaaaaaaaaaaaaaaaaaaaaaaaaaaaaaaaaa#######################.....",
"......############aaaaaaaaaaaaaaaaaaaaaaaaaaaaaaaaaaaaaaaaaaaaaaaaaaaaaaaaaaaaaaaaaaaaaaaaaaaaaaaaaa#######################.....",
"......############aaaaaaaaaaaaaaaaaaaaaaaaaaaaaaaaaaaaaaaaaaaaaaaaaaaaaaaaaaaaaaaaaaaaaaaaaaaaaaaaaa#######################.....",
"......############aaaaaaaaaaaaaaaaaaaaaaaaaaaaaaaaaaaaaaaaaaaaaaaaaaaaaaaaaaaaaaaaaaaaaaaaaaaaaaaaaa#######################.....",
"......############aaaaaaaaaaaaaaaaaaaaaaaaaaaaaaaaaaaaaaaaaaaaaaaaaaaaaaaaaaaaaaaaaaaaaaaaaaaaaaaaaa#######################.....",
"......###########################################################aaaaaaaaaaaaaaaaaaaaaaaaaaaaaaaaaaa#######################.....",
"......###########################################################aaaaaaaaaaaaaaaaaaaaaaaaaaaaaaaaaaa#######################.....",
"......###########################################################aaaaaaaaaaaaaaaaaaaaaaaaaaaaaaaaaaa#######################.....",
"......###########################################################aaaaaaaaaaaaaaaaaaaaaaaaaaaaaaaaaaa#######################.....",
"......###########################################################aaaaaaaaaaaaaaaaaaaaaaaaaaaaaaaaaaa#######################.....",
"......###########################################################aaaaaaaaaaaaaaaaaaaaaaaaaaaaaaaaaaa#######################.....",
"......###########################################################aaaaaaaaaaaaaaaaaaaaaaaaaaaaaaaaaaa#######################.....",
"......###########################################################aaaaaaaaaaaaaaaaaaaaaaaaaaaaaaaaaaa#######################.....",
"......###########################################################aaaaaaaaaaaaaaaaaaaaaaaaaaaaaaaaaaa#######################.....",
"......###########################################################aaaaaaaaaaaaaaaaaaaaaaaaaaaaaaaaaaa#######################.....",
"......###########################################################aaaaaaaaaaaaaaaaaaaaaaaaaaaaaaaaaaa#######################.....",
".............................########################aaaaaaaaaaaaaaaaaaaaaaaaaaaaaaaaaaa###################################.....",
"..............................#######################aaaaaaaaaaaaaaaaaaaaaaaaaaaaaaaaaaa###################################.....",
"..............................#######################aaaaaaaaaaaaaaaaaaaaaaaaaaaaaaaaaaa###################################.....",
"..............................#######################aaaaaaaaaaaaaaaaaaaaaaaaaaaaaaaaaaa###################################.....",
"..............................#######################aaaaaaaaaaaaaaaaaaaaaaaaaaaaaaaaaaa###################################.....",
"..............................#######################aaaaaaaaaaaaaaaaaaaaaaaaaaaaaaaaaaa###################################.....",
"..............................#######################aaaaaaaaaaaaaaaaaaaaaaaaaaaaaaaaaaa###################################.....",
"..............................#######################aaaaaaaaaaaaaaaaaaaaaaaaaaaaaaaaaaa###################################.....",
"..............................#######################aaaaaaaaaaaaaaaaaaaaaaaaaaaaaaaaaaa###################################.....",
"..............................#######################aaaaaaaaaaaaaaaaaaaaaaaaaaaaaaaaaaa###################################.....",
"..............................#######################aaaaaaaaaaaaaaaaaaaaaaaaaaaaaaaaaaa###################################.....",
"..............................#######################aaaaaaaaaaaaaaaaaaaaaaaaaaaaaaaaaaa###################################.....",
"..................#######################aaaaaaaaaaaaaaaaaaaaaaaaaaaaaaaaaaa###############################################.....",
"..................#######################aaaaaaaaaaaaaaaaaaaaaaaaaaaaaaaaaaa###############################################.....",
"..................#######################aaaaaaaaaaaaaaaaaaaaaaaaaaaaaaaaaaa###############################################.....",
"..................#######################aaaaaaaaaaaaaaaaaaaaaaaaaaaaaaaaaaa###############################################.....",
"..................#######################aaaaaaaaaaaaaaaaaaaaaaaaaaaaaaaaaaa###############################################.....",
"..................#######################aaaaaaaaaaaaaaaaaaaaaaaaaaaaaaaaaaa###############################################.....",
"..................#######################aaaaaaaaaaaaaaaaaaaaaaaaaaaaaaaaaaa###############################################.....",
"..................#######################aaaaaaaaaaaaaaaaaaaaaaaaaaaaaaaaaaa###############################################.....",
"..................#######################aaaaaaaaaaaaaaaaaaaaaaaaaaaaaaaaaaa###############################################.....",
"..................#######################aaaaaaaaaaaaaaaaaaaaaaaaaaaaaaaaaaa###############################################.....",
"..................#######################aaaaaaaaaaaaaaaaaaaaaaaaaaaaaaaaaaa###############################################.....",
"..................#######################aaaaaaaaaaaaaaaaaaaaaaaaaaaaaaaaaaa###############################################.....",
"......########################aaaaaaaaaaaaaaaaaaaaaaaaaaaaaaaaaaa###############################################................",
"......########################aaaaaaaaaaaaaaaaaaaaaaaaaaaaaaaaaaa###############################################................",
"......########################aaaaaaaaaaaaaaaaaaaaaaaaaaaaaaaaaaa###############################################................",
"......########################aaaaaaaaaaaaaaaaaaaaaaaaaaaaaaaaaaa###############################################................",
"......########################aaaaaaaaaaaaaaaaaaaaaaaaaaaaaaaaaaa###############################################................",
"......########################aaaaaaaaaaaaaaaaaaaaaaaaaaaaaaaaaaa###############################################................",
"......########################aaaaaaaaaaaaaaaaaaaaaaaaaaaaaaaaaaa###############################################................",
"......########################aaaaaaaaaaaaaaaaaaaaaaaaaaaaaaaaaaa###############################################................",
"......########################aaaaaaaaaaaaaaaaaaaaaaaaaaaaaaaaaaa###############################################................",
"......########################aaaaaaaaaaaaaaaaaaaaaaaaaaaaaaaaaaa###############################################................",
"......########################aaaaaaaaaaaaaaaaaaaaaaaaaaaaaaaaaaa###############################################................",
"......#######################aaaaaaaaaaaaaaaaaaaaaaaaaaaaaaaaaaa################################################................",
"......############aaaaaaaaaaaaaaaaaaaaaaaaaaaaaaaaaaa###########################################################................",
"......############aaaaaaaaaaaaaaaaaaaaaaaaaaaaaaaaaaa###########################################################................",
"......############aaaaaaaaaaaaaaaaaaaaaaaaaaaaaaaaaaa###########################################################................",
"......############aaaaaaaaaaaaaaaaaaaaaaaaaaaaaaaaaaa###########################################################................",
"......############aaaaaaaaaaaaaaaaaaaaaaaaaaaaaaaaaaa###########################################################................",
"......############aaaaaaaaaaaaaaaaaaaaaaaaaaaaaaaaaaa###########################################################................",
"......############aaaaaaaaaaaaaaaaaaaaaaaaaaaaaaaaaaa###########################################################................",
"......############aaaaaaaaaaaaaaaaaaaaaaaaaaaaaaaaaaa###########################################################................",
"......############aaaaaaaaaaaaaaaaaaaaaaaaaaaaaaaaaaa###########################################################................",
"......############aaaaaaaaaaaaaaaaaaaaaaaaaaaaaaaaaaa###########################################################................",
"......############aaaaaaaaaaaaaaaaaaaaaaaaaaaaaaaaaaa###########################################################................",
"......############aaaaaaaaaaaaaaaaaaaaaaaaaaaaaaaaaaaaaaaaaaaaaaaaaaaaaaaaaaaaaaaaaaaaaaaaaaaaaaaaaa#######################.....",
"......############aaaaaaaaaaaaaaaaaaaaaaaaaaaaaaaaaaaaaaaaaaaaaaaaaaaaaaaaaaaaaaaaaaaaaaaaaaaaaaaaaa#######################.....",
"......############aaaaaaaaaaaaaaaaaaaaaaaaaaaaaaaaaaaaaaaaaaaaaaaaaaaaaaaaaaaaaaaaaaaaaaaaaaaaaaaaaa#######################.....",
"......############aaaaaaaaaaaaaaaaaaaaaaaaaaaaaaaaaaaaaaaaaaaaaaaaaaaaaaaaaaaaaaaaaaaaaaaaaaaaaaaaaa#######################.....",
"......############aaaaaaaaaaaaaaaaaaaaaaaaaaaaaaaaaaaaaaaaaaaaaaaaaaaaaaaaaaaaaaaaaaaaaaaaaaaaaaaaaa#######################.....",
"......############aaaaaaaaaaaaaaaaaaaaaaaaaaaaaaaaaaaaaaaaaaaaaaaaaaaaaaaaaaaaaaaaaaaaaaaaaaaaaaaaaa#######################.....",
"......############aaaaaaaaaaaaaaaaaaaaaaaaaaaaaaaaaaaaaaaaaaaaaaaaaaaaaaaaaaaaaaaaaaaaaaaaaaaaaaaaaa#######################.....",
"......############aaaaaaaaaaaaaaaaaaaaaaaaaaaaaaaaaaaaaaaaaaaaaaaaaaaaaaaaaaaaaaaaaaaaaaaaaaaaaaaaaa#######################.....",
"......############aaaaaaaaaaaaaaaaaaaaaaaaaaaaaaaaaaaaaaaaaaaaaaaaaaaaaaaaaaaaaaaaaaaaaaaaaaaaaaaaaa#######################.....",
"......############aaaaaaaaaaaaaaaaaaaaaaaaaaaaaaaaaaaaaaaaaaaaaaaaaaaaaaaaaaaaaaaaaaaaaaaaaaaaaaaaaa#######################.....",
"......############aaaaaaaaaaaaaaaaaaaaaaaaaaaaaaaaaaaaaaaaaaaaaaaaaaaaaaaaaaaaaaaaaaaaaaaaaaaaaaaaaa#######################.....",
"......############aaaaaaaaaaaaaaaaaaaaaaaaaaaaaaaaaaaaaaaaaaaaaaaaaaaaaaaaaaaaaaaaaaaaaaaaaaaaaaaaaa#######################.....",
"......#####################################################################################################################.....",
"......#####################################################################################################################.....",
"......#####################################################################################################################.....",
"......#####################################################################################################################.....",
"......#####################################################################################################################.....",
"......#####################################################################################################################.....",
"......#####################################################################################################################.....",
"......#####################################################################################################################.....",
"......#####################################################################################################################.....",
"......#####################################################################################################################.....",
"......#####################################################################################################################.....",
"......#####################################################################################################################.....",
"..................#########################################################################################################.....",
"..................#########################################################################################################.....",
"..................#########################################################################################################.....",
"..................#########################################################################################################.....",
"..................#########################################################################################################.....",
"..................#########################################################################################################.....",
"..................#########################################################################################################.....",
"..................#########################################################################################################.....",
"..................#########################################################################################################.....",
"..................#########################################################################################################.....",
"..................#########################################################################################################.....",
"................................................................................................................................",
"................................................................................................................................",
"................................................................................................................................",
"................................................................................................................................",
"................................................................................................................................",
"................................................................................................................................",
"................................................................................................................................"};
