/* XPM */
static xpm_row_t const letterD_xpm[] = {
"128 128 3 1",
". c None",
"# c #000000",
"a c #ffffff",
"................................................................................................................................",
"................................................................................................................................",
"................................................................................................................................",
".......##################################################################################.......................................",
".......##################################################################################.......................................",
".......##################################################################################.......................................",
".......##################################################################################.......................................",
".......##################################################################################.......................................",
".......##################################################################################.......................................",
".......##################################################################################.......................................",
".......##################################################################################.......................................",
".......##################################################################################.......................................",
".......##################################################################################.......................................",
".......##################################################################################.......................................",
".......##################################################################################.......................................",
".......############aaaaaaaaaaaaaaaaaaaaaaaaaaaaaaaaaaaaaaaaaaaaaaaaaaaaaaaaaa########################...........................",
".......############aaaaaaaaaaaaaaaaaaaaaaaaaaaaaaaaaaaaaaaaaaaaaaaaaaaaaaaaaa########################...........................",
".......############aaaaaaaaaaaaaaaaaaaaaaaaaaaaaaaaaaaaaaaaaaaaaaaaaaaaaaaaaa########################...........................",
".......############aaaaaaaaaaaaaaaaaaaaaaaaaaaaaaaaaaaaaaaaaaaaaaaaaaaaaaaaaa########################...........................",
".......############aaaaaaaaaaaaaaaaaaaaaaaaaaaaaaaaaaaaaaaaaaaaaaaaaaaaaaaaaa########################...........................",
".......############aaaaaaaaaaaaaaaaaaaaaaaaaaaaaaaaaaaaaaaaaaaaaaaaaaaaaaaaaa########################...........................",
".......############aaaaaaaaaaaaaaaaaaaaaaaaaaaaaaaaaaaaaaaaaaaaaaaaaaaaaaaaaa########################...........................",
".......############aaaaaaaaaaaaaaaaaaaaaaaaaaaaaaaaaaaaaaaaaaaaaaaaaaaaaaaaaa########################...........................",
".......############aaaaaaaaaaaaaaaaaaaaaaaaaaaaaaaaaaaaaaaaaaaaaaaaaaaaaaaaaa########################...........................",
".......############aaaaaaaaaaaaaaaaaaaaaaaaaaaaaaaaaaaaaaaaaaaaaaaaaaaaaaaaaa########################...........................",
".......############aaaaaaaaaaaaaaaaaaaaaaaaaaaaaaaaaaaaaaaaaaaaaaaaaaaaaaaaaa########################...........................",
".......############aaaaaaaaaaaaaaaaaaaaaaaaaaaaaaaaaaaaaaaaaaaaaaaaaaaaaaaaaaa#######################...........................",
".......############aaaaaaaaaaaaaaaaaaaaaaa########################aaaaaaaaaaaaaaaaaaaaaaa########################...............",
".......############aaaaaaaaaaaaaaaaaaaaaaa########################aaaaaaaaaaaaaaaaaaaaaaa########################...............",
".......############aaaaaaaaaaaaaaaaaaaaaaa########################aaaaaaaaaaaaaaaaaaaaaaa########################...............",
".......############aaaaaaaaaaaaaaaaaaaaaaa########################aaaaaaaaaaaaaaaaaaaaaaa########################...............",
".......############aaaaaaaaaaaaaaaaaaaaaaa########################aaaaaaaaaaaaaaaaaaaaaaa########################...............",
".......############aaaaaaaaaaaaaaaaaaaaaaa########################aaaaaaaaaaaaaaaaaaaaaaa########################...............",
".......############aaaaaaaaaaaaaaaaaaaaaaa########################aaaaaaaaaaaaaaaaaaaaaaa########################...............",
".......############aaaaaaaaaaaaaaaaaaaaaaa########################aaaaaaaaaaaaaaaaaaaaaaa########################...............",
".......############aaaaaaaaaaaaaaaaaaaaaaa########################aaaaaaaaaaaaaaaaaaaaaaa########################...............",
".......############aaaaaaaaaaaaaaaaaaaaaaa########################aaaaaaaaaaaaaaaaaaaaaaa########################...............",
".......############aaaaaaaaaaaaaaaaaaaaaaa########################aaaaaaaaaaaaaaaaaaaaaaa########################...............",
".......############aaaaaaaaaaaaaaaaaaaaaaa###################################aaaaaaaaaaaaaaaaaaaaaaaa#######################....",
".......############aaaaaaaaaaaaaaaaaaaaaaa###################################aaaaaaaaaaaaaaaaaaaaaaaa#######################....",
".......############aaaaaaaaaaaaaaaaaaaaaaa###################################aaaaaaaaaaaaaaaaaaaaaaaa#######################....",
".......############aaaaaaaaaaaaaaaaaaaaaaa###################################aaaaaaaaaaaaaaaaaaaaaaaa#######################....",
".......############aaaaaaaaaaaaaaaaaaaaaaa###################################aaaaaaaaaaaaaaaaaaaaaaaa#######################....",
".......############aaaaaaaaaaaaaaaaaaaaaaa###################################aaaaaaaaaaaaaaaaaaaaaaaa#######################....",
".......############aaaaaaaaaaaaaaaaaaaaaaa###################################aaaaaaaaaaaaaaaaaaaaaaaa#######################....",
".......############aaaaaaaaaaaaaaaaaaaaaaa###################################aaaaaaaaaaaaaaaaaaaaaaaa#######################....",
".......############aaaaaaaaaaaaaaaaaaaaaaa###################################aaaaaaaaaaaaaaaaaaaaaaaa#######################....",
".......############aaaaaaaaaaaaaaaaaaaaaaa###################################aaaaaaaaaaaaaaaaaaaaaaaa#######################....",
".......############aaaaaaaaaaaaaaaaaaaaaaa###################################aaaaaaaaaaaaaaaaaaaaaaaa#######################....",
".......############aaaaaaaaaaaaaaaaaaaaaaa###################################aaaaaaaaaaaaaaaaaaaaaaaa#######################....",
".......############aaaaaaaaaaaaaaaaaaaaaaa###################################aaaaaaaaaaaaaaaaaaaaaaaa#######################....",
".......############aaaaaaaaaaaaaaaaaaaaaaa###################################aaaaaaaaaaaaaaaaaaaaaaaa#######################....",
".......############aaaaaaaaaaaaaaaaaaaaaaa###################################aaaaaaaaaaaaaaaaaaaaaaaa#######################....",
".......############aaaaaaaaaaaaaaaaaaaaaaa###################################aaaaaaaaaaaaaaaaaaaaaaaa#######################....",
".......############aaaaaaaaaaaaaaaaaaaaaaa###################################aaaaaaaaaaaaaaaaaaaaaaaa#######################....",
".......############aaaaaaaaaaaaaaaaaaaaaaa###################################aaaaaaaaaaaaaaaaaaaaaaaa#######################....",
".......############aaaaaaaaaaaaaaaaaaaaaaa###################################aaaaaaaaaaaaaaaaaaaaaaaa#######################....",
".......############aaaaaaaaaaaaaaaaaaaaaaa###################################aaaaaaaaaaaaaaaaaaaaaaaa#######################....",
".......############aaaaaaaaaaaaaaaaaaaaaaa###################################aaaaaaaaaaaaaaaaaaaaaaaa#######################....",
".......############aaaaaaaaaaaaaaaaaaaaaaa###################################aaaaaaaaaaaaaaaaaaaaaaaa#######################....",
".......############aaaaaaaaaaaaaaaaaaaaaaa###################################aaaaaaaaaaaaaaaaaaaaaaaa#######################....",
".......############aaaaaaaaaaaaaaaaaaaaaaa###################################aaaaaaaaaaaaaaaaaaaaaaaa#######################....",
".......############aaaaaaaaaaaaaaaaaaaaaaa###################################aaaaaaaaaaaaaaaaaaaaaaaa#######################....",
".......############aaaaaaaaaaaaaaaaaaaaaaa###################################aaaaaaaaaaaaaaaaaaaaaaaa#######################....",
".......############aaaaaaaaaaaaaaaaaaaaaaa###################################aaaaaaaaaaaaaaaaaaaaaaaa#######################....",
".......############aaaaaaaaaaaaaaaaaaaaaaa###################################aaaaaaaaaaaaaaaaaaaaaaaa#######################....",
".......############aaaaaaaaaaaaaaaaaaaaaaa###################################aaaaaaaaaaaaaaaaaaaaaaaa#######################....",
".......############aaaaaaaaaaaaaaaaaaaaaaa###################################aaaaaaaaaaaaaaaaaaaaaaaa#######################....",
".......############aaaaaaaaaaaaaaaaaaaaaaa###################################aaaaaaaaaaaaaaaaaaaaaaaa#######################....",
".......############aaaaaaaaaaaaaaaaaaaaaaa###################################aaaaaaaaaaaaaaaaaaaaaaaa#######################....",
".......############aaaaaaaaaaaaaaaaaaaaaaa###################################aaaaaaaaaaaaaaaaaaaaaaaa#######################....",
".......############aaaaaaaaaaaaaaaaaaaaaaa###################################aaaaaaaaaaaaaaaaaaaaaaaa#######################....",
".......############aaaaaaaaaaaaaaaaaaaaaaa###################################aaaaaaaaaaaaaaaaaaaaaaaa#######################....",
".......############aaaaaaaaaaaaaaaaaaaaaaa###################################aaaaaaaaaaaaaaaaaaaaaaaa#######################....",
".......############aaaaaaaaaaaaaaaaaaaaaaa########################aaaaaaaaaaaaaaaaaaaaaaa###################################....",
".......############aaaaaaaaaaaaaaaaaaaaaaa########################aaaaaaaaaaaaaaaaaaaaaaa###################################....",
".......############aaaaaaaaaaaaaaaaaaaaaaa########################aaaaaaaaaaaaaaaaaaaaaaa###################################....",
".......############aaaaaaaaaaaaaaaaaaaaaaa########################aaaaaaaaaaaaaaaaaaaaaaa###################################....",
".......############aaaaaaaaaaaaaaaaaaaaaaa########################aaaaaaaaaaaaaaaaaaaaaaa###################################....",
".......############aaaaaaaaaaaaaaaaaaaaaaa########################aaaaaaaaaaaaaaaaaaaaaaa###################################....",
".......############aaaaaaaaaaaaaaaaaaaaaaa########################aaaaaaaaaaaaaaaaaaaaaaa###################################....",
".......############aaaaaaaaaaaaaaaaaaaaaaa########################aaaaaaaaaaaaaaaaaaaaaaa###################################....",
".......############aaaaaaaaaaaaaaaaaaaaaaa########################aaaaaaaaaaaaaaaaaaaaaaa###################################....",
".......############aaaaaaaaaaaaaaaaaaaaaaa########################aaaaaaaaaaaaaaaaaaaaaaa###################################....",
".......############aaaaaaaaaaaaaaaaaaaaaaa########################aaaaaaaaaaaaaaaaaaaaaaa###################################....",
".......############aaaaaaaaaaaaaaaaaaaaaaaaaaaaaaaaaaaaaaaaaaaaaaaaaaaaaaaaaaa##############################################....",
".......############aaaaaaaaaaaaaaaaaaaaaaaaaaaaaaaaaaaaaaaaaaaaaaaaaaaaaaaaaa###############################################....",
".......############aaaaaaaaaaaaaaaaaaaaaaaaaaaaaaaaaaaaaaaaaaaaaaaaaaaaaaaaaa###############################################....",
".......############aaaaaaaaaaaaaaaaaaaaaaaaaaaaaaaaaaaaaaaaaaaaaaaaaaaaaaaaaa###############################################....",
".......############aaaaaaaaaaaaaaaaaaaaaaaaaaaaaaaaaaaaaaaaaaaaaaaaaaaaaaaaaa###############################################....",
".......############aaaaaaaaaaaaaaaaaaaaaaaaaaaaaaaaaaaaaaaaaaaaaaaaaaaaaaaaaa###############################################....",
".......############aaaaaaaaaaaaaaaaaaaaaaaaaaaaaaaaaaaaaaaaaaaaaaaaaaaaaaaaaa###############################################....",
".......############aaaaaaaaaaaaaaaaaaaaaaaaaaaaaaaaaaaaaaaaaaaaaaaaaaaaaaaaaa###############################################....",
".......############aaaaaaaaaaaaaaaaaaaaaaaaaaaaaaaaaaaaaaaaaaaaaaaaaaaaaaaaaa###############################################....",
".......############aaaaaaaaaaaaaaaaaaaaaaaaaaaaaaaaaaaaaaaaaaaaaaaaaaaaaaaaaa###############################################....",
".......############aaaaaaaaaaaaaaaaaaaaaaaaaaaaaaaaaaaaaaaaaaaaaaaaaaaaaaaaaa###############################################....",
".......############aaaaaaaaaaaaaaaaaaaaaaaaaaaaaaaaaaaaaaaaaaaaaaaaaaaaaaaaaa###############################################....",
".......##########################################################################################################...............",
".......##########################################################################################################...............",
".......##########################################################################################################...............",
".......##########################################################################################################...............",
".......##########################################################################################################...............",
".......##########################################################################################################...............",
".......##########################################################################################################...............",
".......##########################################################################################################...............",
".......##########################################################################################################...............",
".......##########################################################################################################...............",
".......##########################################################################################################...............",
".......#########################################################################################################................",
"...................##################################################################################...........................",
"...................##################################################################################...........................",
"...................##################################################################################...........................",
"...................##################################################################################...........................",
"...................##################################################################################...........................",
"...................##################################################################################...........................",
"...................##################################################################################...........................",
"...................##################################################################################...........................",
"...................##################################################################################...........................",
"...................##################################################################################...........................",
"...................##################################################################################...........................",
"................................................................................................................................",
"................................................................................................................................",
"................................................................................................................................",
"................................................................................................................................",
"................................................................................................................................",
"................................................................................................................................",
"................................................................................................................................",
"................................................................................................................................"};
