/* XPM */
static xpm_row_t const letterL_xpm[] = {
"128 128 3 1",
". c None",
"# c #000000",
"a c #ffffff",
"................................................................................................................................",
"................................................................................................................................",
"................................................................................................................................",
"................................................................................................................................",
"..........###############################################.......................................................................",
"..........###############################################.......................................................................",
"..........###############################################.......................................................................",
"..........###############################################.......................................................................",
"..........###############################################.......................................................................",
"..........###############################################.......................................................................",
"..........###############################################.......................................................................",
"..........###############################################.......................................................................",
"..........###############################################.......................................................................",
"..........###############################################.......................................................................",
"..........###############################################.......................................................................",
"..........###############################################.......................................................................",
"..........############aaaaaaaaaaaaaaaaaaaaaaa########################...........................................................",
"..........############aaaaaaaaaaaaaaaaaaaaaaa########################...........................................................",
"..........############aaaaaaaaaaaaaaaaaaaaaaa########################...........................................................",
"..........############aaaaaaaaaaaaaaaaaaaaaaa########################...........................................................",
"..........############aaaaaaaaaaaaaaaaaaaaaaa########################...........................................................",
"..........############aaaaaaaaaaaaaaaaaaaaaaa########################...........................................................",
"..........############aaaaaaaaaaaaaaaaaaaaaaa########################...........................................................",
"..........############aaaaaaaaaaaaaaaaaaaaaaa########################...........................................................",
"..........############aaaaaaaaaaaaaaaaaaaaaaa########################...........................................................",
"..........############aaaaaaaaaaaaaaaaaaaaaaa########################...........................................................",
"..........############aaaaaaaaaaaaaaaaaaaaaaa########################...........................................................",
"..........############aaaaaaaaaaaaaaaaaaaaaaa########################...........................................................",
"..........############aaaaaaaaaaaaaaaaaaaaaaa########################...........................................................",
"..........############aaaaaaaaaaaaaaaaaaaaaaa########################...........................................................",
"..........############aaaaaaaaaaaaaaaaaaaaaaa########################...........................................................",
"..........############aaaaaaaaaaaaaaaaaaaaaaa########################...........................................................",
"..........############aaaaaaaaaaaaaaaaaaaaaaa########################...........................................................",
"..........############aaaaaaaaaaaaaaaaaaaaaaa########################...........................................................",
"..........############aaaaaaaaaaaaaaaaaaaaaaa########################...........................................................",
"..........############aaaaaaaaaaaaaaaaaaaaaaa########################...........................................................",
"..........############aaaaaaaaaaaaaaaaaaaaaaa########################...........................................................",
"..........############aaaaaaaaaaaaaaaaaaaaaaa########################...........................................................",
"..........############aaaaaaaaaaaaaaaaaaaaaaa########################...........................................................",
"..........############aaaaaaaaaaaaaaaaaaaaaaa########################...........................................................",
"..........############aaaaaaaaaaaaaaaaaaaaaaa########################...........................................................",
"..........############aaaaaaaaaaaaaaaaaaaaaaa########################...........................................................",
"..........############aaaaaaaaaaaaaaaaaaaaaaa########################...........................................................",
"..........############aaaaaaaaaaaaaaaaaaaaaaa########################...........................................................",
"..........############aaaaaaaaaaaaaaaaaaaaaaa########################...........................................................",
"..........############aaaaaaaaaaaaaaaaaaaaaaa########################...........................................................",
"..........############aaaaaaaaaaaaaaaaaaaaaaa########################...........................................................",
"..........############aaaaaaaaaaaaaaaaaaaaaaa########################...........................................................",
"..........############aaaaaaaaaaaaaaaaaaaaaaa########################...........................................................",
"..........############aaaaaaaaaaaaaaaaaaaaaaa########################...........................................................",
"..........############aaaaaaaaaaaaaaaaaaaaaaa########################...........................................................",
"..........############aaaaaaaaaaaaaaaaaaaaaaa########################...........................................................",
"..........############aaaaaaaaaaaaaaaaaaaaaaa########################...........................................................",
"..........############aaaaaaaaaaaaaaaaaaaaaaa########################...........................................................",
"..........############aaaaaaaaaaaaaaaaaaaaaaa########################...........................................................",
"..........############aaaaaaaaaaaaaaaaaaaaaaa########################...........................................................",
"..........############aaaaaaaaaaaaaaaaaaaaaaa########################...........................................................",
"..........############aaaaaaaaaaaaaaaaaaaaaaa########################...........................................................",
"..........############aaaaaaaaaaaaaaaaaaaaaaa########################...........................................................",
"..........############aaaaaaaaaaaaaaaaaaaaaaa########################...........................................................",
"..........############aaaaaaaaaaaaaaaaaaaaaaa########################...........................................................",
"..........############aaaaaaaaaaaaaaaaaaaaaaa########################...........................................................",
"..........############aaaaaaaaaaaaaaaaaaaaaaa########################...........................................................",
"..........############aaaaaaaaaaaaaaaaaaaaaaa########################...........................................................",
"..........############aaaaaaaaaaaaaaaaaaaaaaa########################...........................................................",
"..........############aaaaaaaaaaaaaaaaaaaaaaa########################...........................................................",
"..........############aaaaaaaaaaaaaaaaaaaaaaa########################...........................................................",
"..........############aaaaaaaaaaaaaaaaaaaaaaa########################...........................................................",
"..........############aaaaaaaaaaaaaaaaaaaaaaa########################...........................................................",
"..........############aaaaaaaaaaaaaaaaaaaaaaa########################...........................................................",
"..........############aaaaaaaaaaaaaaaaaaaaaaa########################...........................................................",
"..........############aaaaaaaaaaaaaaaaaaaaaaa########################...........................................................",
"..........############aaaaaaaaaaaaaaaaaaaaaaa########################...........................................................",
"..........############aaaaaaaaaaaaaaaaaaaaaaa########################...........................................................",
"..........############aaaaaaaaaaaaaaaaaaaaaaa########################...........................................................",
"..........############aaaaaaaaaaaaaaaaaaaaaaa###########################################################........................",
"..........############aaaaaaaaaaaaaaaaaaaaaaa###########################################################........................",
"..........############aaaaaaaaaaaaaaaaaaaaaaa###########################################################........................",
"..........############aaaaaaaaaaaaaaaaaaaaaaa###########################################################........................",
"..........############aaaaaaaaaaaaaaaaaaaaaaa###########################################################........................",
"..........############aaaaaaaaaaaaaaaaaaaaaaa###########################################################........................",
"..........############aaaaaaaaaaaaaaaaaaaaaaa###########################################################........................",
"..........############aaaaaaaaaaaaaaaaaaaaaaa###########################################################........................",
"..........############aaaaaaaaaaaaaaaaaaaaaaa###########################################################........................",
"..........############aaaaaaaaaaaaaaaaaaaaaaa###########################################################........................",
"..........############aaaaaaaaaaaaaaaaaaaaaaa###########################################################........................",
"..........############aaaaaaaaaaaaaaaaaaaaaaaaaaaaaaaaaaaaaaaaaaaaaaaaaaaaaaaaaaaaaaaaaaaaaa#######################.............",
"..........############aaaaaaaaaaaaaaaaaaaaaaaaaaaaaaaaaaaaaaaaaaaaaaaaaaaaaaaaaaaaaaaaaaaaaa########################............",
"..........############aaaaaaaaaaaaaaaaaaaaaaaaaaaaaaaaaaaaaaaaaaaaaaaaaaaaaaaaaaaaaaaaaaaaaa########################............",
"..........############aaaaaaaaaaaaaaaaaaaaaaaaaaaaaaaaaaaaaaaaaaaaaaaaaaaaaaaaaaaaaaaaaaaaaa########################............",
"..........############aaaaaaaaaaaaaaaaaaaaaaaaaaaaaaaaaaaaaaaaaaaaaaaaaaaaaaaaaaaaaaaaaaaaaa########################............",
"..........############aaaaaaaaaaaaaaaaaaaaaaaaaaaaaaaaaaaaaaaaaaaaaaaaaaaaaaaaaaaaaaaaaaaaaa########################............",
"..........############aaaaaaaaaaaaaaaaaaaaaaaaaaaaaaaaaaaaaaaaaaaaaaaaaaaaaaaaaaaaaaaaaaaaaa########################............",
"..........############aaaaaaaaaaaaaaaaaaaaaaaaaaaaaaaaaaaaaaaaaaaaaaaaaaaaaaaaaaaaaaaaaaaaaa########################............",
"..........############aaaaaaaaaaaaaaaaaaaaaaaaaaaaaaaaaaaaaaaaaaaaaaaaaaaaaaaaaaaaaaaaaaaaaa########################............",
"..........############aaaaaaaaaaaaaaaaaaaaaaaaaaaaaaaaaaaaaaaaaaaaaaaaaaaaaaaaaaaaaaaaaaaaaa########################............",
"..........############aaaaaaaaaaaaaaaaaaaaaaaaaaaaaaaaaaaaaaaaaaaaaaaaaaaaaaaaaaaaaaaaaaaaaa########################............",
"..........############aaaaaaaaaaaaaaaaaaaaaaaaaaaaaaaaaaaaaaaaaaaaaaaaaaaaaaaaaaaaaaaaaaaaaa########################............",
"..........##########################################################################################################............",
"..........##########################################################################################################............",
"..........##########################################################################################################............",
"..........##########################################################################################################............",
"..........##########################################################################################################............",
"..........##########################################################################################################............",
"..........##########################################################################################################............",
"..........##########################################################################################################............",
"..........##########################################################################################################............",
"..........##########################################################################################################............",
"..........##########################################################################################################............",
"..........##########################################################################################################............",
"......................##############################################################################################............",
"......................##############################################################################################............",
"......................##############################################################################################............",
"......................##############################################################################################............",
"......................##############################################################################################............",
"......................##############################################################################################............",
"......................##############################################################################################............",
"......................##############################################################################################............",
"......................##############################################################################################............",
"......................##############################################################################################............",
"......................##############################################################################################............",
"................................................................................................................................",
"................................................................................................................................",
"................................................................................................................................",
"................................................................................................................................",
"................................................................................................................................",
"................................................................................................................................",
"................................................................................................................................"};
