/* XPM */
static xpm_row_t const letterF_xpm[] = {
"128 128 3 1",
". c None",
"# c #000000",
"a c #ffffff",
"................................................................................................................................",
"................................................................................................................................",
"................................................................................................................................",
"................................................................................................................................",
".....#########################################################################################################..................",
".....##########################################################################################################.................",
".....##########################################################################################################.................",
".....##########################################################################################################.................",
".....##########################################################################################################.................",
".....##########################################################################################################.................",
".....##########################################################################################################.................",
".....##########################################################################################################.................",
".....##########################################################################################################.................",
".....##########################################################################################################.................",
".....##########################################################################################################.................",
".....##########################################################################################################.................",
".....############aaaaaaaaaaaaaaaaaaaaaaaaaaaaaaaaaaaaaaaaaaaaaaaaaaaaaaaaaaaaaaaaaaaaaaaaaaaaaaaaaa#######################......",
".....############aaaaaaaaaaaaaaaaaaaaaaaaaaaaaaaaaaaaaaaaaaaaaaaaaaaaaaaaaaaaaaaaaaaaaaaaaaaaaaaaaa#######################......",
".....############aaaaaaaaaaaaaaaaaaaaaaaaaaaaaaaaaaaaaaaaaaaaaaaaaaaaaaaaaaaaaaaaaaaaaaaaaaaaaaaaaa#######################......",
".....############aaaaaaaaaaaaaaaaaaaaaaaaaaaaaaaaaaaaaaaaaaaaaaaaaaaaaaaaaaaaaaaaaaaaaaaaaaaaaaaaaa#######################......",
".....############aaaaaaaaaaaaaaaaaaaaaaaaaaaaaaaaaaaaaaaaaaaaaaaaaaaaaaaaaaaaaaaaaaaaaaaaaaaaaaaaaa#######################......",
".....############aaaaaaaaaaaaaaaaaaaaaaaaaaaaaaaaaaaaaaaaaaaaaaaaaaaaaaaaaaaaaaaaaaaaaaaaaaaaaaaaaa#######################......",
".....############aaaaaaaaaaaaaaaaaaaaaaaaaaaaaaaaaaaaaaaaaaaaaaaaaaaaaaaaaaaaaaaaaaaaaaaaaaaaaaaaaa#######################......",
".....############aaaaaaaaaaaaaaaaaaaaaaaaaaaaaaaaaaaaaaaaaaaaaaaaaaaaaaaaaaaaaaaaaaaaaaaaaaaaaaaaaa#######################......",
".....############aaaaaaaaaaaaaaaaaaaaaaaaaaaaaaaaaaaaaaaaaaaaaaaaaaaaaaaaaaaaaaaaaaaaaaaaaaaaaaaaaa#######################......",
".....############aaaaaaaaaaaaaaaaaaaaaaaaaaaaaaaaaaaaaaaaaaaaaaaaaaaaaaaaaaaaaaaaaaaaaaaaaaaaaaaaaa#######################......",
".....############aaaaaaaaaaaaaaaaaaaaaaaaaaaaaaaaaaaaaaaaaaaaaaaaaaaaaaaaaaaaaaaaaaaaaaaaaaaaaaaaaa#######################......",
".....############aaaaaaaaaaaaaaaaaaaaaaaaaaaaaaaaaaaaaaaaaaaaaaaaaaaaaaaaaaaaaaaaaaaaaaaaaaaaaaaaaa#######################......",
".....############aaaaaaaaaaaaaaaaaaaaaaa##################################################################################......",
".....############aaaaaaaaaaaaaaaaaaaaaaa##################################################################################......",
".....############aaaaaaaaaaaaaaaaaaaaaaa##################################################################################......",
".....############aaaaaaaaaaaaaaaaaaaaaaa##################################################################################......",
".....############aaaaaaaaaaaaaaaaaaaaaaa##################################################################################......",
".....############aaaaaaaaaaaaaaaaaaaaaaa##################################################################################......",
".....############aaaaaaaaaaaaaaaaaaaaaaa##################################################################################......",
".....############aaaaaaaaaaaaaaaaaaaaaaa##################################################################################......",
".....############aaaaaaaaaaaaaaaaaaaaaaa##################################################################################......",
".....############aaaaaaaaaaaaaaaaaaaaaaa##################################################################################......",
".....############aaaaaaaaaaaaaaaaaaaaaaa##################################################################################......",
".....############aaaaaaaaaaaaaaaaaaaaaaa##################################################################################......",
".....############aaaaaaaaaaaaaaaaaaaaaaa##################################################################################......",
".....############aaaaaaaaaaaaaaaaaaaaaaa##################################################################################......",
".....############aaaaaaaaaaaaaaaaaaaaaaa##################################################################################......",
".....############aaaaaaaaaaaaaaaaaaaaaaa##################################################################################......",
".....############aaaaaaaaaaaaaaaaaaaaaaa##################################################################################......",
".....############aaaaaaaaaaaaaaaaaaaaaaa##################################################################################......",
".....############aaaaaaaaaaaaaaaaaaaaaaa##################################################################################......",
".....############aaaaaaaaaaaaaaaaaaaaaaa##################################################################################......",
".....############aaaaaaaaaaaaaaaaaaaaaaa##################################################################################......",
".....############aaaaaaaaaaaaaaaaaaaaaaa##################################################################################......",
".....############aaaaaaaaaaaaaaaaaaaaaaa##################################################################################......",
".....############aaaaaaaaaaaaaaaaaaaaaaaaaaaaaaaaaaaaaaaaaaaaaaaaaaaaaaaaaaaaaaaaaaaaaa########################.................",
".....############aaaaaaaaaaaaaaaaaaaaaaaaaaaaaaaaaaaaaaaaaaaaaaaaaaaaaaaaaaaaaaaaaaaaaa########################.................",
".....############aaaaaaaaaaaaaaaaaaaaaaaaaaaaaaaaaaaaaaaaaaaaaaaaaaaaaaaaaaaaaaaaaaaaaa########################.................",
".....############aaaaaaaaaaaaaaaaaaaaaaaaaaaaaaaaaaaaaaaaaaaaaaaaaaaaaaaaaaaaaaaaaaaaaa########################.................",
".....############aaaaaaaaaaaaaaaaaaaaaaaaaaaaaaaaaaaaaaaaaaaaaaaaaaaaaaaaaaaaaaaaaaaaaa########################.................",
".....############aaaaaaaaaaaaaaaaaaaaaaaaaaaaaaaaaaaaaaaaaaaaaaaaaaaaaaaaaaaaaaaaaaaaaa########################.................",
".....############aaaaaaaaaaaaaaaaaaaaaaaaaaaaaaaaaaaaaaaaaaaaaaaaaaaaaaaaaaaaaaaaaaaaaa########################.................",
".....############aaaaaaaaaaaaaaaaaaaaaaaaaaaaaaaaaaaaaaaaaaaaaaaaaaaaaaaaaaaaaaaaaaaaaa########################.................",
".....############aaaaaaaaaaaaaaaaaaaaaaaaaaaaaaaaaaaaaaaaaaaaaaaaaaaaaaaaaaaaaaaaaaaaaa########################.................",
".....############aaaaaaaaaaaaaaaaaaaaaaaaaaaaaaaaaaaaaaaaaaaaaaaaaaaaaaaaaaaaaaaaaaaaaa########################.................",
".....############aaaaaaaaaaaaaaaaaaaaaaaaaaaaaaaaaaaaaaaaaaaaaaaaaaaaaaaaaaaaaaaaaaaaaa########################.................",
".....############aaaaaaaaaaaaaaaaaaaaaaaaaaaaaaaaaaaaaaaaaaaaaaaaaaaaaaaaaaaaaaaaaaaaaa########################.................",
".....############aaaaaaaaaaaaaaaaaaaaaaa#######################################################################.................",
".....############aaaaaaaaaaaaaaaaaaaaaaa#######################################################################.................",
".....############aaaaaaaaaaaaaaaaaaaaaaa#######################################################################.................",
".....############aaaaaaaaaaaaaaaaaaaaaaa#######################################################################.................",
".....############aaaaaaaaaaaaaaaaaaaaaaa#######################################################################.................",
".....############aaaaaaaaaaaaaaaaaaaaaaa#######################################################################.................",
".....############aaaaaaaaaaaaaaaaaaaaaaa#######################################################################.................",
".....############aaaaaaaaaaaaaaaaaaaaaaa#######################################################################.................",
".....############aaaaaaaaaaaaaaaaaaaaaaa#######################################################################.................",
".....############aaaaaaaaaaaaaaaaaaaaaaa#######################################################################.................",
".....############aaaaaaaaaaaaaaaaaaaaaaa#######################################################################.................",
".....############aaaaaaaaaaaaaaaaaaaaaaa#######################################################################.................",
".....############aaaaaaaaaaaaaaaaaaaaaaa#######################################################################.................",
".....############aaaaaaaaaaaaaaaaaaaaaaa#######################################################################.................",
".....############aaaaaaaaaaaaaaaaaaaaaaa#######################################################################.................",
".....############aaaaaaaaaaaaaaaaaaaaaaa#######################################################################.................",
".....############aaaaaaaaaaaaaaaaaaaaaaa#######################################################################.................",
".....############aaaaaaaaaaaaaaaaaaaaaaa#######################################################################.................",
".....############aaaaaaaaaaaaaaaaaaaaaaa#######################################################################.................",
".....############aaaaaaaaaaaaaaaaaaaaaaa#######################################################################.................",
".....############aaaaaaaaaaaaaaaaaaaaaaa#######################################################################.................",
".....############aaaaaaaaaaaaaaaaaaaaaaa#######################################################################.................",
".....############aaaaaaaaaaaaaaaaaaaaaaa#######################################################################.................",
".....############aaaaaaaaaaaaaaaaaaaaaaa########################................................................................",
".....############aaaaaaaaaaaaaaaaaaaaaaa########################................................................................",
".....############aaaaaaaaaaaaaaaaaaaaaaa########################................................................................",
".....############aaaaaaaaaaaaaaaaaaaaaaa########################................................................................",
".....############aaaaaaaaaaaaaaaaaaaaaaa########################................................................................",
".....############aaaaaaaaaaaaaaaaaaaaaaa########################................................................................",
".....############aaaaaaaaaaaaaaaaaaaaaaa########################................................................................",
".....############aaaaaaaaaaaaaaaaaaaaaaa########################................................................................",
".....############aaaaaaaaaaaaaaaaaaaaaaa########################................................................................",
".....############aaaaaaaaaaaaaaaaaaaaaaa########################................................................................",
".....############aaaaaaaaaaaaaaaaaaaaaaa########################................................................................",
".....############aaaaaaaaaaaaaaaaaaaaaaa########################................................................................",
".....###########################################################................................................................",
".....###########################################################................................................................",
".....###########################################################................................................................",
".....###########################################################................................................................",
".....###########################################################................................................................",
".....###########################################################................................................................",
".....###########################################################................................................................",
".....###########################################################................................................................",
".....###########################################################................................................................",
".....###########################################################................................................................",
".....###########################################################................................................................",
".....###########################################################................................................................",
".................###############################################................................................................",
".................###############################################................................................................",
".................###############################################................................................................",
".................###############################################................................................................",
".................###############################################................................................................",
".................###############################################................................................................",
".................###############################################................................................................",
".................###############################################................................................................",
".................###############################################................................................................",
".................###############################################................................................................",
".................###############################################................................................................",
"................................................................................................................................",
"................................................................................................................................",
"................................................................................................................................",
"................................................................................................................................",
"................................................................................................................................",
"................................................................................................................................",
"................................................................................................................................"};
