/* XPM */
static xpm_row_t const letterV_xpm[] = {
"128 128 3 1",
". c None",
"# c #000000",
"a c #ffffff",
"................................................................................................................................",
"................................................................................................................................",
"................................................................................................................................",
"................................................................................................................................",
".........###############################################............##############################################..............",
".........###############################################............###############################################.............",
".........###############################################............###############################################.............",
".........###############################################............###############################################.............",
".........###############################################............###############################################.............",
".........###############################################............###############################################.............",
".........###############################################............###############################################.............",
".........###############################################............###############################################.............",
".........###############################################............###############################################.............",
".........###############################################............###############################################.............",
".........###############################################............###############################################.............",
".........###############################################............###############################################.............",
".........############aaaaaaaaaaaaaaaaaaaaaaa###################################aaaaaaaaaaaaaaaaaaaaaaaa#######################..",
".........############aaaaaaaaaaaaaaaaaaaaaaa###################################aaaaaaaaaaaaaaaaaaaaaaaa#######################..",
".........############aaaaaaaaaaaaaaaaaaaaaaa###################################aaaaaaaaaaaaaaaaaaaaaaaa#######################..",
".........############aaaaaaaaaaaaaaaaaaaaaaa###################################aaaaaaaaaaaaaaaaaaaaaaaa#######################..",
".........############aaaaaaaaaaaaaaaaaaaaaaa###################################aaaaaaaaaaaaaaaaaaaaaaaa#######################..",
".........############aaaaaaaaaaaaaaaaaaaaaaa###################################aaaaaaaaaaaaaaaaaaaaaaaa#######################..",
".........############aaaaaaaaaaaaaaaaaaaaaaa###################################aaaaaaaaaaaaaaaaaaaaaaaa#######################..",
".........############aaaaaaaaaaaaaaaaaaaaaaa###################################aaaaaaaaaaaaaaaaaaaaaaaa#######################..",
".........############aaaaaaaaaaaaaaaaaaaaaaa###################################aaaaaaaaaaaaaaaaaaaaaaaa#######################..",
".........############aaaaaaaaaaaaaaaaaaaaaaa###################################aaaaaaaaaaaaaaaaaaaaaaaa#######################..",
".........############aaaaaaaaaaaaaaaaaaaaaaa###################################aaaaaaaaaaaaaaaaaaaaaaaa#######################..",
".........############aaaaaaaaaaaaaaaaaaaaaaa###################################aaaaaaaaaaaaaaaaaaaaaaaa#######################..",
".........############aaaaaaaaaaaaaaaaaaaaaaa###################################aaaaaaaaaaaaaaaaaaaaaaaa#######################..",
".........############aaaaaaaaaaaaaaaaaaaaaaa###################################aaaaaaaaaaaaaaaaaaaaaaaa#######################..",
".........############aaaaaaaaaaaaaaaaaaaaaaa###################################aaaaaaaaaaaaaaaaaaaaaaaa#######################..",
".........############aaaaaaaaaaaaaaaaaaaaaaa###################################aaaaaaaaaaaaaaaaaaaaaaaa#######################..",
".........############aaaaaaaaaaaaaaaaaaaaaaa###################################aaaaaaaaaaaaaaaaaaaaaaaa#######################..",
".........############aaaaaaaaaaaaaaaaaaaaaaa###################################aaaaaaaaaaaaaaaaaaaaaaaa#######################..",
".........############aaaaaaaaaaaaaaaaaaaaaaa###################################aaaaaaaaaaaaaaaaaaaaaaaa#######################..",
".........############aaaaaaaaaaaaaaaaaaaaaaa###################################aaaaaaaaaaaaaaaaaaaaaaaa#######################..",
".........############aaaaaaaaaaaaaaaaaaaaaaa###################################aaaaaaaaaaaaaaaaaaaaaaaa#######################..",
".........############aaaaaaaaaaaaaaaaaaaaaaa###################################aaaaaaaaaaaaaaaaaaaaaaaa#######################..",
".........############aaaaaaaaaaaaaaaaaaaaaaa###################################aaaaaaaaaaaaaaaaaaaaaaaa#######################..",
".........############aaaaaaaaaaaaaaaaaaaaaaa###################################aaaaaaaaaaaaaaaaaaaaaaaa#######################..",
".........############aaaaaaaaaaaaaaaaaaaaaaa###################################aaaaaaaaaaaaaaaaaaaaaaaa#######################..",
".........############aaaaaaaaaaaaaaaaaaaaaaa###################################aaaaaaaaaaaaaaaaaaaaaaaa#######################..",
".........############aaaaaaaaaaaaaaaaaaaaaaa###################################aaaaaaaaaaaaaaaaaaaaaaaa#######################..",
".........############aaaaaaaaaaaaaaaaaaaaaaa###################################aaaaaaaaaaaaaaaaaaaaaaaa#######################..",
".........############aaaaaaaaaaaaaaaaaaaaaaa###################################aaaaaaaaaaaaaaaaaaaaaaaa#######################..",
".........############aaaaaaaaaaaaaaaaaaaaaaa###################################aaaaaaaaaaaaaaaaaaaaaaaa#######################..",
".........############aaaaaaaaaaaaaaaaaaaaaaa###################################aaaaaaaaaaaaaaaaaaaaaaaa#######################..",
".........############aaaaaaaaaaaaaaaaaaaaaaa###################################aaaaaaaaaaaaaaaaaaaaaaaa#######################..",
".........############aaaaaaaaaaaaaaaaaaaaaaa###################################aaaaaaaaaaaaaaaaaaaaaaaa#######################..",
".........############aaaaaaaaaaaaaaaaaaaaaaa###################################aaaaaaaaaaaaaaaaaaaaaaaa#######################..",
".........############aaaaaaaaaaaaaaaaaaaaaaa###################################aaaaaaaaaaaaaaaaaaaaaaaa#######################..",
".........############aaaaaaaaaaaaaaaaaaaaaaa###################################aaaaaaaaaaaaaaaaaaaaaaaa#######################..",
".........############aaaaaaaaaaaaaaaaaaaaaaa###################################aaaaaaaaaaaaaaaaaaaaaaaa#######################..",
".........############aaaaaaaaaaaaaaaaaaaaaaa###################################aaaaaaaaaaaaaaaaaaaaaaaa#######################..",
".........############aaaaaaaaaaaaaaaaaaaaaaa###################################aaaaaaaaaaaaaaaaaaaaaaaa#######################..",
".........############aaaaaaaaaaaaaaaaaaaaaaa###################################aaaaaaaaaaaaaaaaaaaaaaaa#######################..",
".........############aaaaaaaaaaaaaaaaaaaaaaa###################################aaaaaaaaaaaaaaaaaaaaaaaa#######################..",
".........############aaaaaaaaaaaaaaaaaaaaaaa###################################aaaaaaaaaaaaaaaaaaaaaaaa#######################..",
".........############aaaaaaaaaaaaaaaaaaaaaaa###################################aaaaaaaaaaaaaaaaaaaaaaaa#######################..",
".........############aaaaaaaaaaaaaaaaaaaaaaa###################################aaaaaaaaaaaaaaaaaaaaaaaa#######################..",
".........############aaaaaaaaaaaaaaaaaaaaaaa###################################aaaaaaaaaaaaaaaaaaaaaaaa#######################..",
".........############aaaaaaaaaaaaaaaaaaaaaaa###################################aaaaaaaaaaaaaaaaaaaaaaaa#######################..",
".........############aaaaaaaaaaaaaaaaaaaaaaa###################################aaaaaaaaaaaaaaaaaaaaaaaa#######################..",
".........########################aaaaaaaaaaaaaaaaaaaaaaa############aaaaaaaaaaaaaaaaaaaaaaa###################################..",
".........########################aaaaaaaaaaaaaaaaaaaaaaa############aaaaaaaaaaaaaaaaaaaaaaa###################################..",
".........########################aaaaaaaaaaaaaaaaaaaaaaa############aaaaaaaaaaaaaaaaaaaaaaa###################################..",
".........########################aaaaaaaaaaaaaaaaaaaaaaa############aaaaaaaaaaaaaaaaaaaaaaa###################################..",
".........########################aaaaaaaaaaaaaaaaaaaaaaa############aaaaaaaaaaaaaaaaaaaaaaa###################################..",
".........########################aaaaaaaaaaaaaaaaaaaaaaa############aaaaaaaaaaaaaaaaaaaaaaa###################################..",
".........########################aaaaaaaaaaaaaaaaaaaaaaa############aaaaaaaaaaaaaaaaaaaaaaa###################################..",
".........########################aaaaaaaaaaaaaaaaaaaaaaa############aaaaaaaaaaaaaaaaaaaaaaa###################################..",
".........########################aaaaaaaaaaaaaaaaaaaaaaa############aaaaaaaaaaaaaaaaaaaaaaa###################################..",
".........########################aaaaaaaaaaaaaaaaaaaaaaa############aaaaaaaaaaaaaaaaaaaaaaa###################################..",
".........########################aaaaaaaaaaaaaaaaaaaaaaa############aaaaaaaaaaaaaaaaaaaaaaa###################################..",
".........########################aaaaaaaaaaaaaaaaaaaaaaa###########aaaaaaaaaaaaaaaaaaaaaaaa###################################..",
".....................#######################aaaaaaaaaaaaaaaaaaaaaaaaaaaaaaaaaaa###############################################..",
".....................#######################aaaaaaaaaaaaaaaaaaaaaaaaaaaaaaaaaaa###############################################..",
".....................#######################aaaaaaaaaaaaaaaaaaaaaaaaaaaaaaaaaaa###############################################..",
".....................#######################aaaaaaaaaaaaaaaaaaaaaaaaaaaaaaaaaaa###############################################..",
".....................#######################aaaaaaaaaaaaaaaaaaaaaaaaaaaaaaaaaaa###############################################..",
".....................#######################aaaaaaaaaaaaaaaaaaaaaaaaaaaaaaaaaaa###############################################..",
".....................#######################aaaaaaaaaaaaaaaaaaaaaaaaaaaaaaaaaaa###############################################..",
".....................#######################aaaaaaaaaaaaaaaaaaaaaaaaaaaaaaaaaaa###############################################..",
".....................#######################aaaaaaaaaaaaaaaaaaaaaaaaaaaaaaaaaaa###############################################..",
".....................#######################aaaaaaaaaaaaaaaaaaaaaaaaaaaaaaaaaaa###############################################..",
".....................#######################aaaaaaaaaaaaaaaaaaaaaaaaaaaaaaaaaaa###############################################..",
"................................########################aaaaaaaaaaaa###############################################.............",
".................................#######################aaaaaaaaaaaa###############################################.............",
".................................#######################aaaaaaaaaaaa###############################################.............",
".................................#######################aaaaaaaaaaaa###############################################.............",
".................................#######################aaaaaaaaaaaa###############################################.............",
".................................#######################aaaaaaaaaaaa###############################################.............",
".................................#######################aaaaaaaaaaaa###############################################.............",
".................................#######################aaaaaaaaaaaa###############################################.............",
".................................#######################aaaaaaaaaaaa###############################################.............",
".................................#######################aaaaaaaaaaaa###############################################.............",
".................................#######################aaaaaaaaaaaa###############################################.............",
".................................#######################aaaaaaaaaaaa###############################################.............",
"............................................###########################################################.........................",
"............................................###########################################################.........................",
"............................................###########################################################.........................",
"............................................###########################################################.........................",
"............................................###########################################################.........................",
"............................................###########################################################.........................",
"............................................###########################################################.........................",
"............................................###########################################################.........................",
"............................................###########################################################.........................",
"............................................###########################################################.........................",
"............................................###########################################################.........................",
".............................................##########################################################.........................",
"........................................................###################################.....................................",
"........................................................###################################.....................................",
"........................................................###################################.....................................",
"........................................................###################################.....................................",
"........................................................###################################.....................................",
"........................................................###################################.....................................",
"........................................................###################################.....................................",
"........................................................###################################.....................................",
"........................................................###################################.....................................",
"........................................................###################################.....................................",
"........................................................###################################.....................................",
"................................................................................................................................",
"................................................................................................................................",
"................................................................................................................................",
"................................................................................................................................",
"................................................................................................................................",
"................................................................................................................................",
"................................................................................................................................"};
