/* XPM */
static xpm_row_t const letterM_xpm[] = {
"128 128 3 1",
". c None",
"# c #000000",
"a c #ffffff",
"................................................................................................................................",
"................................................................................................................................",
"................................................................................................................................",
"................................................................................................................................",
"...........###############################################............##############################################............",
"...........###############################################............###############################################...........",
"...........###############################################............###############################################...........",
"...........###############################################............###############################################...........",
"...........###############################################............###############################################...........",
"...........###############################################............###############################################...........",
"...........###############################################............###############################################...........",
"...........###############################################............###############################################...........",
"...........###############################################............###############################################...........",
"...........###############################################............###############################################...........",
"...........###############################################............###############################################...........",
"...........###############################################............###############################################...........",
"...........############aaaaaaaaaaaaaaaaaaaaaaa###################################aaaaaaaaaaaaaaaaaaaaaaaa#######################",
"...........############aaaaaaaaaaaaaaaaaaaaaaa###################################aaaaaaaaaaaaaaaaaaaaaaaa#######################",
"...........############aaaaaaaaaaaaaaaaaaaaaaa###################################aaaaaaaaaaaaaaaaaaaaaaaa#######################",
"...........############aaaaaaaaaaaaaaaaaaaaaaa###################################aaaaaaaaaaaaaaaaaaaaaaaa#######################",
"...........############aaaaaaaaaaaaaaaaaaaaaaa###################################aaaaaaaaaaaaaaaaaaaaaaaa#######################",
"...........############aaaaaaaaaaaaaaaaaaaaaaa###################################aaaaaaaaaaaaaaaaaaaaaaaa#######################",
"...........############aaaaaaaaaaaaaaaaaaaaaaa###################################aaaaaaaaaaaaaaaaaaaaaaaa#######################",
"...........############aaaaaaaaaaaaaaaaaaaaaaa###################################aaaaaaaaaaaaaaaaaaaaaaaa#######################",
"...........############aaaaaaaaaaaaaaaaaaaaaaa###################################aaaaaaaaaaaaaaaaaaaaaaaa#######################",
"...........############aaaaaaaaaaaaaaaaaaaaaaa###################################aaaaaaaaaaaaaaaaaaaaaaaa#######################",
"...........############aaaaaaaaaaaaaaaaaaaaaaa###################################aaaaaaaaaaaaaaaaaaaaaaaa#######################",
"...........############aaaaaaaaaaaaaaaaaaaaaaaa##################################aaaaaaaaaaaaaaaaaaaaaaaa#######################",
"...........############aaaaaaaaaaaaaaaaaaaaaaaaaaaaaaaaaaa############aaaaaaaaaaaaaaaaaaaaaaaaaaaaaaaaaaa#######################",
"...........############aaaaaaaaaaaaaaaaaaaaaaaaaaaaaaaaaaa############aaaaaaaaaaaaaaaaaaaaaaaaaaaaaaaaaaa#######################",
"...........############aaaaaaaaaaaaaaaaaaaaaaaaaaaaaaaaaaa############aaaaaaaaaaaaaaaaaaaaaaaaaaaaaaaaaaa#######################",
"...........############aaaaaaaaaaaaaaaaaaaaaaaaaaaaaaaaaaa############aaaaaaaaaaaaaaaaaaaaaaaaaaaaaaaaaaa#######################",
"...........############aaaaaaaaaaaaaaaaaaaaaaaaaaaaaaaaaaa############aaaaaaaaaaaaaaaaaaaaaaaaaaaaaaaaaaa#######################",
"...........############aaaaaaaaaaaaaaaaaaaaaaaaaaaaaaaaaaa############aaaaaaaaaaaaaaaaaaaaaaaaaaaaaaaaaaa#######################",
"...........############aaaaaaaaaaaaaaaaaaaaaaaaaaaaaaaaaaa############aaaaaaaaaaaaaaaaaaaaaaaaaaaaaaaaaaa#######################",
"...........############aaaaaaaaaaaaaaaaaaaaaaaaaaaaaaaaaaa############aaaaaaaaaaaaaaaaaaaaaaaaaaaaaaaaaaa#######################",
"...........############aaaaaaaaaaaaaaaaaaaaaaaaaaaaaaaaaaa############aaaaaaaaaaaaaaaaaaaaaaaaaaaaaaaaaaa#######################",
"...........############aaaaaaaaaaaaaaaaaaaaaaaaaaaaaaaaaaa############aaaaaaaaaaaaaaaaaaaaaaaaaaaaaaaaaaa#######################",
"...........############aaaaaaaaaaaaaaaaaaaaaaaaaaaaaaaaaaa############aaaaaaaaaaaaaaaaaaaaaaaaaaaaaaaaaaa#######################",
"...........############aaaaaaaaaaaaaaaaaaaaaaaaaaaaaaaaaaaaaaaaaaaaaaaaaaaaaaaaaaaaaaaaaaaaaaaaaaaaaaaaaa#######################",
"...........############aaaaaaaaaaaaaaaaaaaaaaaaaaaaaaaaaaaaaaaaaaaaaaaaaaaaaaaaaaaaaaaaaaaaaaaaaaaaaaaaaa#######################",
"...........############aaaaaaaaaaaaaaaaaaaaaaaaaaaaaaaaaaaaaaaaaaaaaaaaaaaaaaaaaaaaaaaaaaaaaaaaaaaaaaaaaa#######################",
"...........############aaaaaaaaaaaaaaaaaaaaaaaaaaaaaaaaaaaaaaaaaaaaaaaaaaaaaaaaaaaaaaaaaaaaaaaaaaaaaaaaaa#######################",
"...........############aaaaaaaaaaaaaaaaaaaaaaaaaaaaaaaaaaaaaaaaaaaaaaaaaaaaaaaaaaaaaaaaaaaaaaaaaaaaaaaaaa#######################",
"...........############aaaaaaaaaaaaaaaaaaaaaaaaaaaaaaaaaaaaaaaaaaaaaaaaaaaaaaaaaaaaaaaaaaaaaaaaaaaaaaaaaa#######################",
"...........############aaaaaaaaaaaaaaaaaaaaaaaaaaaaaaaaaaaaaaaaaaaaaaaaaaaaaaaaaaaaaaaaaaaaaaaaaaaaaaaaaa#######################",
"...........############aaaaaaaaaaaaaaaaaaaaaaaaaaaaaaaaaaaaaaaaaaaaaaaaaaaaaaaaaaaaaaaaaaaaaaaaaaaaaaaaaa#######################",
"...........############aaaaaaaaaaaaaaaaaaaaaaaaaaaaaaaaaaaaaaaaaaaaaaaaaaaaaaaaaaaaaaaaaaaaaaaaaaaaaaaaaa#######################",
"...........############aaaaaaaaaaaaaaaaaaaaaaaaaaaaaaaaaaaaaaaaaaaaaaaaaaaaaaaaaaaaaaaaaaaaaaaaaaaaaaaaaa#######################",
"...........############aaaaaaaaaaaaaaaaaaaaaaaaaaaaaaaaaaaaaaaaaaaaaaaaaaaaaaaaaaaaaaaaaaaaaaaaaaaaaaaaaa#######################",
"...........############aaaaaaaaaaaaaaaaaaaaaaaaaaaaaaaaaaaaaaaaaaaaaaaaaaaaaaaaaaaaaaaaaaaaaaaaaaaaaaaaaa#######################",
"...........############aaaaaaaaaaaaaaaaaaaaaaa############aaaaaaaaaaaa###########aaaaaaaaaaaaaaaaaaaaaaaa#######################",
"...........############aaaaaaaaaaaaaaaaaaaaaaa############aaaaaaaaaaaa###########aaaaaaaaaaaaaaaaaaaaaaaa#######################",
"...........############aaaaaaaaaaaaaaaaaaaaaaa############aaaaaaaaaaaa###########aaaaaaaaaaaaaaaaaaaaaaaa#######################",
"...........############aaaaaaaaaaaaaaaaaaaaaaa############aaaaaaaaaaaa###########aaaaaaaaaaaaaaaaaaaaaaaa#######################",
"...........############aaaaaaaaaaaaaaaaaaaaaaa############aaaaaaaaaaaa###########aaaaaaaaaaaaaaaaaaaaaaaa#######################",
"...........############aaaaaaaaaaaaaaaaaaaaaaa############aaaaaaaaaaaa###########aaaaaaaaaaaaaaaaaaaaaaaa#######################",
"...........############aaaaaaaaaaaaaaaaaaaaaaa############aaaaaaaaaaaa###########aaaaaaaaaaaaaaaaaaaaaaaa#######################",
"...........############aaaaaaaaaaaaaaaaaaaaaaa############aaaaaaaaaaaa###########aaaaaaaaaaaaaaaaaaaaaaaa#######################",
"...........############aaaaaaaaaaaaaaaaaaaaaaa############aaaaaaaaaaaa###########aaaaaaaaaaaaaaaaaaaaaaaa#######################",
"...........############aaaaaaaaaaaaaaaaaaaaaaa############aaaaaaaaaaaa###########aaaaaaaaaaaaaaaaaaaaaaaa#######################",
"...........############aaaaaaaaaaaaaaaaaaaaaaa############aaaaaaaaaaaa###########aaaaaaaaaaaaaaaaaaaaaaaa#######################",
"...........############aaaaaaaaaaaaaaaaaaaaaaa############aaaaaaaaaaaa###########aaaaaaaaaaaaaaaaaaaaaaaa#######################",
"...........############aaaaaaaaaaaaaaaaaaaaaaa###################################aaaaaaaaaaaaaaaaaaaaaaaa#######################",
"...........############aaaaaaaaaaaaaaaaaaaaaaa###################################aaaaaaaaaaaaaaaaaaaaaaaa#######################",
"...........############aaaaaaaaaaaaaaaaaaaaaaa###################################aaaaaaaaaaaaaaaaaaaaaaaa#######################",
"...........############aaaaaaaaaaaaaaaaaaaaaaa###################################aaaaaaaaaaaaaaaaaaaaaaaa#######################",
"...........############aaaaaaaaaaaaaaaaaaaaaaa###################################aaaaaaaaaaaaaaaaaaaaaaaa#######################",
"...........############aaaaaaaaaaaaaaaaaaaaaaa###################################aaaaaaaaaaaaaaaaaaaaaaaa#######################",
"...........############aaaaaaaaaaaaaaaaaaaaaaa###################################aaaaaaaaaaaaaaaaaaaaaaaa#######################",
"...........############aaaaaaaaaaaaaaaaaaaaaaa###################################aaaaaaaaaaaaaaaaaaaaaaaa#######################",
"...........############aaaaaaaaaaaaaaaaaaaaaaa###################################aaaaaaaaaaaaaaaaaaaaaaaa#######################",
"...........############aaaaaaaaaaaaaaaaaaaaaaa###################################aaaaaaaaaaaaaaaaaaaaaaaa#######################",
"...........############aaaaaaaaaaaaaaaaaaaaaaa###################################aaaaaaaaaaaaaaaaaaaaaaaa#######################",
"...........############aaaaaaaaaaaaaaaaaaaaaaa###################################aaaaaaaaaaaaaaaaaaaaaaaa#######################",
"...........############aaaaaaaaaaaaaaaaaaaaaaa###################################aaaaaaaaaaaaaaaaaaaaaaaa#######################",
"...........############aaaaaaaaaaaaaaaaaaaaaaa###################################aaaaaaaaaaaaaaaaaaaaaaaa#######################",
"...........############aaaaaaaaaaaaaaaaaaaaaaa###################################aaaaaaaaaaaaaaaaaaaaaaaa#######################",
"...........############aaaaaaaaaaaaaaaaaaaaaaa###################################aaaaaaaaaaaaaaaaaaaaaaaa#######################",
"...........############aaaaaaaaaaaaaaaaaaaaaaa###################################aaaaaaaaaaaaaaaaaaaaaaaa#######################",
"...........############aaaaaaaaaaaaaaaaaaaaaaa###################################aaaaaaaaaaaaaaaaaaaaaaaa#######################",
"...........############aaaaaaaaaaaaaaaaaaaaaaa###################################aaaaaaaaaaaaaaaaaaaaaaaa#######################",
"...........############aaaaaaaaaaaaaaaaaaaaaaa###################################aaaaaaaaaaaaaaaaaaaaaaaa#######################",
"...........############aaaaaaaaaaaaaaaaaaaaaaa###################################aaaaaaaaaaaaaaaaaaaaaaaa#######################",
"...........############aaaaaaaaaaaaaaaaaaaaaaa###################################aaaaaaaaaaaaaaaaaaaaaaaa#######################",
"...........############aaaaaaaaaaaaaaaaaaaaaaa###################################aaaaaaaaaaaaaaaaaaaaaaaa#######################",
"...........############aaaaaaaaaaaaaaaaaaaaaaa###################################aaaaaaaaaaaaaaaaaaaaaaaa#######################",
"...........############aaaaaaaaaaaaaaaaaaaaaaa###################################aaaaaaaaaaaaaaaaaaaaaaaa#######################",
"...........############aaaaaaaaaaaaaaaaaaaaaaa###################################aaaaaaaaaaaaaaaaaaaaaaaa#######################",
"...........############aaaaaaaaaaaaaaaaaaaaaaa###################################aaaaaaaaaaaaaaaaaaaaaaaa#######################",
"...........############aaaaaaaaaaaaaaaaaaaaaaa###################################aaaaaaaaaaaaaaaaaaaaaaaa#######################",
"...........############aaaaaaaaaaaaaaaaaaaaaaa###################################aaaaaaaaaaaaaaaaaaaaaaaa#######################",
"...........############aaaaaaaaaaaaaaaaaaaaaaa###################################aaaaaaaaaaaaaaaaaaaaaaaa#######################",
"...........############aaaaaaaaaaaaaaaaaaaaaaa###################################aaaaaaaaaaaaaaaaaaaaaaaa#######################",
"...........############aaaaaaaaaaaaaaaaaaaaaaa###################################aaaaaaaaaaaaaaaaaaaaaaaa#######################",
"...........############aaaaaaaaaaaaaaaaaaaaaaa###################################aaaaaaaaaaaaaaaaaaaaaaaa#######################",
"...........############aaaaaaaaaaaaaaaaaaaaaaa###################################aaaaaaaaaaaaaaaaaaaaaaaa#######################",
"...........############aaaaaaaaaaaaaaaaaaaaaaa###################################aaaaaaaaaaaaaaaaaaaaaaaa#######################",
"...........#####################################################################################################################",
"...........#####################################################################################################################",
"...........#####################################################################################################################",
"...........#####################################################################################################################",
"...........#####################################################################################################################",
"...........#####################################################################################################################",
"...........#####################################################################################################################",
"...........#####################################################################################################################",
"...........#####################################################################################################################",
"...........#####################################################################################################################",
"...........#####################################################################################################################",
"...........#####################################################################################################################",
".......................###############################################...........###############################################",
".......................###############################################...........###############################################",
".......................###############################################...........###############################################",
".......................###############################################...........###############################################",
".......................###############################################...........###############################################",
".......................###############################################...........###############################################",
".......................###############################################...........###############################################",
".......................###############################################...........###############################################",
".......................###############################################...........###############################################",
".......................###############################################...........###############################################",
".......................###############################################...........###############################################",
"................................................................................................................................",
"................................................................................................................................",
"................................................................................................................................",
"................................................................................................................................",
"................................................................................................................................",
"................................................................................................................................",
"................................................................................................................................"};
