/* XPM */
static xpm_row_t const letterJ_xpm[] = {
"128 128 3 1",
". c None",
"# c #000000",
"a c #ffffff",
"................................................................................................................................",
"................................................................................................................................",
"................................................................................................................................",
"................................................................................................................................",
"...................................................................##############################################...............",
"...................................................................###############################################..............",
"...................................................................###############################################..............",
"...................................................................###############################################..............",
"...................................................................###############################################..............",
"...................................................................###############################################..............",
"...................................................................###############################################..............",
"...................................................................###############################################..............",
"...................................................................###############################################..............",
"...................................................................###############################################..............",
"...................................................................###############################################..............",
"...................................................................###############################################..............",
"...................................................................###########aaaaaaaaaaaaaaaaaaaaaaaa#######################...",
"...................................................................###########aaaaaaaaaaaaaaaaaaaaaaaa#######################...",
"...................................................................###########aaaaaaaaaaaaaaaaaaaaaaaa#######################...",
"...................................................................###########aaaaaaaaaaaaaaaaaaaaaaaa#######################...",
"...................................................................###########aaaaaaaaaaaaaaaaaaaaaaaa#######################...",
"...................................................................###########aaaaaaaaaaaaaaaaaaaaaaaa#######################...",
"...................................................................###########aaaaaaaaaaaaaaaaaaaaaaaa#######################...",
"...................................................................###########aaaaaaaaaaaaaaaaaaaaaaaa#######################...",
"...................................................................###########aaaaaaaaaaaaaaaaaaaaaaaa#######################...",
"...................................................................###########aaaaaaaaaaaaaaaaaaaaaaaa#######################...",
"...................................................................###########aaaaaaaaaaaaaaaaaaaaaaaa#######################...",
"...................................................................###########aaaaaaaaaaaaaaaaaaaaaaaa#######################...",
"...................................................................###########aaaaaaaaaaaaaaaaaaaaaaaa#######################...",
"...................................................................###########aaaaaaaaaaaaaaaaaaaaaaaa#######################...",
"...................................................................###########aaaaaaaaaaaaaaaaaaaaaaaa#######################...",
"...................................................................###########aaaaaaaaaaaaaaaaaaaaaaaa#######################...",
"...................................................................###########aaaaaaaaaaaaaaaaaaaaaaaa#######################...",
"...................................................................###########aaaaaaaaaaaaaaaaaaaaaaaa#######################...",
"...................................................................###########aaaaaaaaaaaaaaaaaaaaaaaa#######################...",
"...................................................................###########aaaaaaaaaaaaaaaaaaaaaaaa#######################...",
"...................................................................###########aaaaaaaaaaaaaaaaaaaaaaaa#######################...",
"...................................................................###########aaaaaaaaaaaaaaaaaaaaaaaa#######################...",
"...................................................................###########aaaaaaaaaaaaaaaaaaaaaaaa#######################...",
"...................................................................###########aaaaaaaaaaaaaaaaaaaaaaaa#######################...",
"...................................................................###########aaaaaaaaaaaaaaaaaaaaaaaa#######################...",
"...................................................................###########aaaaaaaaaaaaaaaaaaaaaaaa#######################...",
"...................................................................###########aaaaaaaaaaaaaaaaaaaaaaaa#######################...",
"...................................................................###########aaaaaaaaaaaaaaaaaaaaaaaa#######################...",
"...................................................................###########aaaaaaaaaaaaaaaaaaaaaaaa#######################...",
"...................................................................###########aaaaaaaaaaaaaaaaaaaaaaaa#######################...",
"...................................................................###########aaaaaaaaaaaaaaaaaaaaaaaa#######################...",
"...................................................................###########aaaaaaaaaaaaaaaaaaaaaaaa#######################...",
"...................................................................###########aaaaaaaaaaaaaaaaaaaaaaaa#######################...",
"...................................................................###########aaaaaaaaaaaaaaaaaaaaaaaa#######################...",
"...................................................................###########aaaaaaaaaaaaaaaaaaaaaaaa#######################...",
"........######################################################################aaaaaaaaaaaaaaaaaaaaaaaa#######################...",
"........######################################################################aaaaaaaaaaaaaaaaaaaaaaaa#######################...",
"........######################################################################aaaaaaaaaaaaaaaaaaaaaaaa#######################...",
"........######################################################################aaaaaaaaaaaaaaaaaaaaaaaa#######################...",
"........######################################################################aaaaaaaaaaaaaaaaaaaaaaaa#######################...",
"........######################################################################aaaaaaaaaaaaaaaaaaaaaaaa#######################...",
"........######################################################################aaaaaaaaaaaaaaaaaaaaaaaa#######################...",
"........######################################################################aaaaaaaaaaaaaaaaaaaaaaaa#######################...",
"........######################################################################aaaaaaaaaaaaaaaaaaaaaaaa#######################...",
"........######################################################################aaaaaaaaaaaaaaaaaaaaaaaa#######################...",
"........######################################################################aaaaaaaaaaaaaaaaaaaaaaaa#######################...",
"........######################################################################aaaaaaaaaaaaaaaaaaaaaaaa#######################...",
"........############aaaaaaaaaaaaaaaaaaaaaaa###################################aaaaaaaaaaaaaaaaaaaaaaaa#######################...",
"........############aaaaaaaaaaaaaaaaaaaaaaa###################################aaaaaaaaaaaaaaaaaaaaaaaa#######################...",
"........############aaaaaaaaaaaaaaaaaaaaaaa###################################aaaaaaaaaaaaaaaaaaaaaaaa#######################...",
"........############aaaaaaaaaaaaaaaaaaaaaaa###################################aaaaaaaaaaaaaaaaaaaaaaaa#######################...",
"........############aaaaaaaaaaaaaaaaaaaaaaa###################################aaaaaaaaaaaaaaaaaaaaaaaa#######################...",
"........############aaaaaaaaaaaaaaaaaaaaaaa###################################aaaaaaaaaaaaaaaaaaaaaaaa#######################...",
"........############aaaaaaaaaaaaaaaaaaaaaaa###################################aaaaaaaaaaaaaaaaaaaaaaaa#######################...",
"........############aaaaaaaaaaaaaaaaaaaaaaa###################################aaaaaaaaaaaaaaaaaaaaaaaa#######################...",
"........############aaaaaaaaaaaaaaaaaaaaaaa###################################aaaaaaaaaaaaaaaaaaaaaaaa#######################...",
"........############aaaaaaaaaaaaaaaaaaaaaaa###################################aaaaaaaaaaaaaaaaaaaaaaaa#######################...",
"........############aaaaaaaaaaaaaaaaaaaaaaa###################################aaaaaaaaaaaaaaaaaaaaaaaa#######################...",
"........############aaaaaaaaaaaaaaaaaaaaaaa###################################aaaaaaaaaaaaaaaaaaaaaaaa#######################...",
"........############aaaaaaaaaaaaaaaaaaaaaaa###################################aaaaaaaaaaaaaaaaaaaaaaaa#######################...",
"........############aaaaaaaaaaaaaaaaaaaaaaa###################################aaaaaaaaaaaaaaaaaaaaaaaa#######################...",
"........############aaaaaaaaaaaaaaaaaaaaaaa###################################aaaaaaaaaaaaaaaaaaaaaaaa#######################...",
"........############aaaaaaaaaaaaaaaaaaaaaaa###################################aaaaaaaaaaaaaaaaaaaaaaaa#######################...",
"........############aaaaaaaaaaaaaaaaaaaaaaa###################################aaaaaaaaaaaaaaaaaaaaaaaa#######################...",
"........############aaaaaaaaaaaaaaaaaaaaaaa###################################aaaaaaaaaaaaaaaaaaaaaaaa#######################...",
"........############aaaaaaaaaaaaaaaaaaaaaaa###################################aaaaaaaaaaaaaaaaaaaaaaaa#######################...",
"........############aaaaaaaaaaaaaaaaaaaaaaa###################################aaaaaaaaaaaaaaaaaaaaaaaa#######################...",
"........############aaaaaaaaaaaaaaaaaaaaaaa###################################aaaaaaaaaaaaaaaaaaaaaaaa#######################...",
"........############aaaaaaaaaaaaaaaaaaaaaaa###################################aaaaaaaaaaaaaaaaaaaaaaaa#######################...",
"........############aaaaaaaaaaaaaaaaaaaaaaa###################################aaaaaaaaaaaaaaaaaaaaaaaa#######################...",
"........#######################aaaaaaaaaaaaaaaaaaaaaaaaaaaaaaaaaaaaaaaaaaaaaaaaaaaaaaaaaaa###################################...",
"........########################aaaaaaaaaaaaaaaaaaaaaaaaaaaaaaaaaaaaaaaaaaaaaaaaaaaaaaaaaa###################################...",
"........########################aaaaaaaaaaaaaaaaaaaaaaaaaaaaaaaaaaaaaaaaaaaaaaaaaaaaaaaaaa###################################...",
"........########################aaaaaaaaaaaaaaaaaaaaaaaaaaaaaaaaaaaaaaaaaaaaaaaaaaaaaaaaaa###################################...",
"........########################aaaaaaaaaaaaaaaaaaaaaaaaaaaaaaaaaaaaaaaaaaaaaaaaaaaaaaaaaa###################################...",
"........########################aaaaaaaaaaaaaaaaaaaaaaaaaaaaaaaaaaaaaaaaaaaaaaaaaaaaaaaaaa###################################...",
"........########################aaaaaaaaaaaaaaaaaaaaaaaaaaaaaaaaaaaaaaaaaaaaaaaaaaaaaaaaaa###################################...",
"........########################aaaaaaaaaaaaaaaaaaaaaaaaaaaaaaaaaaaaaaaaaaaaaaaaaaaaaaaaaa###################################...",
"........########################aaaaaaaaaaaaaaaaaaaaaaaaaaaaaaaaaaaaaaaaaaaaaaaaaaaaaaaaaa###################################...",
"........########################aaaaaaaaaaaaaaaaaaaaaaaaaaaaaaaaaaaaaaaaaaaaaaaaaaaaaaaaaa###################################...",
"........########################aaaaaaaaaaaaaaaaaaaaaaaaaaaaaaaaaaaaaaaaaaaaaaaaaaaaaaaaaa###################################...",
"........########################aaaaaaaaaaaaaaaaaaaaaaaaaaaaaaaaaaaaaaaaaaaaaaaaaaaaaaaaaa###################################...",
"....................#########################################################################################################...",
"....................#########################################################################################################...",
"....................#########################################################################################################...",
"....................#########################################################################################################...",
"....................#########################################################################################################...",
"....................#########################################################################################################...",
"....................#########################################################################################################...",
"....................#########################################################################################################...",
"....................#########################################################################################################...",
"....................#########################################################################################################...",
"....................#########################################################################################################...",
"....................#########################################################################################################...",
"................................##################################################################################..............",
"................................##################################################################################..............",
"................................##################################################################################..............",
"................................##################################################################################..............",
"................................##################################################################################..............",
"................................##################################################################################..............",
"................................##################################################################################..............",
"................................##################################################################################..............",
"................................##################################################################################..............",
"................................##################################################################################..............",
"................................##################################################################################..............",
"................................................................................................................................",
"................................................................................................................................",
"................................................................................................................................",
"................................................................................................................................",
"................................................................................................................................",
"................................................................................................................................",
"................................................................................................................................"};
