/* XPM */
static xpm_row_t const letterK_xpm[] = {
"128 128 3 1",
". c None",
"# c #000000",
"a c #ffffff",
"................................................................................................................................",
"................................................................................................................................",
"................................................................................................................................",
"................................................................................................................................",
".......###############################################............##############################################................",
".......###############################################............###############################################...............",
".......###############################################............###############################################...............",
".......###############################################............###############################################...............",
".......###############################################............###############################################...............",
".......###############################################............###############################################...............",
".......###############################################............###############################################...............",
".......###############################################............###############################################...............",
".......###############################################............###############################################...............",
".......###############################################............###############################################...............",
".......###############################################............###############################################...............",
".......###############################################............###############################################...............",
".......############aaaaaaaaaaaaaaaaaaaaaaa###################################aaaaaaaaaaaaaaaaaaaaaaaa#######################....",
".......############aaaaaaaaaaaaaaaaaaaaaaa###################################aaaaaaaaaaaaaaaaaaaaaaaa#######################....",
".......############aaaaaaaaaaaaaaaaaaaaaaa###################################aaaaaaaaaaaaaaaaaaaaaaaa#######################....",
".......############aaaaaaaaaaaaaaaaaaaaaaa###################################aaaaaaaaaaaaaaaaaaaaaaaa#######################....",
".......############aaaaaaaaaaaaaaaaaaaaaaa###################################aaaaaaaaaaaaaaaaaaaaaaaa#######################....",
".......############aaaaaaaaaaaaaaaaaaaaaaa###################################aaaaaaaaaaaaaaaaaaaaaaaa#######################....",
".......############aaaaaaaaaaaaaaaaaaaaaaa###################################aaaaaaaaaaaaaaaaaaaaaaaa#######################....",
".......############aaaaaaaaaaaaaaaaaaaaaaa###################################aaaaaaaaaaaaaaaaaaaaaaaa#######################....",
".......############aaaaaaaaaaaaaaaaaaaaaaa###################################aaaaaaaaaaaaaaaaaaaaaaaa#######################....",
".......############aaaaaaaaaaaaaaaaaaaaaaa###################################aaaaaaaaaaaaaaaaaaaaaaaa#######################....",
".......############aaaaaaaaaaaaaaaaaaaaaaa###################################aaaaaaaaaaaaaaaaaaaaaaaa#######################....",
".......############aaaaaaaaaaaaaaaaaaaaaaa###################################aaaaaaaaaaaaaaaaaaaaaaaa#######################....",
".......############aaaaaaaaaaaaaaaaaaaaaaa########################aaaaaaaaaaaaaaaaaaaaaaa###################################....",
".......############aaaaaaaaaaaaaaaaaaaaaaa########################aaaaaaaaaaaaaaaaaaaaaaa###################################....",
".......############aaaaaaaaaaaaaaaaaaaaaaa########################aaaaaaaaaaaaaaaaaaaaaaa###################################....",
".......############aaaaaaaaaaaaaaaaaaaaaaa########################aaaaaaaaaaaaaaaaaaaaaaa###################################....",
".......############aaaaaaaaaaaaaaaaaaaaaaa########################aaaaaaaaaaaaaaaaaaaaaaa###################################....",
".......############aaaaaaaaaaaaaaaaaaaaaaa########################aaaaaaaaaaaaaaaaaaaaaaa###################################....",
".......############aaaaaaaaaaaaaaaaaaaaaaa########################aaaaaaaaaaaaaaaaaaaaaaa###################################....",
".......############aaaaaaaaaaaaaaaaaaaaaaa########################aaaaaaaaaaaaaaaaaaaaaaa###################################....",
".......############aaaaaaaaaaaaaaaaaaaaaaa########################aaaaaaaaaaaaaaaaaaaaaaa###################################....",
".......############aaaaaaaaaaaaaaaaaaaaaaa########################aaaaaaaaaaaaaaaaaaaaaaa###################################....",
".......############aaaaaaaaaaaaaaaaaaaaaaa########################aaaaaaaaaaaaaaaaaaaaaaa###################################....",
".......############aaaaaaaaaaaaaaaaaaaaaaa############aaaaaaaaaaaaaaaaaaaaaaaa##############################################....",
".......############aaaaaaaaaaaaaaaaaaaaaaa############aaaaaaaaaaaaaaaaaaaaaaa###############################################....",
".......############aaaaaaaaaaaaaaaaaaaaaaa############aaaaaaaaaaaaaaaaaaaaaaa###############################################....",
".......############aaaaaaaaaaaaaaaaaaaaaaa############aaaaaaaaaaaaaaaaaaaaaaa###############################################....",
".......############aaaaaaaaaaaaaaaaaaaaaaa############aaaaaaaaaaaaaaaaaaaaaaa###############################################....",
".......############aaaaaaaaaaaaaaaaaaaaaaa############aaaaaaaaaaaaaaaaaaaaaaa###############################################....",
".......############aaaaaaaaaaaaaaaaaaaaaaa############aaaaaaaaaaaaaaaaaaaaaaa###############################################....",
".......############aaaaaaaaaaaaaaaaaaaaaaa############aaaaaaaaaaaaaaaaaaaaaaa###############################################....",
".......############aaaaaaaaaaaaaaaaaaaaaaa############aaaaaaaaaaaaaaaaaaaaaaa###############################################....",
".......############aaaaaaaaaaaaaaaaaaaaaaa############aaaaaaaaaaaaaaaaaaaaaaa###############################################....",
".......############aaaaaaaaaaaaaaaaaaaaaaa############aaaaaaaaaaaaaaaaaaaaaaa###############################################....",
".......############aaaaaaaaaaaaaaaaaaaaaaa############aaaaaaaaaaaaaaaaaaaaaaa###############################################....",
".......############aaaaaaaaaaaaaaaaaaaaaaaaaaaaaaaaaaaaaaaaaaaaaaa###############################################...............",
".......############aaaaaaaaaaaaaaaaaaaaaaaaaaaaaaaaaaaaaaaaaaaaaaa###############################################...............",
".......############aaaaaaaaaaaaaaaaaaaaaaaaaaaaaaaaaaaaaaaaaaaaaaa###############################################...............",
".......############aaaaaaaaaaaaaaaaaaaaaaaaaaaaaaaaaaaaaaaaaaaaaaa###############################################...............",
".......############aaaaaaaaaaaaaaaaaaaaaaaaaaaaaaaaaaaaaaaaaaaaaaa###############################################...............",
".......############aaaaaaaaaaaaaaaaaaaaaaaaaaaaaaaaaaaaaaaaaaaaaaa###############################################...............",
".......############aaaaaaaaaaaaaaaaaaaaaaaaaaaaaaaaaaaaaaaaaaaaaaa###############################################...............",
".......############aaaaaaaaaaaaaaaaaaaaaaaaaaaaaaaaaaaaaaaaaaaaaaa###############################################...............",
".......############aaaaaaaaaaaaaaaaaaaaaaaaaaaaaaaaaaaaaaaaaaaaaaa###############################################...............",
".......############aaaaaaaaaaaaaaaaaaaaaaaaaaaaaaaaaaaaaaaaaaaaaaa###############################################...............",
".......############aaaaaaaaaaaaaaaaaaaaaaaaaaaaaaaaaaaaaaaaaaaaaaa###############################################...............",
".......############aaaaaaaaaaaaaaaaaaaaaaaaaaaaaaaaaaaaaaaaaaaaaaa###############################################...............",
".......############aaaaaaaaaaaaaaaaaaaaaaa############aaaaaaaaaaaaaaaaaaaaaaa########################...........................",
".......############aaaaaaaaaaaaaaaaaaaaaaa############aaaaaaaaaaaaaaaaaaaaaaa########################...........................",
".......############aaaaaaaaaaaaaaaaaaaaaaa############aaaaaaaaaaaaaaaaaaaaaaa########################...........................",
".......############aaaaaaaaaaaaaaaaaaaaaaa############aaaaaaaaaaaaaaaaaaaaaaa########################...........................",
".......############aaaaaaaaaaaaaaaaaaaaaaa############aaaaaaaaaaaaaaaaaaaaaaa########################...........................",
".......############aaaaaaaaaaaaaaaaaaaaaaa############aaaaaaaaaaaaaaaaaaaaaaa########################...........................",
".......############aaaaaaaaaaaaaaaaaaaaaaa############aaaaaaaaaaaaaaaaaaaaaaa########################...........................",
".......############aaaaaaaaaaaaaaaaaaaaaaa############aaaaaaaaaaaaaaaaaaaaaaa########################...........................",
".......############aaaaaaaaaaaaaaaaaaaaaaa############aaaaaaaaaaaaaaaaaaaaaaa########################...........................",
".......############aaaaaaaaaaaaaaaaaaaaaaa############aaaaaaaaaaaaaaaaaaaaaaa########################...........................",
".......############aaaaaaaaaaaaaaaaaaaaaaa############aaaaaaaaaaaaaaaaaaaaaaa########################...........................",
".......############aaaaaaaaaaaaaaaaaaaaaaa############aaaaaaaaaaaaaaaaaaaaaaaa#######################...........................",
".......############aaaaaaaaaaaaaaaaaaaaaaa########################aaaaaaaaaaaaaaaaaaaaaaa########################...............",
".......############aaaaaaaaaaaaaaaaaaaaaaa########################aaaaaaaaaaaaaaaaaaaaaaa########################...............",
".......############aaaaaaaaaaaaaaaaaaaaaaa########################aaaaaaaaaaaaaaaaaaaaaaa########################...............",
".......############aaaaaaaaaaaaaaaaaaaaaaa########################aaaaaaaaaaaaaaaaaaaaaaa########################...............",
".......############aaaaaaaaaaaaaaaaaaaaaaa########################aaaaaaaaaaaaaaaaaaaaaaa########################...............",
".......############aaaaaaaaaaaaaaaaaaaaaaa########################aaaaaaaaaaaaaaaaaaaaaaa########################...............",
".......############aaaaaaaaaaaaaaaaaaaaaaa########################aaaaaaaaaaaaaaaaaaaaaaa########################...............",
".......############aaaaaaaaaaaaaaaaaaaaaaa########################aaaaaaaaaaaaaaaaaaaaaaa########################...............",
".......############aaaaaaaaaaaaaaaaaaaaaaa########################aaaaaaaaaaaaaaaaaaaaaaa########################...............",
".......############aaaaaaaaaaaaaaaaaaaaaaa########################aaaaaaaaaaaaaaaaaaaaaaa########################...............",
".......############aaaaaaaaaaaaaaaaaaaaaaa########################aaaaaaaaaaaaaaaaaaaaaaa########################...............",
".......############aaaaaaaaaaaaaaaaaaaaaaa###################################aaaaaaaaaaaaaaaaaaaaaaaa#######################....",
".......############aaaaaaaaaaaaaaaaaaaaaaa###################################aaaaaaaaaaaaaaaaaaaaaaaa#######################....",
".......############aaaaaaaaaaaaaaaaaaaaaaa###################################aaaaaaaaaaaaaaaaaaaaaaaa#######################....",
".......############aaaaaaaaaaaaaaaaaaaaaaa###################################aaaaaaaaaaaaaaaaaaaaaaaa#######################....",
".......############aaaaaaaaaaaaaaaaaaaaaaa###################################aaaaaaaaaaaaaaaaaaaaaaaa#######################....",
".......############aaaaaaaaaaaaaaaaaaaaaaa###################################aaaaaaaaaaaaaaaaaaaaaaaa#######################....",
".......############aaaaaaaaaaaaaaaaaaaaaaa###################################aaaaaaaaaaaaaaaaaaaaaaaa#######################....",
".......############aaaaaaaaaaaaaaaaaaaaaaa###################################aaaaaaaaaaaaaaaaaaaaaaaa#######################....",
".......############aaaaaaaaaaaaaaaaaaaaaaa###################################aaaaaaaaaaaaaaaaaaaaaaaa#######################....",
".......############aaaaaaaaaaaaaaaaaaaaaaa###################################aaaaaaaaaaaaaaaaaaaaaaaa#######################....",
".......############aaaaaaaaaaaaaaaaaaaaaaa###################################aaaaaaaaaaaaaaaaaaaaaaaa#######################....",
".......############aaaaaaaaaaaaaaaaaaaaaaa###################################aaaaaaaaaaaaaaaaaaaaaaaa#######################....",
".......#####################################################################################################################....",
".......#####################################################################################################################....",
".......#####################################################################################################################....",
".......#####################################################################################################################....",
".......#####################################################################################################################....",
".......#####################################################################################################################....",
".......#####################################################################################################################....",
".......#####################################################################################################################....",
".......#####################################################################################################################....",
".......#####################################################################################################################....",
".......#####################################################################################################################....",
".......#####################################################################################################################....",
"...................###############################################...........###############################################....",
"...................###############################################...........###############################################....",
"...................###############################################...........###############################################....",
"...................###############################################...........###############################################....",
"...................###############################################...........###############################################....",
"...................###############################################...........###############################################....",
"...................###############################################...........###############################################....",
"...................###############################################...........###############################################....",
"...................###############################################...........###############################################....",
"...................###############################################...........###############################################....",
"...................###############################################...........###############################################....",
"................................................................................................................................",
"................................................................................................................................",
"................................................................................................................................",
"................................................................................................................................",
"................................................................................................................................",
"................................................................................................................................",
"................................................................................................................................"};
