/* XPM */
static xpm_row_t const letterN_xpm[] = {
"128 128 3 1",
". c None",
"# c #000000",
"a c #ffffff",
"................................................................................................................................",
"................................................................................................................................",
"................................................................................................................................",
"..........###############################################............##############################################.............",
"..........###############################################............###############################################............",
"..........###############################################............###############################################............",
"..........###############################################............###############################################............",
"..........###############################################............###############################################............",
"..........###############################################............###############################################............",
"..........###############################################............###############################################............",
"..........###############################################............###############################################............",
"..........###############################################............###############################################............",
"..........###############################################............###############################################............",
"..........###############################################............###############################################............",
"..........###############################################............###############################################............",
"..........############aaaaaaaaaaaaaaaaaaaaaaa###################################aaaaaaaaaaaaaaaaaaaaaaaa#######################.",
"..........############aaaaaaaaaaaaaaaaaaaaaaa###################################aaaaaaaaaaaaaaaaaaaaaaaa#######################.",
"..........############aaaaaaaaaaaaaaaaaaaaaaa###################################aaaaaaaaaaaaaaaaaaaaaaaa#######################.",
"..........############aaaaaaaaaaaaaaaaaaaaaaa###################################aaaaaaaaaaaaaaaaaaaaaaaa#######################.",
"..........############aaaaaaaaaaaaaaaaaaaaaaa###################################aaaaaaaaaaaaaaaaaaaaaaaa#######################.",
"..........############aaaaaaaaaaaaaaaaaaaaaaa###################################aaaaaaaaaaaaaaaaaaaaaaaa#######################.",
"..........############aaaaaaaaaaaaaaaaaaaaaaa###################################aaaaaaaaaaaaaaaaaaaaaaaa#######################.",
"..........############aaaaaaaaaaaaaaaaaaaaaaa###################################aaaaaaaaaaaaaaaaaaaaaaaa#######################.",
"..........############aaaaaaaaaaaaaaaaaaaaaaa###################################aaaaaaaaaaaaaaaaaaaaaaaa#######################.",
"..........############aaaaaaaaaaaaaaaaaaaaaaa###################################aaaaaaaaaaaaaaaaaaaaaaaa#######################.",
"..........############aaaaaaaaaaaaaaaaaaaaaaa###################################aaaaaaaaaaaaaaaaaaaaaaaa#######################.",
"..........############aaaaaaaaaaaaaaaaaaaaaaaa##################################aaaaaaaaaaaaaaaaaaaaaaaa#######################.",
"..........############aaaaaaaaaaaaaaaaaaaaaaaaaaaaaaaaaaa#######################aaaaaaaaaaaaaaaaaaaaaaaa#######################.",
"..........############aaaaaaaaaaaaaaaaaaaaaaaaaaaaaaaaaaa#######################aaaaaaaaaaaaaaaaaaaaaaaa#######################.",
"..........############aaaaaaaaaaaaaaaaaaaaaaaaaaaaaaaaaaa#######################aaaaaaaaaaaaaaaaaaaaaaaa#######################.",
"..........############aaaaaaaaaaaaaaaaaaaaaaaaaaaaaaaaaaa#######################aaaaaaaaaaaaaaaaaaaaaaaa#######################.",
"..........############aaaaaaaaaaaaaaaaaaaaaaaaaaaaaaaaaaa#######################aaaaaaaaaaaaaaaaaaaaaaaa#######################.",
"..........############aaaaaaaaaaaaaaaaaaaaaaaaaaaaaaaaaaa#######################aaaaaaaaaaaaaaaaaaaaaaaa#######################.",
"..........############aaaaaaaaaaaaaaaaaaaaaaaaaaaaaaaaaaa#######################aaaaaaaaaaaaaaaaaaaaaaaa#######################.",
"..........############aaaaaaaaaaaaaaaaaaaaaaaaaaaaaaaaaaa#######################aaaaaaaaaaaaaaaaaaaaaaaa#######################.",
"..........############aaaaaaaaaaaaaaaaaaaaaaaaaaaaaaaaaaa#######################aaaaaaaaaaaaaaaaaaaaaaaa#######################.",
"..........############aaaaaaaaaaaaaaaaaaaaaaaaaaaaaaaaaaa#######################aaaaaaaaaaaaaaaaaaaaaaaa#######################.",
"..........############aaaaaaaaaaaaaaaaaaaaaaaaaaaaaaaaaaa#######################aaaaaaaaaaaaaaaaaaaaaaaa#######################.",
"..........############aaaaaaaaaaaaaaaaaaaaaaaaaaaaaaaaaaaaaaaaaaaaaa############aaaaaaaaaaaaaaaaaaaaaaaa#######################.",
"..........############aaaaaaaaaaaaaaaaaaaaaaaaaaaaaaaaaaaaaaaaaaaaaaa###########aaaaaaaaaaaaaaaaaaaaaaaa#######################.",
"..........############aaaaaaaaaaaaaaaaaaaaaaaaaaaaaaaaaaaaaaaaaaaaaaa###########aaaaaaaaaaaaaaaaaaaaaaaa#######################.",
"..........############aaaaaaaaaaaaaaaaaaaaaaaaaaaaaaaaaaaaaaaaaaaaaaa###########aaaaaaaaaaaaaaaaaaaaaaaa#######################.",
"..........############aaaaaaaaaaaaaaaaaaaaaaaaaaaaaaaaaaaaaaaaaaaaaaa###########aaaaaaaaaaaaaaaaaaaaaaaa#######################.",
"..........############aaaaaaaaaaaaaaaaaaaaaaaaaaaaaaaaaaaaaaaaaaaaaaa###########aaaaaaaaaaaaaaaaaaaaaaaa#######################.",
"..........############aaaaaaaaaaaaaaaaaaaaaaaaaaaaaaaaaaaaaaaaaaaaaaa###########aaaaaaaaaaaaaaaaaaaaaaaa#######################.",
"..........############aaaaaaaaaaaaaaaaaaaaaaaaaaaaaaaaaaaaaaaaaaaaaaa###########aaaaaaaaaaaaaaaaaaaaaaaa#######################.",
"..........############aaaaaaaaaaaaaaaaaaaaaaaaaaaaaaaaaaaaaaaaaaaaaaa###########aaaaaaaaaaaaaaaaaaaaaaaa#######################.",
"..........############aaaaaaaaaaaaaaaaaaaaaaaaaaaaaaaaaaaaaaaaaaaaaaa###########aaaaaaaaaaaaaaaaaaaaaaaa#######################.",
"..........############aaaaaaaaaaaaaaaaaaaaaaaaaaaaaaaaaaaaaaaaaaaaaaa###########aaaaaaaaaaaaaaaaaaaaaaaa#######################.",
"..........############aaaaaaaaaaaaaaaaaaaaaaaaaaaaaaaaaaaaaaaaaaaaaaa###########aaaaaaaaaaaaaaaaaaaaaaaa#######################.",
"..........############aaaaaaaaaaaaaaaaaaaaaaa############aaaaaaaaaaaaaaaaaaaaaaaaaaaaaaaaaaaaaaaaaaaaaaa#######################.",
"..........############aaaaaaaaaaaaaaaaaaaaaaa############aaaaaaaaaaaaaaaaaaaaaaaaaaaaaaaaaaaaaaaaaaaaaaa#######################.",
"..........############aaaaaaaaaaaaaaaaaaaaaaa############aaaaaaaaaaaaaaaaaaaaaaaaaaaaaaaaaaaaaaaaaaaaaaa#######################.",
"..........############aaaaaaaaaaaaaaaaaaaaaaa############aaaaaaaaaaaaaaaaaaaaaaaaaaaaaaaaaaaaaaaaaaaaaaa#######################.",
"..........############aaaaaaaaaaaaaaaaaaaaaaa############aaaaaaaaaaaaaaaaaaaaaaaaaaaaaaaaaaaaaaaaaaaaaaa#######################.",
"..........############aaaaaaaaaaaaaaaaaaaaaaa############aaaaaaaaaaaaaaaaaaaaaaaaaaaaaaaaaaaaaaaaaaaaaaa#######################.",
"..........############aaaaaaaaaaaaaaaaaaaaaaa############aaaaaaaaaaaaaaaaaaaaaaaaaaaaaaaaaaaaaaaaaaaaaaa#######################.",
"..........############aaaaaaaaaaaaaaaaaaaaaaa############aaaaaaaaaaaaaaaaaaaaaaaaaaaaaaaaaaaaaaaaaaaaaaa#######################.",
"..........############aaaaaaaaaaaaaaaaaaaaaaa############aaaaaaaaaaaaaaaaaaaaaaaaaaaaaaaaaaaaaaaaaaaaaaa#######################.",
"..........############aaaaaaaaaaaaaaaaaaaaaaa############aaaaaaaaaaaaaaaaaaaaaaaaaaaaaaaaaaaaaaaaaaaaaaa#######################.",
"..........############aaaaaaaaaaaaaaaaaaaaaaa############aaaaaaaaaaaaaaaaaaaaaaaaaaaaaaaaaaaaaaaaaaaaaaa#######################.",
"..........############aaaaaaaaaaaaaaaaaaaaaaa############aaaaaaaaaaaaaaaaaaaaaaaaaaaaaaaaaaaaaaaaaaaaaaa#######################.",
"..........############aaaaaaaaaaaaaaaaaaaaaaa########################aaaaaaaaaaaaaaaaaaaaaaaaaaaaaaaaaaa#######################.",
"..........############aaaaaaaaaaaaaaaaaaaaaaa########################aaaaaaaaaaaaaaaaaaaaaaaaaaaaaaaaaaa#######################.",
"..........############aaaaaaaaaaaaaaaaaaaaaaa########################aaaaaaaaaaaaaaaaaaaaaaaaaaaaaaaaaaa#######################.",
"..........############aaaaaaaaaaaaaaaaaaaaaaa########################aaaaaaaaaaaaaaaaaaaaaaaaaaaaaaaaaaa#######################.",
"..........############aaaaaaaaaaaaaaaaaaaaaaa########################aaaaaaaaaaaaaaaaaaaaaaaaaaaaaaaaaaa#######################.",
"..........############aaaaaaaaaaaaaaaaaaaaaaa########################aaaaaaaaaaaaaaaaaaaaaaaaaaaaaaaaaaa#######################.",
"..........############aaaaaaaaaaaaaaaaaaaaaaa########################aaaaaaaaaaaaaaaaaaaaaaaaaaaaaaaaaaa#######################.",
"..........############aaaaaaaaaaaaaaaaaaaaaaa########################aaaaaaaaaaaaaaaaaaaaaaaaaaaaaaaaaaa#######################.",
"..........############aaaaaaaaaaaaaaaaaaaaaaa########################aaaaaaaaaaaaaaaaaaaaaaaaaaaaaaaaaaa#######################.",
"..........############aaaaaaaaaaaaaaaaaaaaaaa########################aaaaaaaaaaaaaaaaaaaaaaaaaaaaaaaaaaa#######################.",
"..........############aaaaaaaaaaaaaaaaaaaaaaa########################aaaaaaaaaaaaaaaaaaaaaaaaaaaaaaaaaaa#######################.",
"..........############aaaaaaaaaaaaaaaaaaaaaaa########################aaaaaaaaaaaaaaaaaaaaaaaaaaaaaaaaaaa#######################.",
"..........############aaaaaaaaaaaaaaaaaaaaaaa###################################aaaaaaaaaaaaaaaaaaaaaaaa#######################.",
"..........############aaaaaaaaaaaaaaaaaaaaaaa###################################aaaaaaaaaaaaaaaaaaaaaaaa#######################.",
"..........############aaaaaaaaaaaaaaaaaaaaaaa###################################aaaaaaaaaaaaaaaaaaaaaaaa#######################.",
"..........############aaaaaaaaaaaaaaaaaaaaaaa###################################aaaaaaaaaaaaaaaaaaaaaaaa#######################.",
"..........############aaaaaaaaaaaaaaaaaaaaaaa###################################aaaaaaaaaaaaaaaaaaaaaaaa#######################.",
"..........############aaaaaaaaaaaaaaaaaaaaaaa###################################aaaaaaaaaaaaaaaaaaaaaaaa#######################.",
"..........############aaaaaaaaaaaaaaaaaaaaaaa###################################aaaaaaaaaaaaaaaaaaaaaaaa#######################.",
"..........############aaaaaaaaaaaaaaaaaaaaaaa###################################aaaaaaaaaaaaaaaaaaaaaaaa#######################.",
"..........############aaaaaaaaaaaaaaaaaaaaaaa###################################aaaaaaaaaaaaaaaaaaaaaaaa#######################.",
"..........############aaaaaaaaaaaaaaaaaaaaaaa###################################aaaaaaaaaaaaaaaaaaaaaaaa#######################.",
"..........############aaaaaaaaaaaaaaaaaaaaaaa###################################aaaaaaaaaaaaaaaaaaaaaaaa#######################.",
"..........############aaaaaaaaaaaaaaaaaaaaaaa###################################aaaaaaaaaaaaaaaaaaaaaaaa#######################.",
"..........############aaaaaaaaaaaaaaaaaaaaaaa###################################aaaaaaaaaaaaaaaaaaaaaaaa#######################.",
"..........############aaaaaaaaaaaaaaaaaaaaaaa###################################aaaaaaaaaaaaaaaaaaaaaaaa#######################.",
"..........############aaaaaaaaaaaaaaaaaaaaaaa###################################aaaaaaaaaaaaaaaaaaaaaaaa#######################.",
"..........############aaaaaaaaaaaaaaaaaaaaaaa###################################aaaaaaaaaaaaaaaaaaaaaaaa#######################.",
"..........############aaaaaaaaaaaaaaaaaaaaaaa###################################aaaaaaaaaaaaaaaaaaaaaaaa#######################.",
"..........############aaaaaaaaaaaaaaaaaaaaaaa###################################aaaaaaaaaaaaaaaaaaaaaaaa#######################.",
"..........############aaaaaaaaaaaaaaaaaaaaaaa###################################aaaaaaaaaaaaaaaaaaaaaaaa#######################.",
"..........############aaaaaaaaaaaaaaaaaaaaaaa###################################aaaaaaaaaaaaaaaaaaaaaaaa#######################.",
"..........############aaaaaaaaaaaaaaaaaaaaaaa###################################aaaaaaaaaaaaaaaaaaaaaaaa#######################.",
"..........############aaaaaaaaaaaaaaaaaaaaaaa###################################aaaaaaaaaaaaaaaaaaaaaaaa#######################.",
"..........############aaaaaaaaaaaaaaaaaaaaaaa###################################aaaaaaaaaaaaaaaaaaaaaaaa#######################.",
"..........#####################################################################################################################.",
"..........#####################################################################################################################.",
"..........#####################################################################################################################.",
"..........#####################################################################################################################.",
"..........#####################################################################################################################.",
"..........#####################################################################################################################.",
"..........#####################################################################################################################.",
"..........#####################################################################################################################.",
"..........#####################################################################################################################.",
"..........#####################################################################################################################.",
"..........#####################################################################################################################.",
"..........#####################################################################################################################.",
"......................###############################################...........###############################################.",
"......................###############################################...........###############################################.",
"......................###############################################...........###############################################.",
"......................###############################################...........###############################################.",
"......................###############################################...........###############################################.",
"......................###############################################...........###############################################.",
"......................###############################################...........###############################################.",
"......................###############################################...........###############################################.",
"......................###############################################...........###############################################.",
"......................###############################################...........###############################################.",
"......................###############################################...........###############################################.",
"................................................................................................................................",
"................................................................................................................................",
"................................................................................................................................",
"................................................................................................................................",
"................................................................................................................................",
"................................................................................................................................",
"................................................................................................................................",
"................................................................................................................................"};
