/* XPM */
static xpm_row_t const letterT_xpm[] = {
"128 128 3 1",
". c None",
"# c #000000",
"a c #ffffff",
"................................................................................................................................",
"................................................................................................................................",
"................................................................................................................................",
"................................................................................................................................",
"........##############################################################################################..........................",
"........##############################################################################################..........................",
"........##############################################################################################..........................",
"........##############################################################################################..........................",
"........##############################################################################################..........................",
"........##############################################################################################..........................",
"........##############################################################################################..........................",
"........##############################################################################################..........................",
"........##############################################################################################..........................",
"........##############################################################################################..........................",
"........##############################################################################################..........................",
"........##############################################################################################..........................",
"........############aaaaaaaaaaaaaaaaaaaaaaaaaaaaaaaaaaaaaaaaaaaaaaaaaaaaaaaaaaaaaaaaaaaaaa########################..............",
"........############aaaaaaaaaaaaaaaaaaaaaaaaaaaaaaaaaaaaaaaaaaaaaaaaaaaaaaaaaaaaaaaaaaaaaa########################..............",
"........############aaaaaaaaaaaaaaaaaaaaaaaaaaaaaaaaaaaaaaaaaaaaaaaaaaaaaaaaaaaaaaaaaaaaaa########################..............",
"........############aaaaaaaaaaaaaaaaaaaaaaaaaaaaaaaaaaaaaaaaaaaaaaaaaaaaaaaaaaaaaaaaaaaaaa########################..............",
"........############aaaaaaaaaaaaaaaaaaaaaaaaaaaaaaaaaaaaaaaaaaaaaaaaaaaaaaaaaaaaaaaaaaaaaa########################..............",
"........############aaaaaaaaaaaaaaaaaaaaaaaaaaaaaaaaaaaaaaaaaaaaaaaaaaaaaaaaaaaaaaaaaaaaaa########################..............",
"........############aaaaaaaaaaaaaaaaaaaaaaaaaaaaaaaaaaaaaaaaaaaaaaaaaaaaaaaaaaaaaaaaaaaaaa########################..............",
"........############aaaaaaaaaaaaaaaaaaaaaaaaaaaaaaaaaaaaaaaaaaaaaaaaaaaaaaaaaaaaaaaaaaaaaa########################..............",
"........############aaaaaaaaaaaaaaaaaaaaaaaaaaaaaaaaaaaaaaaaaaaaaaaaaaaaaaaaaaaaaaaaaaaaaa########################..............",
"........############aaaaaaaaaaaaaaaaaaaaaaaaaaaaaaaaaaaaaaaaaaaaaaaaaaaaaaaaaaaaaaaaaaaaaa########################..............",
"........############aaaaaaaaaaaaaaaaaaaaaaaaaaaaaaaaaaaaaaaaaaaaaaaaaaaaaaaaaaaaaaaaaaaaaa########################..............",
"........############aaaaaaaaaaaaaaaaaaaaaaaaaaaaaaaaaaaaaaaaaaaaaaaaaaaaaaaaaaaaaaaaaaaaaa########################..............",
"........###################################aaaaaaaaaaaaaaaaaaaaaaaa###############################################..............",
"........###################################aaaaaaaaaaaaaaaaaaaaaaaa###############################################..............",
"........###################################aaaaaaaaaaaaaaaaaaaaaaaa###############################################..............",
"........###################################aaaaaaaaaaaaaaaaaaaaaaaa###############################################..............",
"........###################################aaaaaaaaaaaaaaaaaaaaaaaa###############################################..............",
"........###################################aaaaaaaaaaaaaaaaaaaaaaaa###############################################..............",
"........###################################aaaaaaaaaaaaaaaaaaaaaaaa###############################################..............",
"........###################################aaaaaaaaaaaaaaaaaaaaaaaa###############################################..............",
"........###################################aaaaaaaaaaaaaaaaaaaaaaaa###############################################..............",
"........###################################aaaaaaaaaaaaaaaaaaaaaaaa###############################################..............",
"........###################################aaaaaaaaaaaaaaaaaaaaaaaa###############################################..............",
"...............................############aaaaaaaaaaaaaaaaaaaaaaaa###############################################..............",
"................................###########aaaaaaaaaaaaaaaaaaaaaaaa###############################################..............",
"................................###########aaaaaaaaaaaaaaaaaaaaaaaa###############################################..............",
"................................###########aaaaaaaaaaaaaaaaaaaaaaaa###############################################..............",
"................................###########aaaaaaaaaaaaaaaaaaaaaaaa###############################################..............",
"................................###########aaaaaaaaaaaaaaaaaaaaaaaa###############################################..............",
"................................###########aaaaaaaaaaaaaaaaaaaaaaaa###############################################..............",
"................................###########aaaaaaaaaaaaaaaaaaaaaaaa###############################################..............",
"................................###########aaaaaaaaaaaaaaaaaaaaaaaa###############################################..............",
"................................###########aaaaaaaaaaaaaaaaaaaaaaaa###############################################..............",
"................................###########aaaaaaaaaaaaaaaaaaaaaaaa###############################################..............",
"................................###########aaaaaaaaaaaaaaaaaaaaaaaa###############################################..............",
"................................###########aaaaaaaaaaaaaaaaaaaaaaaa#######################......................................",
"................................###########aaaaaaaaaaaaaaaaaaaaaaaa#######################......................................",
"................................###########aaaaaaaaaaaaaaaaaaaaaaaa#######################......................................",
"................................###########aaaaaaaaaaaaaaaaaaaaaaaa#######################......................................",
"................................###########aaaaaaaaaaaaaaaaaaaaaaaa#######################......................................",
"................................###########aaaaaaaaaaaaaaaaaaaaaaaa#######################......................................",
"................................###########aaaaaaaaaaaaaaaaaaaaaaaa#######################......................................",
"................................###########aaaaaaaaaaaaaaaaaaaaaaaa#######################......................................",
"................................###########aaaaaaaaaaaaaaaaaaaaaaaa#######################......................................",
"................................###########aaaaaaaaaaaaaaaaaaaaaaaa#######################......................................",
"................................###########aaaaaaaaaaaaaaaaaaaaaaaa#######################......................................",
"................................###########aaaaaaaaaaaaaaaaaaaaaaaa#######################......................................",
"................................###########aaaaaaaaaaaaaaaaaaaaaaaa#######################......................................",
"................................###########aaaaaaaaaaaaaaaaaaaaaaaa#######################......................................",
"................................###########aaaaaaaaaaaaaaaaaaaaaaaa#######################......................................",
"................................###########aaaaaaaaaaaaaaaaaaaaaaaa#######################......................................",
"................................###########aaaaaaaaaaaaaaaaaaaaaaaa#######################......................................",
"................................###########aaaaaaaaaaaaaaaaaaaaaaaa#######################......................................",
"................................###########aaaaaaaaaaaaaaaaaaaaaaaa#######################......................................",
"................................###########aaaaaaaaaaaaaaaaaaaaaaaa#######################......................................",
"................................###########aaaaaaaaaaaaaaaaaaaaaaaa#######################......................................",
"................................###########aaaaaaaaaaaaaaaaaaaaaaaa#######################......................................",
"................................###########aaaaaaaaaaaaaaaaaaaaaaaa#######################......................................",
"................................###########aaaaaaaaaaaaaaaaaaaaaaaa#######################......................................",
"................................###########aaaaaaaaaaaaaaaaaaaaaaaa#######################......................................",
"................................###########aaaaaaaaaaaaaaaaaaaaaaaa#######################......................................",
"................................###########aaaaaaaaaaaaaaaaaaaaaaaa#######################......................................",
"................................###########aaaaaaaaaaaaaaaaaaaaaaaa#######################......................................",
"................................###########aaaaaaaaaaaaaaaaaaaaaaaa#######################......................................",
"................................###########aaaaaaaaaaaaaaaaaaaaaaaa#######################......................................",
"................................###########aaaaaaaaaaaaaaaaaaaaaaaa#######################......................................",
"................................###########aaaaaaaaaaaaaaaaaaaaaaaa#######################......................................",
"................................###########aaaaaaaaaaaaaaaaaaaaaaaa#######################......................................",
"................................###########aaaaaaaaaaaaaaaaaaaaaaaa#######################......................................",
"................................###########aaaaaaaaaaaaaaaaaaaaaaaa#######################......................................",
"................................###########aaaaaaaaaaaaaaaaaaaaaaaa#######################......................................",
"................................###########aaaaaaaaaaaaaaaaaaaaaaaa#######################......................................",
"................................###########aaaaaaaaaaaaaaaaaaaaaaaa#######################......................................",
"................................###########aaaaaaaaaaaaaaaaaaaaaaaa#######################......................................",
"................................###########aaaaaaaaaaaaaaaaaaaaaaaa#######################......................................",
"................................###########aaaaaaaaaaaaaaaaaaaaaaaa#######################......................................",
"................................###########aaaaaaaaaaaaaaaaaaaaaaaa#######################......................................",
"................................###########aaaaaaaaaaaaaaaaaaaaaaaa#######################......................................",
"................................###########aaaaaaaaaaaaaaaaaaaaaaaa#######################......................................",
"................................###########aaaaaaaaaaaaaaaaaaaaaaaa#######################......................................",
"................................###########aaaaaaaaaaaaaaaaaaaaaaaa#######################......................................",
"................................###########aaaaaaaaaaaaaaaaaaaaaaaa#######################......................................",
"................................##########################################################......................................",
"................................##########################################################......................................",
"................................##########################################################......................................",
"................................##########################################################......................................",
"................................##########################################################......................................",
"................................##########################################################......................................",
"................................##########################################################......................................",
"................................##########################################################......................................",
"................................##########################################################......................................",
"................................##########################################################......................................",
"................................##########################################################......................................",
"................................##########################################################......................................",
"...........................................###############################################......................................",
"...........................................###############################################......................................",
"...........................................###############################################......................................",
"...........................................###############################################......................................",
"...........................................###############################################......................................",
"...........................................###############################################......................................",
"...........................................###############################################......................................",
"...........................................###############################################......................................",
"...........................................###############################################......................................",
"...........................................###############################################......................................",
"...........................................###############################################......................................",
"................................................................................................................................",
"................................................................................................................................",
"................................................................................................................................",
"................................................................................................................................",
"................................................................................................................................",
"................................................................................................................................",
"................................................................................................................................"};
