/* XPM */
static xpm_row_t const letterX_xpm[] = {
"128 128 3 1",
". c None",
"# c #000000",
"a c #ffffff",
"................................................................................................................................",
"................................................................................................................................",
"................................................................................................................................",
".......###############################################............##############################################................",
".......###############################################............###############################################...............",
".......###############################################............###############################################...............",
".......###############################################............###############################################...............",
".......###############################################............###############################################...............",
".......###############################################............###############################################...............",
".......###############################################............###############################################...............",
".......###############################################............###############################################...............",
".......###############################################............###############################################...............",
".......###############################################............###############################################...............",
".......###############################################............###############################################...............",
".......###############################################............###############################################...............",
".......############aaaaaaaaaaaaaaaaaaaaaaa###################################aaaaaaaaaaaaaaaaaaaaaaaa#######################....",
".......############aaaaaaaaaaaaaaaaaaaaaaa###################################aaaaaaaaaaaaaaaaaaaaaaaa#######################....",
".......############aaaaaaaaaaaaaaaaaaaaaaa###################################aaaaaaaaaaaaaaaaaaaaaaaa#######################....",
".......############aaaaaaaaaaaaaaaaaaaaaaa###################################aaaaaaaaaaaaaaaaaaaaaaaa#######################....",
".......############aaaaaaaaaaaaaaaaaaaaaaa###################################aaaaaaaaaaaaaaaaaaaaaaaa#######################....",
".......############aaaaaaaaaaaaaaaaaaaaaaa###################################aaaaaaaaaaaaaaaaaaaaaaaa#######################....",
".......############aaaaaaaaaaaaaaaaaaaaaaa###################################aaaaaaaaaaaaaaaaaaaaaaaa#######################....",
".......############aaaaaaaaaaaaaaaaaaaaaaa###################################aaaaaaaaaaaaaaaaaaaaaaaa#######################....",
".......############aaaaaaaaaaaaaaaaaaaaaaa###################################aaaaaaaaaaaaaaaaaaaaaaaa#######################....",
".......############aaaaaaaaaaaaaaaaaaaaaaa###################################aaaaaaaaaaaaaaaaaaaaaaaa#######################....",
".......############aaaaaaaaaaaaaaaaaaaaaaa###################################aaaaaaaaaaaaaaaaaaaaaaaa#######################....",
".......############aaaaaaaaaaaaaaaaaaaaaaaa##################################aaaaaaaaaaaaaaaaaaaaaaaa#######################....",
".......############aaaaaaaaaaaaaaaaaaaaaaaaaaaaaaaaaaa############aaaaaaaaaaaaaaaaaaaaaaaaaaaaaaaaaaa#######################....",
".......############aaaaaaaaaaaaaaaaaaaaaaaaaaaaaaaaaaa############aaaaaaaaaaaaaaaaaaaaaaaaaaaaaaaaaaa#######################....",
".......############aaaaaaaaaaaaaaaaaaaaaaaaaaaaaaaaaaa############aaaaaaaaaaaaaaaaaaaaaaaaaaaaaaaaaaa#######################....",
".......############aaaaaaaaaaaaaaaaaaaaaaaaaaaaaaaaaaa############aaaaaaaaaaaaaaaaaaaaaaaaaaaaaaaaaaa#######################....",
".......############aaaaaaaaaaaaaaaaaaaaaaaaaaaaaaaaaaa############aaaaaaaaaaaaaaaaaaaaaaaaaaaaaaaaaaa#######################....",
".......############aaaaaaaaaaaaaaaaaaaaaaaaaaaaaaaaaaa############aaaaaaaaaaaaaaaaaaaaaaaaaaaaaaaaaaa#######################....",
".......############aaaaaaaaaaaaaaaaaaaaaaaaaaaaaaaaaaa############aaaaaaaaaaaaaaaaaaaaaaaaaaaaaaaaaaa#######################....",
".......############aaaaaaaaaaaaaaaaaaaaaaaaaaaaaaaaaaa############aaaaaaaaaaaaaaaaaaaaaaaaaaaaaaaaaaa#######################....",
".......############aaaaaaaaaaaaaaaaaaaaaaaaaaaaaaaaaaa############aaaaaaaaaaaaaaaaaaaaaaaaaaaaaaaaaaa#######################....",
".......############aaaaaaaaaaaaaaaaaaaaaaaaaaaaaaaaaaa############aaaaaaaaaaaaaaaaaaaaaaaaaaaaaaaaaaa#######################....",
".......############aaaaaaaaaaaaaaaaaaaaaaaaaaaaaaaaaaa############aaaaaaaaaaaaaaaaaaaaaaaaaaaaaaaaaaa#######################....",
".......#######################aaaaaaaaaaaaaaaaaaaaaaaaaaaaaaaaaaaaaaaaaaaaaaaaaaaaaaaaaaa###################################....",
".......########################aaaaaaaaaaaaaaaaaaaaaaaaaaaaaaaaaaaaaaaaaaaaaaaaaaaaaaaaaa###################################....",
".......########################aaaaaaaaaaaaaaaaaaaaaaaaaaaaaaaaaaaaaaaaaaaaaaaaaaaaaaaaaa###################################....",
".......########################aaaaaaaaaaaaaaaaaaaaaaaaaaaaaaaaaaaaaaaaaaaaaaaaaaaaaaaaaa###################################....",
".......########################aaaaaaaaaaaaaaaaaaaaaaaaaaaaaaaaaaaaaaaaaaaaaaaaaaaaaaaaaa###################################....",
".......########################aaaaaaaaaaaaaaaaaaaaaaaaaaaaaaaaaaaaaaaaaaaaaaaaaaaaaaaaaa###################################....",
".......########################aaaaaaaaaaaaaaaaaaaaaaaaaaaaaaaaaaaaaaaaaaaaaaaaaaaaaaaaaa###################################....",
".......########################aaaaaaaaaaaaaaaaaaaaaaaaaaaaaaaaaaaaaaaaaaaaaaaaaaaaaaaaaa###################################....",
".......########################aaaaaaaaaaaaaaaaaaaaaaaaaaaaaaaaaaaaaaaaaaaaaaaaaaaaaaaaaa###################################....",
".......########################aaaaaaaaaaaaaaaaaaaaaaaaaaaaaaaaaaaaaaaaaaaaaaaaaaaaaaaaaa###################################....",
".......########################aaaaaaaaaaaaaaaaaaaaaaaaaaaaaaaaaaaaaaaaaaaaaaaaaaaaaaaaaa###################################....",
".......########################aaaaaaaaaaaaaaaaaaaaaaaaaaaaaaaaaaaaaaaaaaaaaaaaaaaaaaaaaa###################################....",
"...................#######################aaaaaaaaaaaaaaaaaaaaaaaaaaaaaaaaaaa###############################################....",
"...................#######################aaaaaaaaaaaaaaaaaaaaaaaaaaaaaaaaaaa###############################################....",
"...................#######################aaaaaaaaaaaaaaaaaaaaaaaaaaaaaaaaaaa###############################################....",
"...................#######################aaaaaaaaaaaaaaaaaaaaaaaaaaaaaaaaaaa###############################################....",
"...................#######################aaaaaaaaaaaaaaaaaaaaaaaaaaaaaaaaaaa###############################################....",
"...................#######################aaaaaaaaaaaaaaaaaaaaaaaaaaaaaaaaaaa###############################################....",
"...................#######################aaaaaaaaaaaaaaaaaaaaaaaaaaaaaaaaaaa###############################################....",
"...................#######################aaaaaaaaaaaaaaaaaaaaaaaaaaaaaaaaaaa###############################################....",
"...................#######################aaaaaaaaaaaaaaaaaaaaaaaaaaaaaaaaaaa###############################################....",
"...................#######################aaaaaaaaaaaaaaaaaaaaaaaaaaaaaaaaaaa###############################################....",
"...................#######################aaaaaaaaaaaaaaaaaaaaaaaaaaaaaaaaaaa###############################################....",
"...................#######################aaaaaaaaaaaaaaaaaaaaaaaaaaaaaaaaaaa###############################################....",
".......########################aaaaaaaaaaaaaaaaaaaaaaaaaaaaaaaaaaaaaaaaaaaaaaaaaaaaaaaaaa########################...............",
".......########################aaaaaaaaaaaaaaaaaaaaaaaaaaaaaaaaaaaaaaaaaaaaaaaaaaaaaaaaaa########################...............",
".......########################aaaaaaaaaaaaaaaaaaaaaaaaaaaaaaaaaaaaaaaaaaaaaaaaaaaaaaaaaa########################...............",
".......########################aaaaaaaaaaaaaaaaaaaaaaaaaaaaaaaaaaaaaaaaaaaaaaaaaaaaaaaaaa########################...............",
".......########################aaaaaaaaaaaaaaaaaaaaaaaaaaaaaaaaaaaaaaaaaaaaaaaaaaaaaaaaaa########################...............",
".......########################aaaaaaaaaaaaaaaaaaaaaaaaaaaaaaaaaaaaaaaaaaaaaaaaaaaaaaaaaa########################...............",
".......########################aaaaaaaaaaaaaaaaaaaaaaaaaaaaaaaaaaaaaaaaaaaaaaaaaaaaaaaaaa########################...............",
".......########################aaaaaaaaaaaaaaaaaaaaaaaaaaaaaaaaaaaaaaaaaaaaaaaaaaaaaaaaaa########################...............",
".......########################aaaaaaaaaaaaaaaaaaaaaaaaaaaaaaaaaaaaaaaaaaaaaaaaaaaaaaaaaa########################...............",
".......########################aaaaaaaaaaaaaaaaaaaaaaaaaaaaaaaaaaaaaaaaaaaaaaaaaaaaaaaaaa########################...............",
".......########################aaaaaaaaaaaaaaaaaaaaaaaaaaaaaaaaaaaaaaaaaaaaaaaaaaaaaaaaaa########################...............",
".......#######################aaaaaaaaaaaaaaaaaaaaaaaaaaaaaaaaaaaaaaaaaaaaaaaaaaaaaaaaaaa########################...............",
".......############aaaaaaaaaaaaaaaaaaaaaaaaaaaaaaaaaaa############aaaaaaaaaaaaaaaaaaaaaaaaaaaaaaaaaaa#######################....",
".......############aaaaaaaaaaaaaaaaaaaaaaaaaaaaaaaaaaa############aaaaaaaaaaaaaaaaaaaaaaaaaaaaaaaaaaa#######################....",
".......############aaaaaaaaaaaaaaaaaaaaaaaaaaaaaaaaaaa############aaaaaaaaaaaaaaaaaaaaaaaaaaaaaaaaaaa#######################....",
".......############aaaaaaaaaaaaaaaaaaaaaaaaaaaaaaaaaaa############aaaaaaaaaaaaaaaaaaaaaaaaaaaaaaaaaaa#######################....",
".......############aaaaaaaaaaaaaaaaaaaaaaaaaaaaaaaaaaa############aaaaaaaaaaaaaaaaaaaaaaaaaaaaaaaaaaa#######################....",
".......############aaaaaaaaaaaaaaaaaaaaaaaaaaaaaaaaaaa############aaaaaaaaaaaaaaaaaaaaaaaaaaaaaaaaaaa#######################....",
".......############aaaaaaaaaaaaaaaaaaaaaaaaaaaaaaaaaaa############aaaaaaaaaaaaaaaaaaaaaaaaaaaaaaaaaaa#######################....",
".......############aaaaaaaaaaaaaaaaaaaaaaaaaaaaaaaaaaa############aaaaaaaaaaaaaaaaaaaaaaaaaaaaaaaaaaa#######################....",
".......############aaaaaaaaaaaaaaaaaaaaaaaaaaaaaaaaaaa############aaaaaaaaaaaaaaaaaaaaaaaaaaaaaaaaaaa#######################....",
".......############aaaaaaaaaaaaaaaaaaaaaaaaaaaaaaaaaaa############aaaaaaaaaaaaaaaaaaaaaaaaaaaaaaaaaaa#######################....",
".......############aaaaaaaaaaaaaaaaaaaaaaaaaaaaaaaaaaa############aaaaaaaaaaaaaaaaaaaaaaaaaaaaaaaaaaa#######################....",
".......############aaaaaaaaaaaaaaaaaaaaaaaa##################################aaaaaaaaaaaaaaaaaaaaaaaa#######################....",
".......############aaaaaaaaaaaaaaaaaaaaaaa###################################aaaaaaaaaaaaaaaaaaaaaaaa#######################....",
".......############aaaaaaaaaaaaaaaaaaaaaaa###################################aaaaaaaaaaaaaaaaaaaaaaaa#######################....",
".......############aaaaaaaaaaaaaaaaaaaaaaa###################################aaaaaaaaaaaaaaaaaaaaaaaa#######################....",
".......############aaaaaaaaaaaaaaaaaaaaaaa###################################aaaaaaaaaaaaaaaaaaaaaaaa#######################....",
".......############aaaaaaaaaaaaaaaaaaaaaaa###################################aaaaaaaaaaaaaaaaaaaaaaaa#######################....",
".......############aaaaaaaaaaaaaaaaaaaaaaa###################################aaaaaaaaaaaaaaaaaaaaaaaa#######################....",
".......############aaaaaaaaaaaaaaaaaaaaaaa###################################aaaaaaaaaaaaaaaaaaaaaaaa#######################....",
".......############aaaaaaaaaaaaaaaaaaaaaaa###################################aaaaaaaaaaaaaaaaaaaaaaaa#######################....",
".......############aaaaaaaaaaaaaaaaaaaaaaa###################################aaaaaaaaaaaaaaaaaaaaaaaa#######################....",
".......############aaaaaaaaaaaaaaaaaaaaaaa###################################aaaaaaaaaaaaaaaaaaaaaaaa#######################....",
".......############aaaaaaaaaaaaaaaaaaaaaaa###################################aaaaaaaaaaaaaaaaaaaaaaaa#######################....",
".......#####################################################################################################################....",
".......#####################################################################################################################....",
".......#####################################################################################################################....",
".......#####################################################################################################################....",
".......#####################################################################################################################....",
".......#####################################################################################################################....",
".......#####################################################################################################################....",
".......#####################################################################################################################....",
".......#####################################################################################################################....",
".......#####################################################################################################################....",
".......#####################################################################################################################....",
".......#####################################################################################################################....",
"...................###############################################...........###############################################....",
"...................###############################################...........###############################################....",
"...................###############################################...........###############################################....",
"...................###############################################...........###############################################....",
"...................###############################################...........###############################################....",
"...................###############################################...........###############################################....",
"...................###############################################...........###############################################....",
"...................###############################################...........###############################################....",
"...................###############################################...........###############################################....",
"...................###############################################...........###############################################....",
"...................###############################################...........###############################################....",
"................................................................................................................................",
"................................................................................................................................",
"................................................................................................................................",
"................................................................................................................................",
"................................................................................................................................",
"................................................................................................................................",
"................................................................................................................................",
"................................................................................................................................"};
