/* XPM */
static xpm_row_t const letterY_xpm[] = {
"128 128 3 1",
". c None",
"# c #000000",
"a c #ffffff",
"................................................................................................................................",
"................................................................................................................................",
"................................................................................................................................",
"........##############################################################################################..........................",
"........##############################################################################################..........................",
"........##############################################################################################..........................",
"........##############################################################################################..........................",
"........##############################################################################################..........................",
"........##############################################################################################..........................",
"........##############################################################################################..........................",
"........##############################################################################################..........................",
"........##############################################################################################..........................",
"........##############################################################################################..........................",
"........##############################################################################################..........................",
"........##############################################################################################..........................",
"........############aaaaaaaaaaaaaaaaaaaaaaa########################aaaaaaaaaaaaaaaaaaaaaaa########################..............",
"........############aaaaaaaaaaaaaaaaaaaaaaa########################aaaaaaaaaaaaaaaaaaaaaaa########################..............",
"........############aaaaaaaaaaaaaaaaaaaaaaa########################aaaaaaaaaaaaaaaaaaaaaaa########################..............",
"........############aaaaaaaaaaaaaaaaaaaaaaa########################aaaaaaaaaaaaaaaaaaaaaaa########################..............",
"........############aaaaaaaaaaaaaaaaaaaaaaa########################aaaaaaaaaaaaaaaaaaaaaaa########################..............",
"........############aaaaaaaaaaaaaaaaaaaaaaa########################aaaaaaaaaaaaaaaaaaaaaaa########################..............",
"........############aaaaaaaaaaaaaaaaaaaaaaa########################aaaaaaaaaaaaaaaaaaaaaaa########################..............",
"........############aaaaaaaaaaaaaaaaaaaaaaa########################aaaaaaaaaaaaaaaaaaaaaaa########################..............",
"........############aaaaaaaaaaaaaaaaaaaaaaa########################aaaaaaaaaaaaaaaaaaaaaaa########################..............",
"........############aaaaaaaaaaaaaaaaaaaaaaa########################aaaaaaaaaaaaaaaaaaaaaaa########################..............",
"........############aaaaaaaaaaaaaaaaaaaaaaa########################aaaaaaaaaaaaaaaaaaaaaaa########################..............",
"........############aaaaaaaaaaaaaaaaaaaaaaa########################aaaaaaaaaaaaaaaaaaaaaaa########################..............",
"........############aaaaaaaaaaaaaaaaaaaaaaa########################aaaaaaaaaaaaaaaaaaaaaaa########################..............",
"........############aaaaaaaaaaaaaaaaaaaaaaa########################aaaaaaaaaaaaaaaaaaaaaaa########################..............",
"........############aaaaaaaaaaaaaaaaaaaaaaa########################aaaaaaaaaaaaaaaaaaaaaaa########################..............",
"........############aaaaaaaaaaaaaaaaaaaaaaa########################aaaaaaaaaaaaaaaaaaaaaaa########################..............",
"........############aaaaaaaaaaaaaaaaaaaaaaa########################aaaaaaaaaaaaaaaaaaaaaaa########################..............",
"........############aaaaaaaaaaaaaaaaaaaaaaa########################aaaaaaaaaaaaaaaaaaaaaaa########################..............",
"........############aaaaaaaaaaaaaaaaaaaaaaa########################aaaaaaaaaaaaaaaaaaaaaaa########################..............",
"........############aaaaaaaaaaaaaaaaaaaaaaa########################aaaaaaaaaaaaaaaaaaaaaaa########################..............",
"........############aaaaaaaaaaaaaaaaaaaaaaa########################aaaaaaaaaaaaaaaaaaaaaaa########################..............",
"........############aaaaaaaaaaaaaaaaaaaaaaa########################aaaaaaaaaaaaaaaaaaaaaaa########################..............",
"........############aaaaaaaaaaaaaaaaaaaaaaa########################aaaaaaaaaaaaaaaaaaaaaaa########################..............",
"........############aaaaaaaaaaaaaaaaaaaaaaa########################aaaaaaaaaaaaaaaaaaaaaaa########################..............",
"........############aaaaaaaaaaaaaaaaaaaaaaa########################aaaaaaaaaaaaaaaaaaaaaaa########################..............",
"........############aaaaaaaaaaaaaaaaaaaaaaa########################aaaaaaaaaaaaaaaaaaaaaaa########################..............",
"........############aaaaaaaaaaaaaaaaaaaaaaa########################aaaaaaaaaaaaaaaaaaaaaaa########################..............",
"........############aaaaaaaaaaaaaaaaaaaaaaa########################aaaaaaaaaaaaaaaaaaaaaaa########################..............",
"........############aaaaaaaaaaaaaaaaaaaaaaa########################aaaaaaaaaaaaaaaaaaaaaaa########################..............",
"........############aaaaaaaaaaaaaaaaaaaaaaa########################aaaaaaaaaaaaaaaaaaaaaaa########################..............",
"........############aaaaaaaaaaaaaaaaaaaaaaa########################aaaaaaaaaaaaaaaaaaaaaaa########################..............",
"........############aaaaaaaaaaaaaaaaaaaaaaa########################aaaaaaaaaaaaaaaaaaaaaaa########################..............",
"........############aaaaaaaaaaaaaaaaaaaaaaa########################aaaaaaaaaaaaaaaaaaaaaaa########################..............",
"........############aaaaaaaaaaaaaaaaaaaaaaa########################aaaaaaaaaaaaaaaaaaaaaaa########################..............",
"........############aaaaaaaaaaaaaaaaaaaaaaa########################aaaaaaaaaaaaaaaaaaaaaaa########################..............",
"........########################aaaaaaaaaaaaaaaaaaaaaaaaaaaaaaaaaaaaaaaaaaaaaa####################################..............",
"........########################aaaaaaaaaaaaaaaaaaaaaaaaaaaaaaaaaaaaaaaaaaaaaa####################################..............",
"........########################aaaaaaaaaaaaaaaaaaaaaaaaaaaaaaaaaaaaaaaaaaaaaa####################################..............",
"........########################aaaaaaaaaaaaaaaaaaaaaaaaaaaaaaaaaaaaaaaaaaaaaa####################################..............",
"........########################aaaaaaaaaaaaaaaaaaaaaaaaaaaaaaaaaaaaaaaaaaaaaa####################################..............",
"........########################aaaaaaaaaaaaaaaaaaaaaaaaaaaaaaaaaaaaaaaaaaaaaa####################################..............",
"........########################aaaaaaaaaaaaaaaaaaaaaaaaaaaaaaaaaaaaaaaaaaaaaa####################################..............",
"........########################aaaaaaaaaaaaaaaaaaaaaaaaaaaaaaaaaaaaaaaaaaaaaa####################################..............",
"........########################aaaaaaaaaaaaaaaaaaaaaaaaaaaaaaaaaaaaaaaaaaaaaa####################################..............",
"........########################aaaaaaaaaaaaaaaaaaaaaaaaaaaaaaaaaaaaaaaaaaaaaa####################################..............",
"........########################aaaaaaaaaaaaaaaaaaaaaaaaaaaaaaaaaaaaaaaaaaaaaa####################################..............",
"........########################aaaaaaaaaaaaaaaaaaaaaaaaaaaaaaaaaaaaaaaaaaaaaa####################################..............",
"....................#######################aaaaaaaaaaaaaaaaaaaaaaaa###############################################..............",
"....................#######################aaaaaaaaaaaaaaaaaaaaaaaa###############################################..............",
"....................#######################aaaaaaaaaaaaaaaaaaaaaaaa###############################################..............",
"....................#######################aaaaaaaaaaaaaaaaaaaaaaaa###############################################..............",
"....................#######################aaaaaaaaaaaaaaaaaaaaaaaa###############################################..............",
"....................#######################aaaaaaaaaaaaaaaaaaaaaaaa###############################################..............",
"....................#######################aaaaaaaaaaaaaaaaaaaaaaaa###############################################..............",
"....................#######################aaaaaaaaaaaaaaaaaaaaaaaa###############################################..............",
"....................#######################aaaaaaaaaaaaaaaaaaaaaaaa###############################################..............",
"....................#######################aaaaaaaaaaaaaaaaaaaaaaaa###############################################..............",
"....................#######################aaaaaaaaaaaaaaaaaaaaaaaa###############################################..............",
"....................#######################aaaaaaaaaaaaaaaaaaaaaaaa##############################################...............",
"................................###########aaaaaaaaaaaaaaaaaaaaaaaa###################################..........................",
"................................###########aaaaaaaaaaaaaaaaaaaaaaaa###################################..........................",
"................................###########aaaaaaaaaaaaaaaaaaaaaaaa###################################..........................",
"................................###########aaaaaaaaaaaaaaaaaaaaaaaa###################################..........................",
"................................###########aaaaaaaaaaaaaaaaaaaaaaaa###################################..........................",
"................................###########aaaaaaaaaaaaaaaaaaaaaaaa###################################..........................",
"................................###########aaaaaaaaaaaaaaaaaaaaaaaa###################################..........................",
"................................###########aaaaaaaaaaaaaaaaaaaaaaaa###################################..........................",
"................................###########aaaaaaaaaaaaaaaaaaaaaaaa###################################..........................",
"................................###########aaaaaaaaaaaaaaaaaaaaaaaa###################################..........................",
"................................###########aaaaaaaaaaaaaaaaaaaaaaaa###################################..........................",
"................................###########aaaaaaaaaaaaaaaaaaaaaaaa#######################......................................",
"................................###########aaaaaaaaaaaaaaaaaaaaaaaa#######################......................................",
"................................###########aaaaaaaaaaaaaaaaaaaaaaaa#######################......................................",
"................................###########aaaaaaaaaaaaaaaaaaaaaaaa#######################......................................",
"................................###########aaaaaaaaaaaaaaaaaaaaaaaa#######################......................................",
"................................###########aaaaaaaaaaaaaaaaaaaaaaaa#######################......................................",
"................................###########aaaaaaaaaaaaaaaaaaaaaaaa#######################......................................",
"................................###########aaaaaaaaaaaaaaaaaaaaaaaa#######################......................................",
"................................###########aaaaaaaaaaaaaaaaaaaaaaaa#######################......................................",
"................................###########aaaaaaaaaaaaaaaaaaaaaaaa#######################......................................",
"................................###########aaaaaaaaaaaaaaaaaaaaaaaa#######################......................................",
"................................###########aaaaaaaaaaaaaaaaaaaaaaaa#######################......................................",
"................................##########################################################......................................",
"................................##########################################################......................................",
"................................##########################################################......................................",
"................................##########################################################......................................",
"................................##########################################################......................................",
"................................##########################################################......................................",
"................................##########################################################......................................",
"................................##########################################################......................................",
"................................##########################################################......................................",
"................................##########################################################......................................",
"................................##########################################################......................................",
"................................##########################################################......................................",
"...........................................###############################################......................................",
"...........................................###############################################......................................",
"...........................................###############################################......................................",
"...........................................###############################################......................................",
"...........................................###############################################......................................",
"...........................................###############################################......................................",
"...........................................###############################################......................................",
"...........................................###############################################......................................",
"...........................................###############################################......................................",
"...........................................###############################################......................................",
"...........................................###############################################......................................",
"................................................................................................................................",
"................................................................................................................................",
"................................................................................................................................",
"................................................................................................................................",
"................................................................................................................................",
"................................................................................................................................",
"................................................................................................................................",
"................................................................................................................................"};
