/* XPM */
static xpm_row_t const letterG_xpm[] = {
"128 128 3 1",
". c None",
"# c #000000",
"a c #ffffff",
"................................................................................................................................",
"................................................................................................................................",
"................................................................................................................................",
"...................##################################################################################...........................",
"...................##################################################################################...........................",
"...................##################################################################################...........................",
"...................##################################################################################...........................",
"...................##################################################################################...........................",
"...................##################################################################################...........................",
"...................##################################################################################...........................",
"...................##################################################################################...........................",
"...................##################################################################################...........................",
"...................##################################################################################...........................",
"...................##################################################################################...........................",
"...................##################################################################################...........................",
".......########################aaaaaaaaaaaaaaaaaaaaaaaaaaaaaaaaaaaaaaaaaaaaaaaaaaaaaaaaaa########################...............",
".......########################aaaaaaaaaaaaaaaaaaaaaaaaaaaaaaaaaaaaaaaaaaaaaaaaaaaaaaaaaa########################...............",
".......########################aaaaaaaaaaaaaaaaaaaaaaaaaaaaaaaaaaaaaaaaaaaaaaaaaaaaaaaaaa########################...............",
".......########################aaaaaaaaaaaaaaaaaaaaaaaaaaaaaaaaaaaaaaaaaaaaaaaaaaaaaaaaaa########################...............",
".......########################aaaaaaaaaaaaaaaaaaaaaaaaaaaaaaaaaaaaaaaaaaaaaaaaaaaaaaaaaa########################...............",
".......########################aaaaaaaaaaaaaaaaaaaaaaaaaaaaaaaaaaaaaaaaaaaaaaaaaaaaaaaaaa########################...............",
".......########################aaaaaaaaaaaaaaaaaaaaaaaaaaaaaaaaaaaaaaaaaaaaaaaaaaaaaaaaaa########################...............",
".......########################aaaaaaaaaaaaaaaaaaaaaaaaaaaaaaaaaaaaaaaaaaaaaaaaaaaaaaaaaa########################...............",
".......########################aaaaaaaaaaaaaaaaaaaaaaaaaaaaaaaaaaaaaaaaaaaaaaaaaaaaaaaaaa########################...............",
".......########################aaaaaaaaaaaaaaaaaaaaaaaaaaaaaaaaaaaaaaaaaaaaaaaaaaaaaaaaaa########################...............",
".......########################aaaaaaaaaaaaaaaaaaaaaaaaaaaaaaaaaaaaaaaaaaaaaaaaaaaaaaaaaa########################...............",
".......#######################aaaaaaaaaaaaaaaaaaaaaaaaaaaaaaaaaaaaaaaaaaaaaaaaaaaaaaaaaaa########################...............",
".......############aaaaaaaaaaaaaaaaaaaaaaa###################################aaaaaaaaaaaaaaaaaaaaaaaa#######################....",
".......############aaaaaaaaaaaaaaaaaaaaaaa###################################aaaaaaaaaaaaaaaaaaaaaaaa#######################....",
".......############aaaaaaaaaaaaaaaaaaaaaaa###################################aaaaaaaaaaaaaaaaaaaaaaaa#######################....",
".......############aaaaaaaaaaaaaaaaaaaaaaa###################################aaaaaaaaaaaaaaaaaaaaaaaa#######################....",
".......############aaaaaaaaaaaaaaaaaaaaaaa###################################aaaaaaaaaaaaaaaaaaaaaaaa#######################....",
".......############aaaaaaaaaaaaaaaaaaaaaaa###################################aaaaaaaaaaaaaaaaaaaaaaaa#######################....",
".......############aaaaaaaaaaaaaaaaaaaaaaa###################################aaaaaaaaaaaaaaaaaaaaaaaa#######################....",
".......############aaaaaaaaaaaaaaaaaaaaaaa###################################aaaaaaaaaaaaaaaaaaaaaaaa#######################....",
".......############aaaaaaaaaaaaaaaaaaaaaaa###################################aaaaaaaaaaaaaaaaaaaaaaaa#######################....",
".......############aaaaaaaaaaaaaaaaaaaaaaa###################################aaaaaaaaaaaaaaaaaaaaaaaa#######################....",
".......############aaaaaaaaaaaaaaaaaaaaaaa###################################aaaaaaaaaaaaaaaaaaaaaaaa#######################....",
".......############aaaaaaaaaaaaaaaaaaaaaaa##################################################################################....",
".......############aaaaaaaaaaaaaaaaaaaaaaa##################################################################################....",
".......############aaaaaaaaaaaaaaaaaaaaaaa##################################################################################....",
".......############aaaaaaaaaaaaaaaaaaaaaaa##################################################################################....",
".......############aaaaaaaaaaaaaaaaaaaaaaa##################################################################################....",
".......############aaaaaaaaaaaaaaaaaaaaaaa##################################################################################....",
".......############aaaaaaaaaaaaaaaaaaaaaaa##################################################################################....",
".......############aaaaaaaaaaaaaaaaaaaaaaa##################################################################################....",
".......############aaaaaaaaaaaaaaaaaaaaaaa##################################################################################....",
".......############aaaaaaaaaaaaaaaaaaaaaaa##################################################################################....",
".......############aaaaaaaaaaaaaaaaaaaaaaa##################################################################################....",
".......############aaaaaaaaaaaaaaaaaaaaaaa##################################################################################....",
".......############aaaaaaaaaaaaaaaaaaaaaaa########################aaaaaaaaaaaaaaaaaaaaaaaaaaaaaaaaaaa#######################....",
".......############aaaaaaaaaaaaaaaaaaaaaaa########################aaaaaaaaaaaaaaaaaaaaaaaaaaaaaaaaaaa#######################....",
".......############aaaaaaaaaaaaaaaaaaaaaaa########################aaaaaaaaaaaaaaaaaaaaaaaaaaaaaaaaaaa#######################....",
".......############aaaaaaaaaaaaaaaaaaaaaaa########################aaaaaaaaaaaaaaaaaaaaaaaaaaaaaaaaaaa#######################....",
".......############aaaaaaaaaaaaaaaaaaaaaaa########################aaaaaaaaaaaaaaaaaaaaaaaaaaaaaaaaaaa#######################....",
".......############aaaaaaaaaaaaaaaaaaaaaaa########################aaaaaaaaaaaaaaaaaaaaaaaaaaaaaaaaaaa#######################....",
".......############aaaaaaaaaaaaaaaaaaaaaaa########################aaaaaaaaaaaaaaaaaaaaaaaaaaaaaaaaaaa#######################....",
".......############aaaaaaaaaaaaaaaaaaaaaaa########################aaaaaaaaaaaaaaaaaaaaaaaaaaaaaaaaaaa#######################....",
".......############aaaaaaaaaaaaaaaaaaaaaaa########################aaaaaaaaaaaaaaaaaaaaaaaaaaaaaaaaaaa#######################....",
".......############aaaaaaaaaaaaaaaaaaaaaaa########################aaaaaaaaaaaaaaaaaaaaaaaaaaaaaaaaaaa#######################....",
".......############aaaaaaaaaaaaaaaaaaaaaaa########################aaaaaaaaaaaaaaaaaaaaaaaaaaaaaaaaaaa#######################....",
".......############aaaaaaaaaaaaaaaaaaaaaaa########################aaaaaaaaaaaaaaaaaaaaaaaaaaaaaaaaaaa#######################....",
".......############aaaaaaaaaaaaaaaaaaaaaaa###################################aaaaaaaaaaaaaaaaaaaaaaaa#######################....",
".......############aaaaaaaaaaaaaaaaaaaaaaa###################################aaaaaaaaaaaaaaaaaaaaaaaa#######################....",
".......############aaaaaaaaaaaaaaaaaaaaaaa###################################aaaaaaaaaaaaaaaaaaaaaaaa#######################....",
".......############aaaaaaaaaaaaaaaaaaaaaaa###################################aaaaaaaaaaaaaaaaaaaaaaaa#######################....",
".......############aaaaaaaaaaaaaaaaaaaaaaa###################################aaaaaaaaaaaaaaaaaaaaaaaa#######################....",
".......############aaaaaaaaaaaaaaaaaaaaaaa###################################aaaaaaaaaaaaaaaaaaaaaaaa#######################....",
".......############aaaaaaaaaaaaaaaaaaaaaaa###################################aaaaaaaaaaaaaaaaaaaaaaaa#######################....",
".......############aaaaaaaaaaaaaaaaaaaaaaa###################################aaaaaaaaaaaaaaaaaaaaaaaa#######################....",
".......############aaaaaaaaaaaaaaaaaaaaaaa###################################aaaaaaaaaaaaaaaaaaaaaaaa#######################....",
".......############aaaaaaaaaaaaaaaaaaaaaaa###################################aaaaaaaaaaaaaaaaaaaaaaaa#######################....",
".......############aaaaaaaaaaaaaaaaaaaaaaa###################################aaaaaaaaaaaaaaaaaaaaaaaa#######################....",
".......############aaaaaaaaaaaaaaaaaaaaaaa###################################aaaaaaaaaaaaaaaaaaaaaaaa#######################....",
".......############aaaaaaaaaaaaaaaaaaaaaaa###################################aaaaaaaaaaaaaaaaaaaaaaaa#######################....",
".......############aaaaaaaaaaaaaaaaaaaaaaa###################################aaaaaaaaaaaaaaaaaaaaaaaa#######################....",
".......############aaaaaaaaaaaaaaaaaaaaaaa###################################aaaaaaaaaaaaaaaaaaaaaaaa#######################....",
".......############aaaaaaaaaaaaaaaaaaaaaaa###################################aaaaaaaaaaaaaaaaaaaaaaaa#######################....",
".......############aaaaaaaaaaaaaaaaaaaaaaa###################################aaaaaaaaaaaaaaaaaaaaaaaa#######################....",
".......############aaaaaaaaaaaaaaaaaaaaaaa###################################aaaaaaaaaaaaaaaaaaaaaaaa#######################....",
".......############aaaaaaaaaaaaaaaaaaaaaaa###################################aaaaaaaaaaaaaaaaaaaaaaaa#######################....",
".......############aaaaaaaaaaaaaaaaaaaaaaa###################################aaaaaaaaaaaaaaaaaaaaaaaa#######################....",
".......############aaaaaaaaaaaaaaaaaaaaaaa###################################aaaaaaaaaaaaaaaaaaaaaaaa#######################....",
".......############aaaaaaaaaaaaaaaaaaaaaaa###################################aaaaaaaaaaaaaaaaaaaaaaaa#######################....",
".......############aaaaaaaaaaaaaaaaaaaaaaa###################################aaaaaaaaaaaaaaaaaaaaaaaa#######################....",
".......#######################aaaaaaaaaaaaaaaaaaaaaaaaaaaaaaaaaaaaaaaaaaaaaaa############aaaaaaaaaaaa#######################....",
".......########################aaaaaaaaaaaaaaaaaaaaaaaaaaaaaaaaaaaaaaaaaaaaaa############aaaaaaaaaaaa#######################....",
".......########################aaaaaaaaaaaaaaaaaaaaaaaaaaaaaaaaaaaaaaaaaaaaaa############aaaaaaaaaaaa#######################....",
".......########################aaaaaaaaaaaaaaaaaaaaaaaaaaaaaaaaaaaaaaaaaaaaaa############aaaaaaaaaaaa#######################....",
".......########################aaaaaaaaaaaaaaaaaaaaaaaaaaaaaaaaaaaaaaaaaaaaaa############aaaaaaaaaaaa#######################....",
".......########################aaaaaaaaaaaaaaaaaaaaaaaaaaaaaaaaaaaaaaaaaaaaaa############aaaaaaaaaaaa#######################....",
".......########################aaaaaaaaaaaaaaaaaaaaaaaaaaaaaaaaaaaaaaaaaaaaaa############aaaaaaaaaaaa#######################....",
".......########################aaaaaaaaaaaaaaaaaaaaaaaaaaaaaaaaaaaaaaaaaaaaaa############aaaaaaaaaaaa#######################....",
".......########################aaaaaaaaaaaaaaaaaaaaaaaaaaaaaaaaaaaaaaaaaaaaaa############aaaaaaaaaaaa#######################....",
".......########################aaaaaaaaaaaaaaaaaaaaaaaaaaaaaaaaaaaaaaaaaaaaaa############aaaaaaaaaaaa#######################....",
".......########################aaaaaaaaaaaaaaaaaaaaaaaaaaaaaaaaaaaaaaaaaaaaaa############aaaaaaaaaaaa#######################....",
".......########################aaaaaaaaaaaaaaaaaaaaaaaaaaaaaaaaaaaaaaaaaaaaaa############aaaaaaaaaaaa#######################....",
"...................#########################################################################################################....",
"...................#########################################################################################################....",
"...................#########################################################################################################....",
"...................#########################################################################################################....",
"...................#########################################################################################################....",
"...................#########################################################################################################....",
"...................#########################################################################################################....",
"...................#########################################################################################################....",
"...................#########################################################################################################....",
"...................#########################################################################################################....",
"...................#########################################################################################################....",
"...................#########################################################################################################....",
"...............................#############################################################################################....",
"...............................#############################################################################################....",
"...............................#############################################################################################....",
"...............................#############################################################################################....",
"...............................#############################################################################################....",
"...............................#############################################################################################....",
"...............................#############################################################################################....",
"...............................#############################################################################################....",
"...............................#############################################################################################....",
"...............................#############################################################################################....",
"...............................#############################################################################################....",
"................................................................................................................................",
"................................................................................................................................",
"................................................................................................................................",
"................................................................................................................................",
"................................................................................................................................",
"................................................................................................................................",
"................................................................................................................................",
"................................................................................................................................"};
