/* XPM */
static xpm_row_t const Number9_xpm[] = {
"128 128 3 1",
". c None",
"# c #000000",
"a c #ffffff",
"................................................................................................................................",
"................................................................................................................................",
"................................................................................................................................",
"................................................................................................................................",
".....................##################################################################################.........................",
".....................##################################################################################.........................",
".....................##################################################################################.........................",
".....................##################################################################################.........................",
".....................##################################################################################.........................",
".....................##################################################################################.........................",
".....................##################################################################################.........................",
".....................##################################################################################.........................",
".....................##################################################################################.........................",
".....................##################################################################################.........................",
".....................##################################################################################.........................",
".....................##################################################################################.........................",
".........########################aaaaaaaaaaaaaaaaaaaaaaaaaaaaaaaaaaaaaaaaaaaaaaaaaaaaaaaaaa########################.............",
".........########################aaaaaaaaaaaaaaaaaaaaaaaaaaaaaaaaaaaaaaaaaaaaaaaaaaaaaaaaaa########################.............",
".........########################aaaaaaaaaaaaaaaaaaaaaaaaaaaaaaaaaaaaaaaaaaaaaaaaaaaaaaaaaa########################.............",
".........########################aaaaaaaaaaaaaaaaaaaaaaaaaaaaaaaaaaaaaaaaaaaaaaaaaaaaaaaaaa########################.............",
".........########################aaaaaaaaaaaaaaaaaaaaaaaaaaaaaaaaaaaaaaaaaaaaaaaaaaaaaaaaaa########################.............",
".........########################aaaaaaaaaaaaaaaaaaaaaaaaaaaaaaaaaaaaaaaaaaaaaaaaaaaaaaaaaa########################.............",
".........########################aaaaaaaaaaaaaaaaaaaaaaaaaaaaaaaaaaaaaaaaaaaaaaaaaaaaaaaaaa########################.............",
".........########################aaaaaaaaaaaaaaaaaaaaaaaaaaaaaaaaaaaaaaaaaaaaaaaaaaaaaaaaaa########################.............",
".........########################aaaaaaaaaaaaaaaaaaaaaaaaaaaaaaaaaaaaaaaaaaaaaaaaaaaaaaaaaa########################.............",
".........########################aaaaaaaaaaaaaaaaaaaaaaaaaaaaaaaaaaaaaaaaaaaaaaaaaaaaaaaaaa########################.............",
".........########################aaaaaaaaaaaaaaaaaaaaaaaaaaaaaaaaaaaaaaaaaaaaaaaaaaaaaaaaaa########################.............",
".........#######################aaaaaaaaaaaaaaaaaaaaaaaaaaaaaaaaaaaaaaaaaaaaaaaaaaaaaaaaaaa########################.............",
".........############aaaaaaaaaaaaaaaaaaaaaaa###################################aaaaaaaaaaaaaaaaaaaaaaaa#######################..",
".........############aaaaaaaaaaaaaaaaaaaaaaa###################################aaaaaaaaaaaaaaaaaaaaaaaa#######################..",
".........############aaaaaaaaaaaaaaaaaaaaaaa###################################aaaaaaaaaaaaaaaaaaaaaaaa#######################..",
".........############aaaaaaaaaaaaaaaaaaaaaaa###################################aaaaaaaaaaaaaaaaaaaaaaaa#######################..",
".........############aaaaaaaaaaaaaaaaaaaaaaa###################################aaaaaaaaaaaaaaaaaaaaaaaa#######################..",
".........############aaaaaaaaaaaaaaaaaaaaaaa###################################aaaaaaaaaaaaaaaaaaaaaaaa#######################..",
".........############aaaaaaaaaaaaaaaaaaaaaaa###################################aaaaaaaaaaaaaaaaaaaaaaaa#######################..",
".........############aaaaaaaaaaaaaaaaaaaaaaa###################################aaaaaaaaaaaaaaaaaaaaaaaa#######################..",
".........############aaaaaaaaaaaaaaaaaaaaaaa###################################aaaaaaaaaaaaaaaaaaaaaaaa#######################..",
".........############aaaaaaaaaaaaaaaaaaaaaaa###################################aaaaaaaaaaaaaaaaaaaaaaaa#######################..",
".........############aaaaaaaaaaaaaaaaaaaaaaa###################################aaaaaaaaaaaaaaaaaaaaaaaa#######################..",
".........############aaaaaaaaaaaaaaaaaaaaaaa###################################aaaaaaaaaaaaaaaaaaaaaaaa#######################..",
".........############aaaaaaaaaaaaaaaaaaaaaaa###################################aaaaaaaaaaaaaaaaaaaaaaaa#######################..",
".........############aaaaaaaaaaaaaaaaaaaaaaa###################################aaaaaaaaaaaaaaaaaaaaaaaa#######################..",
".........############aaaaaaaaaaaaaaaaaaaaaaa###################################aaaaaaaaaaaaaaaaaaaaaaaa#######################..",
".........############aaaaaaaaaaaaaaaaaaaaaaa###################################aaaaaaaaaaaaaaaaaaaaaaaa#######################..",
".........############aaaaaaaaaaaaaaaaaaaaaaa###################################aaaaaaaaaaaaaaaaaaaaaaaa#######################..",
".........############aaaaaaaaaaaaaaaaaaaaaaa###################################aaaaaaaaaaaaaaaaaaaaaaaa#######################..",
".........############aaaaaaaaaaaaaaaaaaaaaaa###################################aaaaaaaaaaaaaaaaaaaaaaaa#######################..",
".........############aaaaaaaaaaaaaaaaaaaaaaa###################################aaaaaaaaaaaaaaaaaaaaaaaa#######################..",
".........############aaaaaaaaaaaaaaaaaaaaaaa###################################aaaaaaaaaaaaaaaaaaaaaaaa#######################..",
".........############aaaaaaaaaaaaaaaaaaaaaaa###################################aaaaaaaaaaaaaaaaaaaaaaaa#######################..",
".........############aaaaaaaaaaaaaaaaaaaaaaa###################################aaaaaaaaaaaaaaaaaaaaaaaa#######################..",
".........########################aaaaaaaaaaaaaaaaaaaaaaaaaaaaaaaaaaaaaaaaaaaaaaaaaaaaaaaaaaaaaaaaaaaaaa#######################..",
".........########################aaaaaaaaaaaaaaaaaaaaaaaaaaaaaaaaaaaaaaaaaaaaaaaaaaaaaaaaaaaaaaaaaaaaaa#######################..",
".........########################aaaaaaaaaaaaaaaaaaaaaaaaaaaaaaaaaaaaaaaaaaaaaaaaaaaaaaaaaaaaaaaaaaaaaa#######################..",
".........########################aaaaaaaaaaaaaaaaaaaaaaaaaaaaaaaaaaaaaaaaaaaaaaaaaaaaaaaaaaaaaaaaaaaaaa#######################..",
".........########################aaaaaaaaaaaaaaaaaaaaaaaaaaaaaaaaaaaaaaaaaaaaaaaaaaaaaaaaaaaaaaaaaaaaaa#######################..",
".........########################aaaaaaaaaaaaaaaaaaaaaaaaaaaaaaaaaaaaaaaaaaaaaaaaaaaaaaaaaaaaaaaaaaaaaa#######################..",
".........########################aaaaaaaaaaaaaaaaaaaaaaaaaaaaaaaaaaaaaaaaaaaaaaaaaaaaaaaaaaaaaaaaaaaaaa#######################..",
".........########################aaaaaaaaaaaaaaaaaaaaaaaaaaaaaaaaaaaaaaaaaaaaaaaaaaaaaaaaaaaaaaaaaaaaaa#######################..",
".........########################aaaaaaaaaaaaaaaaaaaaaaaaaaaaaaaaaaaaaaaaaaaaaaaaaaaaaaaaaaaaaaaaaaaaaa#######################..",
".........########################aaaaaaaaaaaaaaaaaaaaaaaaaaaaaaaaaaaaaaaaaaaaaaaaaaaaaaaaaaaaaaaaaaaaaa#######################..",
".........########################aaaaaaaaaaaaaaaaaaaaaaaaaaaaaaaaaaaaaaaaaaaaaaaaaaaaaaaaaaaaaaaaaaaaaa#######################..",
".........########################aaaaaaaaaaaaaaaaaaaaaaaaaaaaaaaaaaaaaaaaaaaaaaaaaaaaaaaaaaaaaaaaaaaaaa#######################..",
".....................##########################################################aaaaaaaaaaaaaaaaaaaaaaaa#######################..",
".....................##########################################################aaaaaaaaaaaaaaaaaaaaaaaa#######################..",
".....................##########################################################aaaaaaaaaaaaaaaaaaaaaaaa#######################..",
".....................##########################################################aaaaaaaaaaaaaaaaaaaaaaaa#######################..",
".....................##########################################################aaaaaaaaaaaaaaaaaaaaaaaa#######################..",
".....................##########################################################aaaaaaaaaaaaaaaaaaaaaaaa#######################..",
".....................##########################################################aaaaaaaaaaaaaaaaaaaaaaaa#######################..",
".....................##########################################################aaaaaaaaaaaaaaaaaaaaaaaa#######################..",
".....................##########################################################aaaaaaaaaaaaaaaaaaaaaaaa#######################..",
".....................##########################################################aaaaaaaaaaaaaaaaaaaaaaaa#######################..",
".....................##########################################################aaaaaaaaaaaaaaaaaaaaaaaa#######################..",
".....................##########################################################aaaaaaaaaaaaaaaaaaaaaaaa#######################..",
".................................###################################aaaaaaaaaaaaaaaaaaaaaaa###################################..",
".................................###################################aaaaaaaaaaaaaaaaaaaaaaa###################################..",
".................................###################################aaaaaaaaaaaaaaaaaaaaaaa###################################..",
".................................###################################aaaaaaaaaaaaaaaaaaaaaaa###################################..",
".................................###################################aaaaaaaaaaaaaaaaaaaaaaa###################################..",
".................................###################################aaaaaaaaaaaaaaaaaaaaaaa###################################..",
".................................###################################aaaaaaaaaaaaaaaaaaaaaaa###################################..",
".................................###################################aaaaaaaaaaaaaaaaaaaaaaa###################################..",
".................................###################################aaaaaaaaaaaaaaaaaaaaaaa###################################..",
".................................###################################aaaaaaaaaaaaaaaaaaaaaaa###################################..",
".................................###################################aaaaaaaaaaaaaaaaaaaaaaa###################################..",
".................................############aaaaaaaaaaaaaaaaaaaaaaaaaaaaaaaaaaa##############################################..",
".................................###########aaaaaaaaaaaaaaaaaaaaaaaaaaaaaaaaaaa###############################################..",
".................................###########aaaaaaaaaaaaaaaaaaaaaaaaaaaaaaaaaaa###############################################..",
".................................###########aaaaaaaaaaaaaaaaaaaaaaaaaaaaaaaaaaa###############################################..",
".................................###########aaaaaaaaaaaaaaaaaaaaaaaaaaaaaaaaaaa###############################################..",
".................................###########aaaaaaaaaaaaaaaaaaaaaaaaaaaaaaaaaaa###############################################..",
".................................###########aaaaaaaaaaaaaaaaaaaaaaaaaaaaaaaaaaa###############################################..",
".................................###########aaaaaaaaaaaaaaaaaaaaaaaaaaaaaaaaaaa###############################################..",
".................................###########aaaaaaaaaaaaaaaaaaaaaaaaaaaaaaaaaaa###############################################..",
".................................###########aaaaaaaaaaaaaaaaaaaaaaaaaaaaaaaaaaa###############################################..",
".................................###########aaaaaaaaaaaaaaaaaaaaaaaaaaaaaaaaaaa###############################################..",
".................................###########aaaaaaaaaaaaaaaaaaaaaaaaaaaaaaaaaaa###############################################..",
".................................##################################################################################.............",
".................................##################################################################################.............",
".................................##################################################################################.............",
".................................##################################################################################.............",
".................................##################################################################################.............",
".................................##################################################################################.............",
".................................##################################################################################.............",
".................................##################################################################################.............",
".................................##################################################################################.............",
".................................##################################################################################.............",
".................................##################################################################################.............",
".................................#################################################################################..............",
"............................................###########################################################.........................",
"............................................###########################################################.........................",
"............................................###########################################################.........................",
"............................................###########################################################.........................",
"............................................###########################################################.........................",
"............................................###########################################################.........................",
"............................................###########################################################.........................",
"............................................###########################################################.........................",
"............................................###########################################################.........................",
"............................................###########################################################.........................",
"............................................###########################################################.........................",
"................................................................................................................................",
"................................................................................................................................",
"................................................................................................................................",
"................................................................................................................................",
"................................................................................................................................",
"................................................................................................................................",
"................................................................................................................................"};
