/* XPM */
static xpm_row_t const Number2_xpm[] = {
"128 128 3 1",
". c None",
"# c #000000",
"a c #ffffff",
"................................................................................................................................",
"................................................................................................................................",
"................................................................................................................................",
"................................................................................................................................",
".........................##################################################################################.....................",
".........................##################################################################################.....................",
".........................##################################################################################.....................",
".........................##################################################################################.....................",
".........................##################################################################################.....................",
".........................##################################################################################.....................",
".........................##################################################################################.....................",
".........................##################################################################################.....................",
".........................##################################################################################.....................",
".........................##################################################################################.....................",
".........................##################################################################################.....................",
".........................##################################################################################.....................",
".............########################aaaaaaaaaaaaaaaaaaaaaaaaaaaaaaaaaaaaaaaaaaaaaaaaaaaaaaaaaa########################.........",
".............########################aaaaaaaaaaaaaaaaaaaaaaaaaaaaaaaaaaaaaaaaaaaaaaaaaaaaaaaaaa########################.........",
".............########################aaaaaaaaaaaaaaaaaaaaaaaaaaaaaaaaaaaaaaaaaaaaaaaaaaaaaaaaaa########################.........",
".............########################aaaaaaaaaaaaaaaaaaaaaaaaaaaaaaaaaaaaaaaaaaaaaaaaaaaaaaaaaa########################.........",
".............########################aaaaaaaaaaaaaaaaaaaaaaaaaaaaaaaaaaaaaaaaaaaaaaaaaaaaaaaaaa########################.........",
".............########################aaaaaaaaaaaaaaaaaaaaaaaaaaaaaaaaaaaaaaaaaaaaaaaaaaaaaaaaaa########################.........",
".............########################aaaaaaaaaaaaaaaaaaaaaaaaaaaaaaaaaaaaaaaaaaaaaaaaaaaaaaaaaa########################.........",
".............########################aaaaaaaaaaaaaaaaaaaaaaaaaaaaaaaaaaaaaaaaaaaaaaaaaaaaaaaaaa########################.........",
".............########################aaaaaaaaaaaaaaaaaaaaaaaaaaaaaaaaaaaaaaaaaaaaaaaaaaaaaaaaaa########################.........",
".............########################aaaaaaaaaaaaaaaaaaaaaaaaaaaaaaaaaaaaaaaaaaaaaaaaaaaaaaaaaa########################.........",
".............########################aaaaaaaaaaaaaaaaaaaaaaaaaaaaaaaaaaaaaaaaaaaaaaaaaaaaaaaaaa########################.........",
".............#######################aaaaaaaaaaaaaaaaaaaaaaaaaaaaaaaaaaaaaaaaaaaaaaaaaaaaaaaaaaa########################.........",
".............############aaaaaaaaaaaaaaaaaaaaaaa###################################aaaaaaaaaaaaaaaaaaaaaaaa#####################",
".............############aaaaaaaaaaaaaaaaaaaaaaa###################################aaaaaaaaaaaaaaaaaaaaaaaa#####################",
".............############aaaaaaaaaaaaaaaaaaaaaaa###################################aaaaaaaaaaaaaaaaaaaaaaaa#####################",
".............############aaaaaaaaaaaaaaaaaaaaaaa###################################aaaaaaaaaaaaaaaaaaaaaaaa#####################",
".............############aaaaaaaaaaaaaaaaaaaaaaa###################################aaaaaaaaaaaaaaaaaaaaaaaa#####################",
".............############aaaaaaaaaaaaaaaaaaaaaaa###################################aaaaaaaaaaaaaaaaaaaaaaaa#####################",
".............############aaaaaaaaaaaaaaaaaaaaaaa###################################aaaaaaaaaaaaaaaaaaaaaaaa#####################",
".............############aaaaaaaaaaaaaaaaaaaaaaa###################################aaaaaaaaaaaaaaaaaaaaaaaa#####################",
".............############aaaaaaaaaaaaaaaaaaaaaaa###################################aaaaaaaaaaaaaaaaaaaaaaaa#####################",
".............############aaaaaaaaaaaaaaaaaaaaaaa###################################aaaaaaaaaaaaaaaaaaaaaaaa#####################",
".............############aaaaaaaaaaaaaaaaaaaaaaa###################################aaaaaaaaaaaaaaaaaaaaaaaa#####################",
".............############aaaaaaaaaaaaaaaaaaaaaaa########################aaaaaaaaaaaaaaaaaaaaaaaaaaaaaaaaaaa#####################",
".............############aaaaaaaaaaaaaaaaaaaaaaa########################aaaaaaaaaaaaaaaaaaaaaaaaaaaaaaaaaaa#####################",
".............############aaaaaaaaaaaaaaaaaaaaaaa########################aaaaaaaaaaaaaaaaaaaaaaaaaaaaaaaaaaa#####################",
".............############aaaaaaaaaaaaaaaaaaaaaaa########################aaaaaaaaaaaaaaaaaaaaaaaaaaaaaaaaaaa#####################",
".............############aaaaaaaaaaaaaaaaaaaaaaa########################aaaaaaaaaaaaaaaaaaaaaaaaaaaaaaaaaaa#####################",
".............############aaaaaaaaaaaaaaaaaaaaaaa########################aaaaaaaaaaaaaaaaaaaaaaaaaaaaaaaaaaa#####################",
".............############aaaaaaaaaaaaaaaaaaaaaaa########################aaaaaaaaaaaaaaaaaaaaaaaaaaaaaaaaaaa#####################",
".............############aaaaaaaaaaaaaaaaaaaaaaa########################aaaaaaaaaaaaaaaaaaaaaaaaaaaaaaaaaaa#####################",
".............############aaaaaaaaaaaaaaaaaaaaaaa########################aaaaaaaaaaaaaaaaaaaaaaaaaaaaaaaaaaa#####################",
".............############aaaaaaaaaaaaaaaaaaaaaaa########################aaaaaaaaaaaaaaaaaaaaaaaaaaaaaaaaaaa#####################",
".............############aaaaaaaaaaaaaaaaaaaaaaa########################aaaaaaaaaaaaaaaaaaaaaaaaaaaaaaaaaaa#####################",
".............############aaaaaaaaaaaaaaaaaaaaaaa########################aaaaaaaaaaaaaaaaaaaaaaaaaaaaaaaaaaa#####################",
".............###############################################aaaaaaaaaaaaaaaaaaaaaaaaaaaaaaaaaaa#################################",
".............###############################################aaaaaaaaaaaaaaaaaaaaaaaaaaaaaaaaaaa#################################",
".............###############################################aaaaaaaaaaaaaaaaaaaaaaaaaaaaaaaaaaa#################################",
".............###############################################aaaaaaaaaaaaaaaaaaaaaaaaaaaaaaaaaaa#################################",
".............###############################################aaaaaaaaaaaaaaaaaaaaaaaaaaaaaaaaaaa#################################",
".............###############################################aaaaaaaaaaaaaaaaaaaaaaaaaaaaaaaaaaa#################################",
".............###############################################aaaaaaaaaaaaaaaaaaaaaaaaaaaaaaaaaaa#################################",
".............###############################################aaaaaaaaaaaaaaaaaaaaaaaaaaaaaaaaaaa#################################",
".............###############################################aaaaaaaaaaaaaaaaaaaaaaaaaaaaaaaaaaa#################################",
".............###############################################aaaaaaaaaaaaaaaaaaaaaaaaaaaaaaaaaaa#################################",
".............###############################################aaaaaaaaaaaaaaaaaaaaaaaaaaaaaaaaaaa#################################",
".............###############################################aaaaaaaaaaaaaaaaaaaaaaaaaaaaaaaaaaa#################################",
".........................#######################aaaaaaaaaaaaaaaaaaaaaaaaaaaaaaaaaaa#############################################",
".........................#######################aaaaaaaaaaaaaaaaaaaaaaaaaaaaaaaaaaa#############################################",
".........................#######################aaaaaaaaaaaaaaaaaaaaaaaaaaaaaaaaaaa#############################################",
".........................#######################aaaaaaaaaaaaaaaaaaaaaaaaaaaaaaaaaaa#############################################",
".........................#######################aaaaaaaaaaaaaaaaaaaaaaaaaaaaaaaaaaa#############################################",
".........................#######################aaaaaaaaaaaaaaaaaaaaaaaaaaaaaaaaaaa#############################################",
".........................#######################aaaaaaaaaaaaaaaaaaaaaaaaaaaaaaaaaaa#############################################",
".........................#######################aaaaaaaaaaaaaaaaaaaaaaaaaaaaaaaaaaa#############################################",
".........................#######################aaaaaaaaaaaaaaaaaaaaaaaaaaaaaaaaaaa#############################################",
".........................#######################aaaaaaaaaaaaaaaaaaaaaaaaaaaaaaaaaaa#############################################",
".........................#######################aaaaaaaaaaaaaaaaaaaaaaaaaaaaaaaaaaa#############################################",
".........................#######################aaaaaaaaaaaaaaaaaaaaaaaaaaaaaaaaaaa#############################################",
".............########################aaaaaaaaaaaaaaaaaaaaaaaaaaaaaaaaaaa###############################################a........",
".............########################aaaaaaaaaaaaaaaaaaaaaaaaaaaaaaaaaaa###############################################.........",
".............########################aaaaaaaaaaaaaaaaaaaaaaaaaaaaaaaaaaa###############################################.........",
".............########################aaaaaaaaaaaaaaaaaaaaaaaaaaaaaaaaaaa###############################################.........",
".............########################aaaaaaaaaaaaaaaaaaaaaaaaaaaaaaaaaaa###############################################.........",
".............########################aaaaaaaaaaaaaaaaaaaaaaaaaaaaaaaaaaa###############################################.........",
".............########################aaaaaaaaaaaaaaaaaaaaaaaaaaaaaaaaaaa###############################################.........",
".............########################aaaaaaaaaaaaaaaaaaaaaaaaaaaaaaaaaaa###############################################.........",
".............########################aaaaaaaaaaaaaaaaaaaaaaaaaaaaaaaaaaa###############################################.........",
".............########################aaaaaaaaaaaaaaaaaaaaaaaaaaaaaaaaaaa###############################################.........",
".............########################aaaaaaaaaaaaaaaaaaaaaaaaaaaaaaaaaaa###############################################.........",
".............############aaaaaaaaaaaaaaaaaaaaaaaaaaaaaaaaaaaaaaaaaaaaaaaaaaaaaaaaaaaaaaaaaaaaaaaaaaaaaaaaaa#####################",
".............############aaaaaaaaaaaaaaaaaaaaaaaaaaaaaaaaaaaaaaaaaaaaaaaaaaaaaaaaaaaaaaaaaaaaaaaaaaaaaaaaaa#####################",
".............############aaaaaaaaaaaaaaaaaaaaaaaaaaaaaaaaaaaaaaaaaaaaaaaaaaaaaaaaaaaaaaaaaaaaaaaaaaaaaaaaaa#####################",
".............############aaaaaaaaaaaaaaaaaaaaaaaaaaaaaaaaaaaaaaaaaaaaaaaaaaaaaaaaaaaaaaaaaaaaaaaaaaaaaaaaaa#####################",
".............############aaaaaaaaaaaaaaaaaaaaaaaaaaaaaaaaaaaaaaaaaaaaaaaaaaaaaaaaaaaaaaaaaaaaaaaaaaaaaaaaaa#####################",
".............############aaaaaaaaaaaaaaaaaaaaaaaaaaaaaaaaaaaaaaaaaaaaaaaaaaaaaaaaaaaaaaaaaaaaaaaaaaaaaaaaaa#####################",
".............############aaaaaaaaaaaaaaaaaaaaaaaaaaaaaaaaaaaaaaaaaaaaaaaaaaaaaaaaaaaaaaaaaaaaaaaaaaaaaaaaaa#####################",
".............############aaaaaaaaaaaaaaaaaaaaaaaaaaaaaaaaaaaaaaaaaaaaaaaaaaaaaaaaaaaaaaaaaaaaaaaaaaaaaaaaaa#####################",
".............############aaaaaaaaaaaaaaaaaaaaaaaaaaaaaaaaaaaaaaaaaaaaaaaaaaaaaaaaaaaaaaaaaaaaaaaaaaaaaaaaaa#####################",
".............############aaaaaaaaaaaaaaaaaaaaaaaaaaaaaaaaaaaaaaaaaaaaaaaaaaaaaaaaaaaaaaaaaaaaaaaaaaaaaaaaaa#####################",
".............############aaaaaaaaaaaaaaaaaaaaaaaaaaaaaaaaaaaaaaaaaaaaaaaaaaaaaaaaaaaaaaaaaaaaaaaaaaaaaaaaaa#####################",
".............############aaaaaaaaaaaaaaaaaaaaaaaaaaaaaaaaaaaaaaaaaaaaaaaaaaaaaaaaaaaaaaaaaaaaaaaaaaaaaaaaaa#####################",
".............###################################################################################################################",
".............###################################################################################################################",
".............###################################################################################################################",
".............###################################################################################################################",
".............###################################################################################################################",
".............###################################################################################################################",
".............###################################################################################################################",
".............###################################################################################################################",
".............###################################################################################################################",
".............###################################################################################################################",
".............###################################################################################################################",
".............###################################################################################################################",
".........................#######################################################################################################",
".........................#######################################################################################################",
".........................#######################################################################################################",
".........................#######################################################################################################",
".........................#######################################################################################################",
".........................#######################################################################################################",
".........................#######################################################################################################",
".........................#######################################################################################################",
".........................#######################################################################################################",
".........................#######################################################################################################",
".........................#######################################################################################################",
"................................................................................................................................",
"................................................................................................................................",
"................................................................................................................................",
"................................................................................................................................",
"................................................................................................................................",
"................................................................................................................................",
"................................................................................................................................"};
