/* XPM */
static xpm_row_t const Number8_xpm[] = {
"128 128 3 1",
". c None",
"# c #000000",
"a c #ffffff",
"................................................................................................................................",
"................................................................................................................................",
"................................................................................................................................",
"................................................................................................................................",
"................................................................................................................................",
"......................##################################################################################........................",
"......................##################################################################################........................",
"......................##################################################################################........................",
"......................##################################################################################........................",
"......................##################################################################################........................",
"......................##################################################################################........................",
"......................##################################################################################........................",
"......................##################################################################################........................",
"......................##################################################################################........................",
"......................##################################################################################........................",
"......................##################################################################################........................",
"......................##################################################################################........................",
"..........########################aaaaaaaaaaaaaaaaaaaaaaaaaaaaaaaaaaaaaaaaaaaaaaaaaaaaaaaaaa########################............",
"..........########################aaaaaaaaaaaaaaaaaaaaaaaaaaaaaaaaaaaaaaaaaaaaaaaaaaaaaaaaaa########################............",
"..........########################aaaaaaaaaaaaaaaaaaaaaaaaaaaaaaaaaaaaaaaaaaaaaaaaaaaaaaaaaa########################............",
"..........########################aaaaaaaaaaaaaaaaaaaaaaaaaaaaaaaaaaaaaaaaaaaaaaaaaaaaaaaaaa########################............",
"..........########################aaaaaaaaaaaaaaaaaaaaaaaaaaaaaaaaaaaaaaaaaaaaaaaaaaaaaaaaaa########################............",
"..........########################aaaaaaaaaaaaaaaaaaaaaaaaaaaaaaaaaaaaaaaaaaaaaaaaaaaaaaaaaa########################............",
"..........########################aaaaaaaaaaaaaaaaaaaaaaaaaaaaaaaaaaaaaaaaaaaaaaaaaaaaaaaaaa########################............",
"..........########################aaaaaaaaaaaaaaaaaaaaaaaaaaaaaaaaaaaaaaaaaaaaaaaaaaaaaaaaaa########################............",
"..........########################aaaaaaaaaaaaaaaaaaaaaaaaaaaaaaaaaaaaaaaaaaaaaaaaaaaaaaaaaa########################............",
"..........########################aaaaaaaaaaaaaaaaaaaaaaaaaaaaaaaaaaaaaaaaaaaaaaaaaaaaaaaaaa########################............",
"..........########################aaaaaaaaaaaaaaaaaaaaaaaaaaaaaaaaaaaaaaaaaaaaaaaaaaaaaaaaaa########################............",
"..........#######################aaaaaaaaaaaaaaaaaaaaaaaaaaaaaaaaaaaaaaaaaaaaaaaaaaaaaaaaaaa########################............",
"..........############aaaaaaaaaaaaaaaaaaaaaaa###################################aaaaaaaaaaaaaaaaaaaaaaaa#######################.",
"..........############aaaaaaaaaaaaaaaaaaaaaaa###################################aaaaaaaaaaaaaaaaaaaaaaaa#######################.",
"..........############aaaaaaaaaaaaaaaaaaaaaaa###################################aaaaaaaaaaaaaaaaaaaaaaaa#######################.",
"..........############aaaaaaaaaaaaaaaaaaaaaaa###################################aaaaaaaaaaaaaaaaaaaaaaaa#######################.",
"..........############aaaaaaaaaaaaaaaaaaaaaaa###################################aaaaaaaaaaaaaaaaaaaaaaaa#######################.",
"..........############aaaaaaaaaaaaaaaaaaaaaaa###################################aaaaaaaaaaaaaaaaaaaaaaaa#######################.",
"..........############aaaaaaaaaaaaaaaaaaaaaaa###################################aaaaaaaaaaaaaaaaaaaaaaaa#######################.",
"..........############aaaaaaaaaaaaaaaaaaaaaaa###################################aaaaaaaaaaaaaaaaaaaaaaaa#######################.",
"..........############aaaaaaaaaaaaaaaaaaaaaaa###################################aaaaaaaaaaaaaaaaaaaaaaaa#######################.",
"..........############aaaaaaaaaaaaaaaaaaaaaaa###################################aaaaaaaaaaaaaaaaaaaaaaaa#######################.",
"..........############aaaaaaaaaaaaaaaaaaaaaaa###################################aaaaaaaaaaaaaaaaaaaaaaaa#######################.",
"..........############aaaaaaaaaaaaaaaaaaaaaaaaaaaaaaaaaaa#######################aaaaaaaaaaaaaaaaaaaaaaaa#######################.",
"..........############aaaaaaaaaaaaaaaaaaaaaaaaaaaaaaaaaaa#######################aaaaaaaaaaaaaaaaaaaaaaaa#######################.",
"..........############aaaaaaaaaaaaaaaaaaaaaaaaaaaaaaaaaaa#######################aaaaaaaaaaaaaaaaaaaaaaaa#######################.",
"..........############aaaaaaaaaaaaaaaaaaaaaaaaaaaaaaaaaaa#######################aaaaaaaaaaaaaaaaaaaaaaaa#######################.",
"..........############aaaaaaaaaaaaaaaaaaaaaaaaaaaaaaaaaaa#######################aaaaaaaaaaaaaaaaaaaaaaaa#######################.",
"..........############aaaaaaaaaaaaaaaaaaaaaaaaaaaaaaaaaaa#######################aaaaaaaaaaaaaaaaaaaaaaaa#######################.",
"..........############aaaaaaaaaaaaaaaaaaaaaaaaaaaaaaaaaaa#######################aaaaaaaaaaaaaaaaaaaaaaaa#######################.",
"..........############aaaaaaaaaaaaaaaaaaaaaaaaaaaaaaaaaaa#######################aaaaaaaaaaaaaaaaaaaaaaaa#######################.",
"..........############aaaaaaaaaaaaaaaaaaaaaaaaaaaaaaaaaaa#######################aaaaaaaaaaaaaaaaaaaaaaaa#######################.",
"..........############aaaaaaaaaaaaaaaaaaaaaaaaaaaaaaaaaaa#######################aaaaaaaaaaaaaaaaaaaaaaaa#######################.",
"..........############aaaaaaaaaaaaaaaaaaaaaaaaaaaaaaaaaaa#######################aaaaaaaaaaaaaaaaaaaaaaaa#######################.",
"..........############aaaaaaaaaaaaaaaaaaaaaaaaaaaaaaaaaaa#######################aaaaaaaaaaaaaaaaaaaaaaaa#######################.",
"..........########################aaaaaaaaaaaaaaaaaaaaaaaaaaaaaaaaaaaaaaaaaaaaaaaaaaaaaaaaaa###################################.",
"..........########################aaaaaaaaaaaaaaaaaaaaaaaaaaaaaaaaaaaaaaaaaaaaaaaaaaaaaaaaaa###################################.",
"..........########################aaaaaaaaaaaaaaaaaaaaaaaaaaaaaaaaaaaaaaaaaaaaaaaaaaaaaaaaaa###################################.",
"..........########################aaaaaaaaaaaaaaaaaaaaaaaaaaaaaaaaaaaaaaaaaaaaaaaaaaaaaaaaaa###################################.",
"..........########################aaaaaaaaaaaaaaaaaaaaaaaaaaaaaaaaaaaaaaaaaaaaaaaaaaaaaaaaaa###################################.",
"..........########################aaaaaaaaaaaaaaaaaaaaaaaaaaaaaaaaaaaaaaaaaaaaaaaaaaaaaaaaaa###################################.",
"..........########################aaaaaaaaaaaaaaaaaaaaaaaaaaaaaaaaaaaaaaaaaaaaaaaaaaaaaaaaaa###################################.",
"..........########################aaaaaaaaaaaaaaaaaaaaaaaaaaaaaaaaaaaaaaaaaaaaaaaaaaaaaaaaaa###################################.",
"..........########################aaaaaaaaaaaaaaaaaaaaaaaaaaaaaaaaaaaaaaaaaaaaaaaaaaaaaaaaaa###################################.",
"..........########################aaaaaaaaaaaaaaaaaaaaaaaaaaaaaaaaaaaaaaaaaaaaaaaaaaaaaaaaaa###################################.",
"..........########################aaaaaaaaaaaaaaaaaaaaaaaaaaaaaaaaaaaaaaaaaaaaaaaaaaaaaaaaaa###################################.",
"..........########################aaaaaaaaaaaaaaaaaaaaaaaaaaaaaaaaaaaaaaaaaaaaaaaaaaaaaaaaaa###################################.",
"..........############aaaaaaaaaaaaaaaaaaaaaaa########################aaaaaaaaaaaaaaaaaaaaaaaaaaaaaaaaaaa#######################.",
"..........############aaaaaaaaaaaaaaaaaaaaaaa########################aaaaaaaaaaaaaaaaaaaaaaaaaaaaaaaaaaa#######################.",
"..........############aaaaaaaaaaaaaaaaaaaaaaa########################aaaaaaaaaaaaaaaaaaaaaaaaaaaaaaaaaaa#######################.",
"..........############aaaaaaaaaaaaaaaaaaaaaaa########################aaaaaaaaaaaaaaaaaaaaaaaaaaaaaaaaaaa#######################.",
"..........############aaaaaaaaaaaaaaaaaaaaaaa########################aaaaaaaaaaaaaaaaaaaaaaaaaaaaaaaaaaa#######################.",
"..........############aaaaaaaaaaaaaaaaaaaaaaa########################aaaaaaaaaaaaaaaaaaaaaaaaaaaaaaaaaaa#######################.",
"..........############aaaaaaaaaaaaaaaaaaaaaaa########################aaaaaaaaaaaaaaaaaaaaaaaaaaaaaaaaaaa#######################.",
"..........############aaaaaaaaaaaaaaaaaaaaaaa########################aaaaaaaaaaaaaaaaaaaaaaaaaaaaaaaaaaa#######################.",
"..........############aaaaaaaaaaaaaaaaaaaaaaa########################aaaaaaaaaaaaaaaaaaaaaaaaaaaaaaaaaaa#######################.",
"..........############aaaaaaaaaaaaaaaaaaaaaaa########################aaaaaaaaaaaaaaaaaaaaaaaaaaaaaaaaaaa#######################.",
"..........############aaaaaaaaaaaaaaaaaaaaaaa########################aaaaaaaaaaaaaaaaaaaaaaaaaaaaaaaaaaa#######################.",
"..........############aaaaaaaaaaaaaaaaaaaaaaa########################aaaaaaaaaaaaaaaaaaaaaaaaaaaaaaaaaaa#######################.",
"..........############aaaaaaaaaaaaaaaaaaaaaaa###################################aaaaaaaaaaaaaaaaaaaaaaaa#######################.",
"..........############aaaaaaaaaaaaaaaaaaaaaaa###################################aaaaaaaaaaaaaaaaaaaaaaaa#######################.",
"..........############aaaaaaaaaaaaaaaaaaaaaaa###################################aaaaaaaaaaaaaaaaaaaaaaaa#######################.",
"..........############aaaaaaaaaaaaaaaaaaaaaaa###################################aaaaaaaaaaaaaaaaaaaaaaaa#######################.",
"..........############aaaaaaaaaaaaaaaaaaaaaaa###################################aaaaaaaaaaaaaaaaaaaaaaaa#######################.",
"..........############aaaaaaaaaaaaaaaaaaaaaaa###################################aaaaaaaaaaaaaaaaaaaaaaaa#######################.",
"..........############aaaaaaaaaaaaaaaaaaaaaaa###################################aaaaaaaaaaaaaaaaaaaaaaaa#######################.",
"..........############aaaaaaaaaaaaaaaaaaaaaaa###################################aaaaaaaaaaaaaaaaaaaaaaaa#######################.",
"..........############aaaaaaaaaaaaaaaaaaaaaaa###################################aaaaaaaaaaaaaaaaaaaaaaaa#######################.",
"..........############aaaaaaaaaaaaaaaaaaaaaaa###################################aaaaaaaaaaaaaaaaaaaaaaaa#######################.",
"..........############aaaaaaaaaaaaaaaaaaaaaaa###################################aaaaaaaaaaaaaaaaaaaaaaaa#######################.",
"..........#######################aaaaaaaaaaaaaaaaaaaaaaaaaaaaaaaaaaaaaaaaaaaaaaaaaaaaaaaaaaa###################################.",
"..........########################aaaaaaaaaaaaaaaaaaaaaaaaaaaaaaaaaaaaaaaaaaaaaaaaaaaaaaaaaa###################################.",
"..........########################aaaaaaaaaaaaaaaaaaaaaaaaaaaaaaaaaaaaaaaaaaaaaaaaaaaaaaaaaa###################################.",
"..........########################aaaaaaaaaaaaaaaaaaaaaaaaaaaaaaaaaaaaaaaaaaaaaaaaaaaaaaaaaa###################################.",
"..........########################aaaaaaaaaaaaaaaaaaaaaaaaaaaaaaaaaaaaaaaaaaaaaaaaaaaaaaaaaa###################################.",
"..........########################aaaaaaaaaaaaaaaaaaaaaaaaaaaaaaaaaaaaaaaaaaaaaaaaaaaaaaaaaa###################################.",
"..........########################aaaaaaaaaaaaaaaaaaaaaaaaaaaaaaaaaaaaaaaaaaaaaaaaaaaaaaaaaa###################################.",
"..........########################aaaaaaaaaaaaaaaaaaaaaaaaaaaaaaaaaaaaaaaaaaaaaaaaaaaaaaaaaa###################################.",
"..........########################aaaaaaaaaaaaaaaaaaaaaaaaaaaaaaaaaaaaaaaaaaaaaaaaaaaaaaaaaa###################################.",
"..........########################aaaaaaaaaaaaaaaaaaaaaaaaaaaaaaaaaaaaaaaaaaaaaaaaaaaaaaaaaa###################################.",
"..........########################aaaaaaaaaaaaaaaaaaaaaaaaaaaaaaaaaaaaaaaaaaaaaaaaaaaaaaaaaa###################################.",
"..........########################aaaaaaaaaaaaaaaaaaaaaaaaaaaaaaaaaaaaaaaaaaaaaaaaaaaaaaaaaa###################################.",
"......................#########################################################################################################.",
"......................#########################################################################################################.",
"......................#########################################################################################################.",
"......................#########################################################################################################.",
"......................#########################################################################################################.",
"......................#########################################################################################################.",
"......................#########################################################################################################.",
"......................#########################################################################################################.",
"......................#########################################################################################################.",
"......................#########################################################################################################.",
"......................#########################################################################################################.",
"......................#########################################################################################################.",
"..................................##################################################################################............",
"..................................##################################################################################............",
"..................................##################################################################################............",
"..................................##################################################################################............",
"..................................##################################################################################............",
"..................................##################################################################################............",
"..................................##################################################################################............",
"..................................##################################################################################............",
"..................................##################################################################################............",
"..................................##################################################################################............",
"..................................##################################################################################............",
"................................................................................................................................",
"................................................................................................................................",
"................................................................................................................................",
"................................................................................................................................",
"................................................................................................................................",
"................................................................................................................................"};
