/* XPM */
static xpm_row_t const Number6_xpm[] = {
"128 128 3 1",
". c None",
"# c #000000",
"a c #ffffff",
"................................................................................................................................",
"................................................................................................................................",
"................................................................................................................................",
"..................................##########################################################....................................",
"..................................##########################################################....................................",
"..................................##########################################################....................................",
"..................................##########################################################....................................",
"..................................##########################################################....................................",
"..................................##########################################################....................................",
"..................................##########################################################....................................",
"..................................##########################################################....................................",
"..................................##########################################################....................................",
"..................................##########################################################....................................",
"..................................##########################################################....................................",
"..................................##########################################################....................................",
"......................#######################aaaaaaaaaaaaaaaaaaaaaaaaaaaaaaaaaaa########################........................",
"......................#######################aaaaaaaaaaaaaaaaaaaaaaaaaaaaaaaaaaa########################........................",
"......................#######################aaaaaaaaaaaaaaaaaaaaaaaaaaaaaaaaaaa########################........................",
"......................#######################aaaaaaaaaaaaaaaaaaaaaaaaaaaaaaaaaaa########################........................",
"......................#######################aaaaaaaaaaaaaaaaaaaaaaaaaaaaaaaaaaa########################........................",
"......................#######################aaaaaaaaaaaaaaaaaaaaaaaaaaaaaaaaaaa########################........................",
"......................#######################aaaaaaaaaaaaaaaaaaaaaaaaaaaaaaaaaaa########################........................",
"......................#######################aaaaaaaaaaaaaaaaaaaaaaaaaaaaaaaaaaa########################........................",
"......................#######################aaaaaaaaaaaaaaaaaaaaaaaaaaaaaaaaaaa########################........................",
"......................#######################aaaaaaaaaaaaaaaaaaaaaaaaaaaaaaaaaaa########################........................",
"......................#######################aaaaaaaaaaaaaaaaaaaaaaaaaaaaaaaaaaa########################........................",
"......................#######################aaaaaaaaaaaaaaaaaaaaaaaaaaaaaaaaaaa########################........................",
"..........########################aaaaaaaaaaaaaaaaaaaaaaa###############################################........................",
"..........########################aaaaaaaaaaaaaaaaaaaaaaa###############################################........................",
"..........########################aaaaaaaaaaaaaaaaaaaaaaa###############################################........................",
"..........########################aaaaaaaaaaaaaaaaaaaaaaa###############################################........................",
"..........########################aaaaaaaaaaaaaaaaaaaaaaa###############################################........................",
"..........########################aaaaaaaaaaaaaaaaaaaaaaa###############################################........................",
"..........########################aaaaaaaaaaaaaaaaaaaaaaa###############################################........................",
"..........########################aaaaaaaaaaaaaaaaaaaaaaa###############################################........................",
"..........########################aaaaaaaaaaaaaaaaaaaaaaa###############################################........................",
"..........########################aaaaaaaaaaaaaaaaaaaaaaa###############################################........................",
"..........########################aaaaaaaaaaaaaaaaaaaaaaa###############################################........................",
"..........############aaaaaaaaaaaaaaaaaaaaaaaa##########################################################........................",
"..........############aaaaaaaaaaaaaaaaaaaaaaa###########################################################........................",
"..........############aaaaaaaaaaaaaaaaaaaaaaa###########################################################........................",
"..........############aaaaaaaaaaaaaaaaaaaaaaa###########################################################........................",
"..........############aaaaaaaaaaaaaaaaaaaaaaa###########################################################........................",
"..........############aaaaaaaaaaaaaaaaaaaaaaa###########################################################........................",
"..........############aaaaaaaaaaaaaaaaaaaaaaa###########################################################........................",
"..........############aaaaaaaaaaaaaaaaaaaaaaa###########################################################........................",
"..........############aaaaaaaaaaaaaaaaaaaaaaa###########################################################........................",
"..........############aaaaaaaaaaaaaaaaaaaaaaa###########################################################........................",
"..........############aaaaaaaaaaaaaaaaaaaaaaa###########################################################........................",
"..........############aaaaaaaaaaaaaaaaaaaaaaa###########################################################........................",
"..........############aaaaaaaaaaaaaaaaaaaaaaaaaaaaaaaaaaaaaaaaaaaaaaaaaaaaaaaaaaaaaaaaaaaaaa########################............",
"..........############aaaaaaaaaaaaaaaaaaaaaaaaaaaaaaaaaaaaaaaaaaaaaaaaaaaaaaaaaaaaaaaaaaaaaa########################............",
"..........############aaaaaaaaaaaaaaaaaaaaaaaaaaaaaaaaaaaaaaaaaaaaaaaaaaaaaaaaaaaaaaaaaaaaaa########################............",
"..........############aaaaaaaaaaaaaaaaaaaaaaaaaaaaaaaaaaaaaaaaaaaaaaaaaaaaaaaaaaaaaaaaaaaaaa########################............",
"..........############aaaaaaaaaaaaaaaaaaaaaaaaaaaaaaaaaaaaaaaaaaaaaaaaaaaaaaaaaaaaaaaaaaaaaa########################............",
"..........############aaaaaaaaaaaaaaaaaaaaaaaaaaaaaaaaaaaaaaaaaaaaaaaaaaaaaaaaaaaaaaaaaaaaaa########################............",
"..........############aaaaaaaaaaaaaaaaaaaaaaaaaaaaaaaaaaaaaaaaaaaaaaaaaaaaaaaaaaaaaaaaaaaaaa########################............",
"..........############aaaaaaaaaaaaaaaaaaaaaaaaaaaaaaaaaaaaaaaaaaaaaaaaaaaaaaaaaaaaaaaaaaaaaa########################............",
"..........############aaaaaaaaaaaaaaaaaaaaaaaaaaaaaaaaaaaaaaaaaaaaaaaaaaaaaaaaaaaaaaaaaaaaaa########################............",
"..........############aaaaaaaaaaaaaaaaaaaaaaaaaaaaaaaaaaaaaaaaaaaaaaaaaaaaaaaaaaaaaaaaaaaaaa########################............",
"..........############aaaaaaaaaaaaaaaaaaaaaaaaaaaaaaaaaaaaaaaaaaaaaaaaaaaaaaaaaaaaaaaaaaaaaa########################............",
"..........############aaaaaaaaaaaaaaaaaaaaaaaaaaaaaaaaaaaaaaaaaaaaaaaaaaaaaaaaaaaaaaaaaaaaaa########################............",
"..........############aaaaaaaaaaaaaaaaaaaaaaa###################################aaaaaaaaaaaaaaaaaaaaaaaa#######################.",
"..........############aaaaaaaaaaaaaaaaaaaaaaa###################################aaaaaaaaaaaaaaaaaaaaaaaa#######################.",
"..........############aaaaaaaaaaaaaaaaaaaaaaa###################################aaaaaaaaaaaaaaaaaaaaaaaa#######################.",
"..........############aaaaaaaaaaaaaaaaaaaaaaa###################################aaaaaaaaaaaaaaaaaaaaaaaa#######################.",
"..........############aaaaaaaaaaaaaaaaaaaaaaa###################################aaaaaaaaaaaaaaaaaaaaaaaa#######################.",
"..........############aaaaaaaaaaaaaaaaaaaaaaa###################################aaaaaaaaaaaaaaaaaaaaaaaa#######################.",
"..........############aaaaaaaaaaaaaaaaaaaaaaa###################################aaaaaaaaaaaaaaaaaaaaaaaa#######################.",
"..........############aaaaaaaaaaaaaaaaaaaaaaa###################################aaaaaaaaaaaaaaaaaaaaaaaa#######################.",
"..........############aaaaaaaaaaaaaaaaaaaaaaa###################################aaaaaaaaaaaaaaaaaaaaaaaa#######################.",
"..........############aaaaaaaaaaaaaaaaaaaaaaa###################################aaaaaaaaaaaaaaaaaaaaaaaa#######################.",
"..........############aaaaaaaaaaaaaaaaaaaaaaa###################################aaaaaaaaaaaaaaaaaaaaaaaa#######################.",
"..........############aaaaaaaaaaaaaaaaaaaaaaa###################################aaaaaaaaaaaaaaaaaaaaaaaa#######################.",
"..........############aaaaaaaaaaaaaaaaaaaaaaa###################################aaaaaaaaaaaaaaaaaaaaaaaa#######################.",
"..........############aaaaaaaaaaaaaaaaaaaaaaa###################################aaaaaaaaaaaaaaaaaaaaaaaa#######################.",
"..........############aaaaaaaaaaaaaaaaaaaaaaa###################################aaaaaaaaaaaaaaaaaaaaaaaa#######################.",
"..........############aaaaaaaaaaaaaaaaaaaaaaa###################################aaaaaaaaaaaaaaaaaaaaaaaa#######################.",
"..........############aaaaaaaaaaaaaaaaaaaaaaa###################################aaaaaaaaaaaaaaaaaaaaaaaa#######################.",
"..........############aaaaaaaaaaaaaaaaaaaaaaa###################################aaaaaaaaaaaaaaaaaaaaaaaa#######################.",
"..........############aaaaaaaaaaaaaaaaaaaaaaa###################################aaaaaaaaaaaaaaaaaaaaaaaa#######################.",
"..........############aaaaaaaaaaaaaaaaaaaaaaa###################################aaaaaaaaaaaaaaaaaaaaaaaa#######################.",
"..........############aaaaaaaaaaaaaaaaaaaaaaa###################################aaaaaaaaaaaaaaaaaaaaaaaa#######################.",
"..........############aaaaaaaaaaaaaaaaaaaaaaa###################################aaaaaaaaaaaaaaaaaaaaaaaa#######################.",
"..........############aaaaaaaaaaaaaaaaaaaaaaa###################################aaaaaaaaaaaaaaaaaaaaaaaa#######################.",
"..........#######################aaaaaaaaaaaaaaaaaaaaaaaaaaaaaaaaaaaaaaaaaaaaaaaaaaaaaaaaaaa###################################.",
"..........########################aaaaaaaaaaaaaaaaaaaaaaaaaaaaaaaaaaaaaaaaaaaaaaaaaaaaaaaaaa###################################.",
"..........########################aaaaaaaaaaaaaaaaaaaaaaaaaaaaaaaaaaaaaaaaaaaaaaaaaaaaaaaaaa###################################.",
"..........########################aaaaaaaaaaaaaaaaaaaaaaaaaaaaaaaaaaaaaaaaaaaaaaaaaaaaaaaaaa###################################.",
"..........########################aaaaaaaaaaaaaaaaaaaaaaaaaaaaaaaaaaaaaaaaaaaaaaaaaaaaaaaaaa###################################.",
"..........########################aaaaaaaaaaaaaaaaaaaaaaaaaaaaaaaaaaaaaaaaaaaaaaaaaaaaaaaaaa###################################.",
"..........########################aaaaaaaaaaaaaaaaaaaaaaaaaaaaaaaaaaaaaaaaaaaaaaaaaaaaaaaaaa###################################.",
"..........########################aaaaaaaaaaaaaaaaaaaaaaaaaaaaaaaaaaaaaaaaaaaaaaaaaaaaaaaaaa###################################.",
"..........########################aaaaaaaaaaaaaaaaaaaaaaaaaaaaaaaaaaaaaaaaaaaaaaaaaaaaaaaaaa###################################.",
"..........########################aaaaaaaaaaaaaaaaaaaaaaaaaaaaaaaaaaaaaaaaaaaaaaaaaaaaaaaaaa###################################.",
"..........########################aaaaaaaaaaaaaaaaaaaaaaaaaaaaaaaaaaaaaaaaaaaaaaaaaaaaaaaaaa###################################.",
"..........########################aaaaaaaaaaaaaaaaaaaaaaaaaaaaaaaaaaaaaaaaaaaaaaaaaaaaaaaaaa###################################.",
"......................#########################################################################################################.",
"......................#########################################################################################################.",
"......................#########################################################################################################.",
"......................#########################################################################################################.",
"......................#########################################################################################################.",
"......................#########################################################################################################.",
"......................#########################################################################################################.",
"......................#########################################################################################################.",
"......................#########################################################################################################.",
"......................#########################################################################################################.",
"......................#########################################################################################################.",
"......................#########################################################################################################.",
"..................................##################################################################################............",
"..................................##################################################################################............",
"..................................##################################################################################............",
"..................................##################################################################################............",
"..................................##################################################################################............",
"..................................##################################################################################............",
"..................................##################################################################################............",
"..................................##################################################################################............",
"..................................##################################################################################............",
"..................................##################################################################################............",
"..................................##################################################################################............",
"................................................................................................................................",
"................................................................................................................................",
"................................................................................................................................",
"................................................................................................................................",
"................................................................................................................................",
"................................................................................................................................",
"................................................................................................................................",
"................................................................................................................................"};
