/* XPM */
static xpm_row_t const Number3_xpm[] = {
"128 128 3 1",
". c None",
"# c #000000",
"a c #ffffff",
"................................................................................................................................",
"................................................................................................................................",
"................................................................................................................................",
"................................................................................................................................",
".......................##################################################################################.......................",
".......................##################################################################################.......................",
".......................##################################################################################.......................",
".......................##################################################################################.......................",
".......................##################################################################################.......................",
".......................##################################################################################.......................",
".......................##################################################################################.......................",
".......................##################################################################################.......................",
".......................##################################################################################.......................",
".......................##################################################################################.......................",
".......................##################################################################################.......................",
".......................##################################################################################.......................",
"...........########################aaaaaaaaaaaaaaaaaaaaaaaaaaaaaaaaaaaaaaaaaaaaaaaaaaaaaaaaaa########################...........",
"...........########################aaaaaaaaaaaaaaaaaaaaaaaaaaaaaaaaaaaaaaaaaaaaaaaaaaaaaaaaaa########################...........",
"...........########################aaaaaaaaaaaaaaaaaaaaaaaaaaaaaaaaaaaaaaaaaaaaaaaaaaaaaaaaaa########################...........",
"...........########################aaaaaaaaaaaaaaaaaaaaaaaaaaaaaaaaaaaaaaaaaaaaaaaaaaaaaaaaaa########################...........",
"...........########################aaaaaaaaaaaaaaaaaaaaaaaaaaaaaaaaaaaaaaaaaaaaaaaaaaaaaaaaaa########################...........",
"...........########################aaaaaaaaaaaaaaaaaaaaaaaaaaaaaaaaaaaaaaaaaaaaaaaaaaaaaaaaaa########################...........",
"...........########################aaaaaaaaaaaaaaaaaaaaaaaaaaaaaaaaaaaaaaaaaaaaaaaaaaaaaaaaaa########################...........",
"...........########################aaaaaaaaaaaaaaaaaaaaaaaaaaaaaaaaaaaaaaaaaaaaaaaaaaaaaaaaaa########################...........",
"...........########################aaaaaaaaaaaaaaaaaaaaaaaaaaaaaaaaaaaaaaaaaaaaaaaaaaaaaaaaaa########################...........",
"...........########################aaaaaaaaaaaaaaaaaaaaaaaaaaaaaaaaaaaaaaaaaaaaaaaaaaaaaaaaaa########################...........",
"...........########################aaaaaaaaaaaaaaaaaaaaaaaaaaaaaaaaaaaaaaaaaaaaaaaaaaaaaaaaaa########################...........",
"...........#######################aaaaaaaaaaaaaaaaaaaaaaaaaaaaaaaaaaaaaaaaaaaaaaaaaaaaaaaaaaa########################...........",
"...........############aaaaaaaaaaaaaaaaaaaaaaa###################################aaaaaaaaaaaaaaaaaaaaaaaa#######################",
"...........############aaaaaaaaaaaaaaaaaaaaaaa###################################aaaaaaaaaaaaaaaaaaaaaaaa#######################",
"...........############aaaaaaaaaaaaaaaaaaaaaaa###################################aaaaaaaaaaaaaaaaaaaaaaaa#######################",
"...........############aaaaaaaaaaaaaaaaaaaaaaa###################################aaaaaaaaaaaaaaaaaaaaaaaa#######################",
"...........############aaaaaaaaaaaaaaaaaaaaaaa###################################aaaaaaaaaaaaaaaaaaaaaaaa#######################",
"...........############aaaaaaaaaaaaaaaaaaaaaaa###################################aaaaaaaaaaaaaaaaaaaaaaaa#######################",
"...........############aaaaaaaaaaaaaaaaaaaaaaa###################################aaaaaaaaaaaaaaaaaaaaaaaa#######################",
"...........############aaaaaaaaaaaaaaaaaaaaaaa###################################aaaaaaaaaaaaaaaaaaaaaaaa#######################",
"...........############aaaaaaaaaaaaaaaaaaaaaaa###################################aaaaaaaaaaaaaaaaaaaaaaaa#######################",
"...........############aaaaaaaaaaaaaaaaaaaaaaa###################################aaaaaaaaaaaaaaaaaaaaaaaa#######################",
"...........############aaaaaaaaaaaaaaaaaaaaaaa###################################aaaaaaaaaaaaaaaaaaaaaaaa#######################",
"...........######################################################################aaaaaaaaaaaaaaaaaaaaaaaa#######################",
"...........######################################################################aaaaaaaaaaaaaaaaaaaaaaaa#######################",
"...........######################################################################aaaaaaaaaaaaaaaaaaaaaaaa#######################",
"...........######################################################################aaaaaaaaaaaaaaaaaaaaaaaa#######################",
"...........######################################################################aaaaaaaaaaaaaaaaaaaaaaaa#######################",
"...........######################################################################aaaaaaaaaaaaaaaaaaaaaaaa#######################",
"...........######################################################################aaaaaaaaaaaaaaaaaaaaaaaa#######################",
"...........######################################################################aaaaaaaaaaaaaaaaaaaaaaaa#######################",
"...........######################################################################aaaaaaaaaaaaaaaaaaaaaaaa#######################",
"...........######################################################################aaaaaaaaaaaaaaaaaaaaaaaa#######################",
"...........######################################################################aaaaaaaaaaaaaaaaaaaaaaaa#######################",
"...........######################################################################aaaaaaaaaaaaaaaaaaaaaaaa#######################",
".......................###################################aaaaaaaaaaaaaaaaaaaaaaaaaaaaaaaaaaa###################################",
".......................###################################aaaaaaaaaaaaaaaaaaaaaaaaaaaaaaaaaaa###################################",
".......................###################################aaaaaaaaaaaaaaaaaaaaaaaaaaaaaaaaaaa###################################",
".......................###################################aaaaaaaaaaaaaaaaaaaaaaaaaaaaaaaaaaa###################################",
".......................###################################aaaaaaaaaaaaaaaaaaaaaaaaaaaaaaaaaaa###################################",
".......................###################################aaaaaaaaaaaaaaaaaaaaaaaaaaaaaaaaaaa###################################",
".......................###################################aaaaaaaaaaaaaaaaaaaaaaaaaaaaaaaaaaa###################################",
".......................###################################aaaaaaaaaaaaaaaaaaaaaaaaaaaaaaaaaaa###################################",
".......................###################################aaaaaaaaaaaaaaaaaaaaaaaaaaaaaaaaaaa###################################",
".......................###################################aaaaaaaaaaaaaaaaaaaaaaaaaaaaaaaaaaa###################################",
".......................###################################aaaaaaaaaaaaaaaaaaaaaaaaaaaaaaaaaaa###################################",
".......................###################################aaaaaaaaaaaaaaaaaaaaaaaaaaaaaaaaaaa###################################",
"...........######################################################################aaaaaaaaaaaaaaaaaaaaaaaa#######################",
"...........######################################################################aaaaaaaaaaaaaaaaaaaaaaaa#######################",
"...........######################################################################aaaaaaaaaaaaaaaaaaaaaaaa#######################",
"...........######################################################################aaaaaaaaaaaaaaaaaaaaaaaa#######################",
"...........######################################################################aaaaaaaaaaaaaaaaaaaaaaaa#######################",
"...........######################################################################aaaaaaaaaaaaaaaaaaaaaaaa#######################",
"...........######################################################################aaaaaaaaaaaaaaaaaaaaaaaa#######################",
"...........######################################################################aaaaaaaaaaaaaaaaaaaaaaaa#######################",
"...........######################################################################aaaaaaaaaaaaaaaaaaaaaaaa#######################",
"...........######################################################################aaaaaaaaaaaaaaaaaaaaaaaa#######################",
"...........######################################################################aaaaaaaaaaaaaaaaaaaaaaaa#######################",
"...........######################################################################aaaaaaaaaaaaaaaaaaaaaaaa#######################",
"...........############aaaaaaaaaaaaaaaaaaaaaaa###################################aaaaaaaaaaaaaaaaaaaaaaaa#######################",
"...........############aaaaaaaaaaaaaaaaaaaaaaa###################################aaaaaaaaaaaaaaaaaaaaaaaa#######################",
"...........############aaaaaaaaaaaaaaaaaaaaaaa###################################aaaaaaaaaaaaaaaaaaaaaaaa#######################",
"...........############aaaaaaaaaaaaaaaaaaaaaaa###################################aaaaaaaaaaaaaaaaaaaaaaaa#######################",
"...........############aaaaaaaaaaaaaaaaaaaaaaa###################################aaaaaaaaaaaaaaaaaaaaaaaa#######################",
"...........############aaaaaaaaaaaaaaaaaaaaaaa###################################aaaaaaaaaaaaaaaaaaaaaaaa#######################",
"...........############aaaaaaaaaaaaaaaaaaaaaaa###################################aaaaaaaaaaaaaaaaaaaaaaaa#######################",
"...........############aaaaaaaaaaaaaaaaaaaaaaa###################################aaaaaaaaaaaaaaaaaaaaaaaa#######################",
"...........############aaaaaaaaaaaaaaaaaaaaaaa###################################aaaaaaaaaaaaaaaaaaaaaaaa#######################",
"...........############aaaaaaaaaaaaaaaaaaaaaaa###################################aaaaaaaaaaaaaaaaaaaaaaaa#######################",
"...........############aaaaaaaaaaaaaaaaaaaaaaa###################################aaaaaaaaaaaaaaaaaaaaaaaa#######################",
"...........#######################aaaaaaaaaaaaaaaaaaaaaaaaaaaaaaaaaaaaaaaaaaaaaaaaaaaaaaaaaaa###################################",
"...........########################aaaaaaaaaaaaaaaaaaaaaaaaaaaaaaaaaaaaaaaaaaaaaaaaaaaaaaaaaa###################################",
"...........########################aaaaaaaaaaaaaaaaaaaaaaaaaaaaaaaaaaaaaaaaaaaaaaaaaaaaaaaaaa###################################",
"...........########################aaaaaaaaaaaaaaaaaaaaaaaaaaaaaaaaaaaaaaaaaaaaaaaaaaaaaaaaaa###################################",
"...........########################aaaaaaaaaaaaaaaaaaaaaaaaaaaaaaaaaaaaaaaaaaaaaaaaaaaaaaaaaa###################################",
"...........########################aaaaaaaaaaaaaaaaaaaaaaaaaaaaaaaaaaaaaaaaaaaaaaaaaaaaaaaaaa###################################",
"...........########################aaaaaaaaaaaaaaaaaaaaaaaaaaaaaaaaaaaaaaaaaaaaaaaaaaaaaaaaaa###################################",
"...........########################aaaaaaaaaaaaaaaaaaaaaaaaaaaaaaaaaaaaaaaaaaaaaaaaaaaaaaaaaa###################################",
"...........########################aaaaaaaaaaaaaaaaaaaaaaaaaaaaaaaaaaaaaaaaaaaaaaaaaaaaaaaaaa###################################",
"...........########################aaaaaaaaaaaaaaaaaaaaaaaaaaaaaaaaaaaaaaaaaaaaaaaaaaaaaaaaaa###################################",
"...........########################aaaaaaaaaaaaaaaaaaaaaaaaaaaaaaaaaaaaaaaaaaaaaaaaaaaaaaaaaa###################################",
"...........########################aaaaaaaaaaaaaaaaaaaaaaaaaaaaaaaaaaaaaaaaaaaaaaaaaaaaaaaaaa###################################",
".......................#########################################################################################################",
".......................#########################################################################################################",
".......................#########################################################################################################",
".......................#########################################################################################################",
".......................#########################################################################################################",
".......................#########################################################################################################",
".......................#########################################################################################################",
".......................#########################################################################################################",
".......................#########################################################################################################",
".......................#########################################################################################################",
".......................#########################################################################################################",
".......................#########################################################################################################",
"...................................##################################################################################...........",
"...................................##################################################################################...........",
"...................................##################################################################################...........",
"...................................##################################################################################...........",
"...................................##################################################################################...........",
"...................................##################################################################################...........",
"...................................##################################################################################...........",
"...................................##################################################################################...........",
"...................................##################################################################################...........",
"...................................##################################################################################...........",
"...................................##################################################################################...........",
"................................................................................................................................",
"................................................................................................................................",
"................................................................................................................................",
"................................................................................................................................",
"................................................................................................................................",
"................................................................................................................................",
"................................................................................................................................"};
