/* XPM */
static xpm_row_t const Number4_xpm[] = {
"128 128 3 1",
". c None",
"# c #000000",
"a c #ffffff",
"................................................................................................................................",
"................................................................................................................................",
"................................................................................................................................",
"................................................................................................................................",
".......................................................###############################################..........................",
".......................................................###############################################..........................",
".......................................................###############################################..........................",
".......................................................###############################################..........................",
".......................................................###############################################..........................",
".......................................................###############################################..........................",
".......................................................###############################################..........................",
".......................................................###############################################..........................",
".......................................................###############################################..........................",
".......................................................###############################################..........................",
".......................................................###############################################..........................",
".......................................................###############################################..........................",
"...........................................########################aaaaaaaaaaaaaaaaaaaaaaa########################..............",
"...........................................########################aaaaaaaaaaaaaaaaaaaaaaa########################..............",
"...........................................########################aaaaaaaaaaaaaaaaaaaaaaa########################..............",
"...........................................########################aaaaaaaaaaaaaaaaaaaaaaa########################..............",
"...........................................########################aaaaaaaaaaaaaaaaaaaaaaa########################..............",
"...........................................########################aaaaaaaaaaaaaaaaaaaaaaa########################..............",
"...........................................########################aaaaaaaaaaaaaaaaaaaaaaa########################..............",
"...........................................########################aaaaaaaaaaaaaaaaaaaaaaa########################..............",
"...........................................########################aaaaaaaaaaaaaaaaaaaaaaa########################..............",
"...........................................########################aaaaaaaaaaaaaaaaaaaaaaa########################..............",
"...........................................########################aaaaaaaaaaaaaaaaaaaaaaa########################..............",
"...........................................#######################aaaaaaaaaaaaaaaaaaaaaaaa########################..............",
"................................#######################aaaaaaaaaaaaaaaaaaaaaaaaaaaaaaaaaaa########################..............",
"................................#######################aaaaaaaaaaaaaaaaaaaaaaaaaaaaaaaaaaa########################..............",
"................................#######################aaaaaaaaaaaaaaaaaaaaaaaaaaaaaaaaaaa########################..............",
"................................#######################aaaaaaaaaaaaaaaaaaaaaaaaaaaaaaaaaaa########################..............",
"................................#######################aaaaaaaaaaaaaaaaaaaaaaaaaaaaaaaaaaa########################..............",
"................................#######################aaaaaaaaaaaaaaaaaaaaaaaaaaaaaaaaaaa########################..............",
"................................#######################aaaaaaaaaaaaaaaaaaaaaaaaaaaaaaaaaaa########################..............",
"................................#######################aaaaaaaaaaaaaaaaaaaaaaaaaaaaaaaaaaa########################..............",
"................................#######################aaaaaaaaaaaaaaaaaaaaaaaaaaaaaaaaaaa########################..............",
"................................#######################aaaaaaaaaaaaaaaaaaaaaaaaaaaaaaaaaaa########################..............",
"................................#######################aaaaaaaaaaaaaaaaaaaaaaaaaaaaaaaaaaa########################..............",
"....................########################aaaaaaaaaaaaaaaaaaaaaaaaaaaaaaaaaaaaaaaaaaaaaa########################..............",
"....................#######################aaaaaaaaaaaaaaaaaaaaaaaaaaaaaaaaaaaaaaaaaaaaaaa########################..............",
"....................#######################aaaaaaaaaaaaaaaaaaaaaaaaaaaaaaaaaaaaaaaaaaaaaaa########################..............",
"....................#######################aaaaaaaaaaaaaaaaaaaaaaaaaaaaaaaaaaaaaaaaaaaaaaa########################..............",
"....................#######################aaaaaaaaaaaaaaaaaaaaaaaaaaaaaaaaaaaaaaaaaaaaaaa########################..............",
"....................#######################aaaaaaaaaaaaaaaaaaaaaaaaaaaaaaaaaaaaaaaaaaaaaaa########################..............",
"....................#######################aaaaaaaaaaaaaaaaaaaaaaaaaaaaaaaaaaaaaaaaaaaaaaa########################..............",
"....................#######################aaaaaaaaaaaaaaaaaaaaaaaaaaaaaaaaaaaaaaaaaaaaaaa########################..............",
"....................#######################aaaaaaaaaaaaaaaaaaaaaaaaaaaaaaaaaaaaaaaaaaaaaaa########################..............",
"....................#######################aaaaaaaaaaaaaaaaaaaaaaaaaaaaaaaaaaaaaaaaaaaaaaa########################..............",
"....................#######################aaaaaaaaaaaaaaaaaaaaaaaaaaaaaaaaaaaaaaaaaaaaaaa########################..............",
"....................#######################aaaaaaaaaaaaaaaaaaaaaaaaaaaaaaaaaaaaaaaaaaaaaaa########################..............",
"........########################aaaaaaaaaaaaaaaaaaaaaaa############aaaaaaaaaaaaaaaaaaaaaaa########################..............",
"........########################aaaaaaaaaaaaaaaaaaaaaaa############aaaaaaaaaaaaaaaaaaaaaaa########################..............",
"........########################aaaaaaaaaaaaaaaaaaaaaaa############aaaaaaaaaaaaaaaaaaaaaaa########################..............",
"........########################aaaaaaaaaaaaaaaaaaaaaaa############aaaaaaaaaaaaaaaaaaaaaaa########################..............",
"........########################aaaaaaaaaaaaaaaaaaaaaaa############aaaaaaaaaaaaaaaaaaaaaaa########################..............",
"........########################aaaaaaaaaaaaaaaaaaaaaaa############aaaaaaaaaaaaaaaaaaaaaaa########################..............",
"........########################aaaaaaaaaaaaaaaaaaaaaaa############aaaaaaaaaaaaaaaaaaaaaaa########################..............",
"........########################aaaaaaaaaaaaaaaaaaaaaaa############aaaaaaaaaaaaaaaaaaaaaaa########################..............",
"........########################aaaaaaaaaaaaaaaaaaaaaaa############aaaaaaaaaaaaaaaaaaaaaaa########################..............",
"........########################aaaaaaaaaaaaaaaaaaaaaaa############aaaaaaaaaaaaaaaaaaaaaaa########################..............",
"........########################aaaaaaaaaaaaaaaaaaaaaaa############aaaaaaaaaaaaaaaaaaaaaaa########################..............",
"........########################aaaaaaaaaaaaaaaaaaaaaaa############aaaaaaaaaaaaaaaaaaaaaaa########################..............",
"........############aaaaaaaaaaaaaaaaaaaaaaa########################aaaaaaaaaaaaaaaaaaaaaaa########################..............",
"........############aaaaaaaaaaaaaaaaaaaaaaa########################aaaaaaaaaaaaaaaaaaaaaaa########################..............",
"........############aaaaaaaaaaaaaaaaaaaaaaa########################aaaaaaaaaaaaaaaaaaaaaaa########################..............",
"........############aaaaaaaaaaaaaaaaaaaaaaa########################aaaaaaaaaaaaaaaaaaaaaaa########################..............",
"........############aaaaaaaaaaaaaaaaaaaaaaa########################aaaaaaaaaaaaaaaaaaaaaaa########################..............",
"........############aaaaaaaaaaaaaaaaaaaaaaa########################aaaaaaaaaaaaaaaaaaaaaaa########################..............",
"........############aaaaaaaaaaaaaaaaaaaaaaa########################aaaaaaaaaaaaaaaaaaaaaaa########################..............",
"........############aaaaaaaaaaaaaaaaaaaaaaa########################aaaaaaaaaaaaaaaaaaaaaaa########################..............",
"........############aaaaaaaaaaaaaaaaaaaaaaa########################aaaaaaaaaaaaaaaaaaaaaaa########################..............",
"........############aaaaaaaaaaaaaaaaaaaaaaa########################aaaaaaaaaaaaaaaaaaaaaaa########################..............",
"........############aaaaaaaaaaaaaaaaaaaaaaa########################aaaaaaaaaaaaaaaaaaaaaaa########################..............",
"........############aaaaaaaaaaaaaaaaaaaaaaaa######################aaaaaaaaaaaaaaaaaaaaaaaa########################..............",
"........############aaaaaaaaaaaaaaaaaaaaaaaaaaaaaaaaaaaaaaaaaaaaaaaaaaaaaaaaaaaaaaaaaaaaaaaaaaaaaaaaaa#######################...",
"........############aaaaaaaaaaaaaaaaaaaaaaaaaaaaaaaaaaaaaaaaaaaaaaaaaaaaaaaaaaaaaaaaaaaaaaaaaaaaaaaaaa#######################...",
"........############aaaaaaaaaaaaaaaaaaaaaaaaaaaaaaaaaaaaaaaaaaaaaaaaaaaaaaaaaaaaaaaaaaaaaaaaaaaaaaaaaa#######################...",
"........############aaaaaaaaaaaaaaaaaaaaaaaaaaaaaaaaaaaaaaaaaaaaaaaaaaaaaaaaaaaaaaaaaaaaaaaaaaaaaaaaaa#######################...",
"........############aaaaaaaaaaaaaaaaaaaaaaaaaaaaaaaaaaaaaaaaaaaaaaaaaaaaaaaaaaaaaaaaaaaaaaaaaaaaaaaaaa#######################...",
"........############aaaaaaaaaaaaaaaaaaaaaaaaaaaaaaaaaaaaaaaaaaaaaaaaaaaaaaaaaaaaaaaaaaaaaaaaaaaaaaaaaa#######################...",
"........############aaaaaaaaaaaaaaaaaaaaaaaaaaaaaaaaaaaaaaaaaaaaaaaaaaaaaaaaaaaaaaaaaaaaaaaaaaaaaaaaaa#######################...",
"........############aaaaaaaaaaaaaaaaaaaaaaaaaaaaaaaaaaaaaaaaaaaaaaaaaaaaaaaaaaaaaaaaaaaaaaaaaaaaaaaaaa#######################...",
"........############aaaaaaaaaaaaaaaaaaaaaaaaaaaaaaaaaaaaaaaaaaaaaaaaaaaaaaaaaaaaaaaaaaaaaaaaaaaaaaaaaa#######################...",
"........############aaaaaaaaaaaaaaaaaaaaaaaaaaaaaaaaaaaaaaaaaaaaaaaaaaaaaaaaaaaaaaaaaaaaaaaaaaaaaaaaaa#######################...",
"........############aaaaaaaaaaaaaaaaaaaaaaaaaaaaaaaaaaaaaaaaaaaaaaaaaaaaaaaaaaaaaaaaaaaaaaaaaaaaaaaaaa#######################...",
"........##########################################################aaaaaaaaaaaaaaaaaaaaaaaa###################################...",
"........###########################################################aaaaaaaaaaaaaaaaaaaaaaa###################################...",
"........###########################################################aaaaaaaaaaaaaaaaaaaaaaa###################################...",
"........###########################################################aaaaaaaaaaaaaaaaaaaaaaa###################################...",
"........###########################################################aaaaaaaaaaaaaaaaaaaaaaa###################################...",
"........###########################################################aaaaaaaaaaaaaaaaaaaaaaa###################################...",
"........###########################################################aaaaaaaaaaaaaaaaaaaaaaa###################################...",
"........###########################################################aaaaaaaaaaaaaaaaaaaaaaa###################################...",
"........###########################################################aaaaaaaaaaaaaaaaaaaaaaa###################################...",
"........###########################################################aaaaaaaaaaaaaaaaaaaaaaa###################################...",
"........###########################################################aaaaaaaaaaaaaaaaaaaaaaa###################################...",
"........###########################################################aaaaaaaaaaaaaaaaaaaaaaa###################################...",
"....................#########################################################################################################...",
"....................#########################################################################################################...",
"....................#########################################################################################################...",
"....................#########################################################################################################...",
"....................#########################################################################################################...",
"....................#########################################################################################################...",
"....................#########################################################################################################...",
"....................#########################################################################################################...",
"....................#########################################################################################################...",
"....................#########################################################################################################...",
"....................#########################################################################################################...",
"....................#########################################################################################################...",
"...................................................................###############################################..............",
"...................................................................###############################################..............",
"...................................................................###############################################..............",
"...................................................................###############################################..............",
"...................................................................###############################################..............",
"...................................................................###############################################..............",
"...................................................................###############################################..............",
"...................................................................###############################################..............",
"...................................................................###############################################..............",
"...................................................................###############################################..............",
"...................................................................###############################################..............",
"................................................................................................................................",
"................................................................................................................................",
"................................................................................................................................",
"................................................................................................................................",
"................................................................................................................................",
"................................................................................................................................",
"................................................................................................................................"};
