/* XPM */
static xpm_row_t const Number0_xpm[] = {
"128 128 3 1",
". c None",
"# c #000000",
"a c #ffffff",
"................................................................................................................................",
"................................................................................................................................",
"................................................................................................................................",
"...................##################################################################################...........................",
"...................##################################################################################...........................",
"...................##################################################################################...........................",
"...................##################################################################################...........................",
"...................##################################################################################...........................",
"...................##################################################################################...........................",
"...................##################################################################################...........................",
"...................##################################################################################...........................",
"...................##################################################################################...........................",
"...................##################################################################################...........................",
"...................##################################################################################...........................",
"...................##################################################################################...........................",
".......########################aaaaaaaaaaaaaaaaaaaaaaaaaaaaaaaaaaaaaaaaaaaaaaaaaaaaaaaaaa########################...............",
".......########################aaaaaaaaaaaaaaaaaaaaaaaaaaaaaaaaaaaaaaaaaaaaaaaaaaaaaaaaaa########################...............",
".......########################aaaaaaaaaaaaaaaaaaaaaaaaaaaaaaaaaaaaaaaaaaaaaaaaaaaaaaaaaa########################...............",
".......########################aaaaaaaaaaaaaaaaaaaaaaaaaaaaaaaaaaaaaaaaaaaaaaaaaaaaaaaaaa########################...............",
".......########################aaaaaaaaaaaaaaaaaaaaaaaaaaaaaaaaaaaaaaaaaaaaaaaaaaaaaaaaaa########################...............",
".......########################aaaaaaaaaaaaaaaaaaaaaaaaaaaaaaaaaaaaaaaaaaaaaaaaaaaaaaaaaa########################...............",
".......########################aaaaaaaaaaaaaaaaaaaaaaaaaaaaaaaaaaaaaaaaaaaaaaaaaaaaaaaaaa########################...............",
".......########################aaaaaaaaaaaaaaaaaaaaaaaaaaaaaaaaaaaaaaaaaaaaaaaaaaaaaaaaaa########################...............",
".......########################aaaaaaaaaaaaaaaaaaaaaaaaaaaaaaaaaaaaaaaaaaaaaaaaaaaaaaaaaa########################...............",
".......########################aaaaaaaaaaaaaaaaaaaaaaaaaaaaaaaaaaaaaaaaaaaaaaaaaaaaaaaaaa########################...............",
".......########################aaaaaaaaaaaaaaaaaaaaaaaaaaaaaaaaaaaaaaaaaaaaaaaaaaaaaaaaaa########################...............",
".......#######################aaaaaaaaaaaaaaaaaaaaaaaaaaaaaaaaaaaaaaaaaaaaaaaaaaaaaaaaaaa########################...............",
".......############aaaaaaaaaaaaaaaaaaaaaaa###################################aaaaaaaaaaaaaaaaaaaaaaaa#######################....",
".......############aaaaaaaaaaaaaaaaaaaaaaa###################################aaaaaaaaaaaaaaaaaaaaaaaa#######################....",
".......############aaaaaaaaaaaaaaaaaaaaaaa###################################aaaaaaaaaaaaaaaaaaaaaaaa#######################....",
".......############aaaaaaaaaaaaaaaaaaaaaaa###################################aaaaaaaaaaaaaaaaaaaaaaaa#######################....",
".......############aaaaaaaaaaaaaaaaaaaaaaa###################################aaaaaaaaaaaaaaaaaaaaaaaa#######################....",
".......############aaaaaaaaaaaaaaaaaaaaaaa###################################aaaaaaaaaaaaaaaaaaaaaaaa#######################....",
".......############aaaaaaaaaaaaaaaaaaaaaaa###################################aaaaaaaaaaaaaaaaaaaaaaaa#######################....",
".......############aaaaaaaaaaaaaaaaaaaaaaa###################################aaaaaaaaaaaaaaaaaaaaaaaa#######################....",
".......############aaaaaaaaaaaaaaaaaaaaaaa###################################aaaaaaaaaaaaaaaaaaaaaaaa#######################....",
".......############aaaaaaaaaaaaaaaaaaaaaaa###################################aaaaaaaaaaaaaaaaaaaaaaaa#######################....",
".......############aaaaaaaaaaaaaaaaaaaaaaa###################################aaaaaaaaaaaaaaaaaaaaaaaa#######################....",
".......############aaaaaaaaaaaaaaaaaaaaaaa########################aaaaaaaaaaaaaaaaaaaaaaaaaaaaaaaaaaa#######################....",
".......############aaaaaaaaaaaaaaaaaaaaaaa########################aaaaaaaaaaaaaaaaaaaaaaaaaaaaaaaaaaa#######################....",
".......############aaaaaaaaaaaaaaaaaaaaaaa########################aaaaaaaaaaaaaaaaaaaaaaaaaaaaaaaaaaa#######################....",
".......############aaaaaaaaaaaaaaaaaaaaaaa########################aaaaaaaaaaaaaaaaaaaaaaaaaaaaaaaaaaa#######################....",
".......############aaaaaaaaaaaaaaaaaaaaaaa########################aaaaaaaaaaaaaaaaaaaaaaaaaaaaaaaaaaa#######################....",
".......############aaaaaaaaaaaaaaaaaaaaaaa########################aaaaaaaaaaaaaaaaaaaaaaaaaaaaaaaaaaa#######################....",
".......############aaaaaaaaaaaaaaaaaaaaaaa########################aaaaaaaaaaaaaaaaaaaaaaaaaaaaaaaaaaa#######################....",
".......############aaaaaaaaaaaaaaaaaaaaaaa########################aaaaaaaaaaaaaaaaaaaaaaaaaaaaaaaaaaa#######################....",
".......############aaaaaaaaaaaaaaaaaaaaaaa########################aaaaaaaaaaaaaaaaaaaaaaaaaaaaaaaaaaa#######################....",
".......############aaaaaaaaaaaaaaaaaaaaaaa########################aaaaaaaaaaaaaaaaaaaaaaaaaaaaaaaaaaa#######################....",
".......############aaaaaaaaaaaaaaaaaaaaaaa########################aaaaaaaaaaaaaaaaaaaaaaaaaaaaaaaaaaa#######################....",
".......############aaaaaaaaaaaaaaaaaaaaaaa########################aaaaaaaaaaaaaaaaaaaaaaaaaaaaaaaaaaa#######################....",
".......############aaaaaaaaaaaaaaaaaaaaaaa############aaaaaaaaaaaa###########aaaaaaaaaaaaaaaaaaaaaaaa#######################....",
".......############aaaaaaaaaaaaaaaaaaaaaaa############aaaaaaaaaaaa###########aaaaaaaaaaaaaaaaaaaaaaaa#######################....",
".......############aaaaaaaaaaaaaaaaaaaaaaa############aaaaaaaaaaaa###########aaaaaaaaaaaaaaaaaaaaaaaa#######################....",
".......############aaaaaaaaaaaaaaaaaaaaaaa############aaaaaaaaaaaa###########aaaaaaaaaaaaaaaaaaaaaaaa#######################....",
".......############aaaaaaaaaaaaaaaaaaaaaaa############aaaaaaaaaaaa###########aaaaaaaaaaaaaaaaaaaaaaaa#######################....",
".......############aaaaaaaaaaaaaaaaaaaaaaa############aaaaaaaaaaaa###########aaaaaaaaaaaaaaaaaaaaaaaa#######################....",
".......############aaaaaaaaaaaaaaaaaaaaaaa############aaaaaaaaaaaa###########aaaaaaaaaaaaaaaaaaaaaaaa#######################....",
".......############aaaaaaaaaaaaaaaaaaaaaaa############aaaaaaaaaaaa###########aaaaaaaaaaaaaaaaaaaaaaaa#######################....",
".......############aaaaaaaaaaaaaaaaaaaaaaa############aaaaaaaaaaaa###########aaaaaaaaaaaaaaaaaaaaaaaa#######################....",
".......############aaaaaaaaaaaaaaaaaaaaaaa############aaaaaaaaaaaa###########aaaaaaaaaaaaaaaaaaaaaaaa#######################....",
".......############aaaaaaaaaaaaaaaaaaaaaaa############aaaaaaaaaaaa###########aaaaaaaaaaaaaaaaaaaaaaaa#######################....",
".......############aaaaaaaaaaaaaaaaaaaaaaa############aaaaaaaaaaaa###########aaaaaaaaaaaaaaaaaaaaaaaa#######################....",
".......############aaaaaaaaaaaaaaaaaaaaaaaaaaaaaaaaaaa#######################aaaaaaaaaaaaaaaaaaaaaaaa#######################....",
".......############aaaaaaaaaaaaaaaaaaaaaaaaaaaaaaaaaaa#######################aaaaaaaaaaaaaaaaaaaaaaaa#######################....",
".......############aaaaaaaaaaaaaaaaaaaaaaaaaaaaaaaaaaa#######################aaaaaaaaaaaaaaaaaaaaaaaa#######################....",
".......############aaaaaaaaaaaaaaaaaaaaaaaaaaaaaaaaaaa#######################aaaaaaaaaaaaaaaaaaaaaaaa#######################....",
".......############aaaaaaaaaaaaaaaaaaaaaaaaaaaaaaaaaaa#######################aaaaaaaaaaaaaaaaaaaaaaaa#######################....",
".......############aaaaaaaaaaaaaaaaaaaaaaaaaaaaaaaaaaa#######################aaaaaaaaaaaaaaaaaaaaaaaa#######################....",
".......############aaaaaaaaaaaaaaaaaaaaaaaaaaaaaaaaaaa#######################aaaaaaaaaaaaaaaaaaaaaaaa#######################....",
".......############aaaaaaaaaaaaaaaaaaaaaaaaaaaaaaaaaaa#######################aaaaaaaaaaaaaaaaaaaaaaaa#######################....",
".......############aaaaaaaaaaaaaaaaaaaaaaaaaaaaaaaaaaa#######################aaaaaaaaaaaaaaaaaaaaaaaa#######################....",
".......############aaaaaaaaaaaaaaaaaaaaaaaaaaaaaaaaaaa#######################aaaaaaaaaaaaaaaaaaaaaaaa#######################....",
".......############aaaaaaaaaaaaaaaaaaaaaaaaaaaaaaaaaaa#######################aaaaaaaaaaaaaaaaaaaaaaaa#######################....",
".......############aaaaaaaaaaaaaaaaaaaaaaaaaaaaaaaaaaa#######################aaaaaaaaaaaaaaaaaaaaaaaa#######################....",
".......############aaaaaaaaaaaaaaaaaaaaaaa###################################aaaaaaaaaaaaaaaaaaaaaaaa#######################....",
".......############aaaaaaaaaaaaaaaaaaaaaaa###################################aaaaaaaaaaaaaaaaaaaaaaaa#######################....",
".......############aaaaaaaaaaaaaaaaaaaaaaa###################################aaaaaaaaaaaaaaaaaaaaaaaa#######################....",
".......############aaaaaaaaaaaaaaaaaaaaaaa###################################aaaaaaaaaaaaaaaaaaaaaaaa#######################....",
".......############aaaaaaaaaaaaaaaaaaaaaaa###################################aaaaaaaaaaaaaaaaaaaaaaaa#######################....",
".......############aaaaaaaaaaaaaaaaaaaaaaa###################################aaaaaaaaaaaaaaaaaaaaaaaa#######################....",
".......############aaaaaaaaaaaaaaaaaaaaaaa###################################aaaaaaaaaaaaaaaaaaaaaaaa#######################....",
".......############aaaaaaaaaaaaaaaaaaaaaaa###################################aaaaaaaaaaaaaaaaaaaaaaaa#######################....",
".......############aaaaaaaaaaaaaaaaaaaaaaa###################################aaaaaaaaaaaaaaaaaaaaaaaa#######################....",
".......############aaaaaaaaaaaaaaaaaaaaaaa###################################aaaaaaaaaaaaaaaaaaaaaaaa#######################....",
".......############aaaaaaaaaaaaaaaaaaaaaaa###################################aaaaaaaaaaaaaaaaaaaaaaaa#######################....",
".......#######################aaaaaaaaaaaaaaaaaaaaaaaaaaaaaaaaaaaaaaaaaaaaaaaaaaaaaaaaaaa###################################....",
".......########################aaaaaaaaaaaaaaaaaaaaaaaaaaaaaaaaaaaaaaaaaaaaaaaaaaaaaaaaaa###################################....",
".......########################aaaaaaaaaaaaaaaaaaaaaaaaaaaaaaaaaaaaaaaaaaaaaaaaaaaaaaaaaa###################################....",
".......########################aaaaaaaaaaaaaaaaaaaaaaaaaaaaaaaaaaaaaaaaaaaaaaaaaaaaaaaaaa###################################....",
".......########################aaaaaaaaaaaaaaaaaaaaaaaaaaaaaaaaaaaaaaaaaaaaaaaaaaaaaaaaaa###################################....",
".......########################aaaaaaaaaaaaaaaaaaaaaaaaaaaaaaaaaaaaaaaaaaaaaaaaaaaaaaaaaa###################################....",
".......########################aaaaaaaaaaaaaaaaaaaaaaaaaaaaaaaaaaaaaaaaaaaaaaaaaaaaaaaaaa###################################....",
".......########################aaaaaaaaaaaaaaaaaaaaaaaaaaaaaaaaaaaaaaaaaaaaaaaaaaaaaaaaaa###################################....",
".......########################aaaaaaaaaaaaaaaaaaaaaaaaaaaaaaaaaaaaaaaaaaaaaaaaaaaaaaaaaa###################################....",
".......########################aaaaaaaaaaaaaaaaaaaaaaaaaaaaaaaaaaaaaaaaaaaaaaaaaaaaaaaaaa###################################....",
".......########################aaaaaaaaaaaaaaaaaaaaaaaaaaaaaaaaaaaaaaaaaaaaaaaaaaaaaaaaaa###################################....",
".......########################aaaaaaaaaaaaaaaaaaaaaaaaaaaaaaaaaaaaaaaaaaaaaaaaaaaaaaaaaa###################################....",
"...................#########################################################################################################....",
"...................#########################################################################################################....",
"...................#########################################################################################################....",
"...................#########################################################################################################....",
"...................#########################################################################################################....",
"...................#########################################################################################################....",
"...................#########################################################################################################....",
"...................#########################################################################################################....",
"...................#########################################################################################################....",
"...................#########################################################################################################....",
"...................#########################################################################################################....",
"...................#########################################################################################################....",
"...............................##################################################################################...............",
"...............................##################################################################################...............",
"...............................##################################################################################...............",
"...............................##################################################################################...............",
"...............................##################################################################################...............",
"...............................##################################################################################...............",
"...............................##################################################################################...............",
"...............................##################################################################################...............",
"...............................##################################################################################...............",
"...............................##################################################################################...............",
"...............................##################################################################################...............",
"................................................................................................................................",
"................................................................................................................................",
"................................................................................................................................",
"................................................................................................................................",
"................................................................................................................................",
"................................................................................................................................",
"................................................................................................................................",
"................................................................................................................................"};
