/* XPM */
static xpm_row_t const Number1_xpm[] = {
"128 128 3 1",
". c None",
"# c #000000",
"a c #ffffff",
"................................................................................................................................",
"................................................................................................................................",
"................................................................................................................................",
".................................##############################################.................................................",
".................................##############################################.................................................",
".................................##############################################.................................................",
".................................##############################################.................................................",
".................................##############################################.................................................",
".................................##############################################.................................................",
".................................##############################################.................................................",
".................................##############################################.................................................",
".................................##############################################.................................................",
".................................##############################################.................................................",
".................................##############################################.................................................",
".................................##############################################.................................................",
".....................#######################aaaaaaaaaaaaaaaaaaaaaaaa#######################.....................................",
".....................#######################aaaaaaaaaaaaaaaaaaaaaaaa#######################.....................................",
".....................#######################aaaaaaaaaaaaaaaaaaaaaaaa#######################.....................................",
".....................#######################aaaaaaaaaaaaaaaaaaaaaaaa#######################.....................................",
".....................#######################aaaaaaaaaaaaaaaaaaaaaaaa#######################.....................................",
".....................#######################aaaaaaaaaaaaaaaaaaaaaaaa#######################.....................................",
".....................#######################aaaaaaaaaaaaaaaaaaaaaaaa#######################.....................................",
".....................#######################aaaaaaaaaaaaaaaaaaaaaaaa#######################.....................................",
".....................#######################aaaaaaaaaaaaaaaaaaaaaaaa#######################.....................................",
".....................#######################aaaaaaaaaaaaaaaaaaaaaaaa#######################.....................................",
".....................#######################aaaaaaaaaaaaaaaaaaaaaaaa#######################.....................................",
".....................#######################aaaaaaaaaaaaaaaaaaaaaaaa#######################.....................................",
".....................############aaaaaaaaaaaaaaaaaaaaaaaaaaaaaaaaaaa#######################.....................................",
".....................############aaaaaaaaaaaaaaaaaaaaaaaaaaaaaaaaaaa#######################.....................................",
".....................############aaaaaaaaaaaaaaaaaaaaaaaaaaaaaaaaaaa#######################.....................................",
".....................############aaaaaaaaaaaaaaaaaaaaaaaaaaaaaaaaaaa#######################.....................................",
".....................############aaaaaaaaaaaaaaaaaaaaaaaaaaaaaaaaaaa#######################.....................................",
".....................############aaaaaaaaaaaaaaaaaaaaaaaaaaaaaaaaaaa#######################.....................................",
".....................############aaaaaaaaaaaaaaaaaaaaaaaaaaaaaaaaaaa#######################.....................................",
".....................############aaaaaaaaaaaaaaaaaaaaaaaaaaaaaaaaaaa#######################.....................................",
".....................############aaaaaaaaaaaaaaaaaaaaaaaaaaaaaaaaaaa#######################.....................................",
".....................############aaaaaaaaaaaaaaaaaaaaaaaaaaaaaaaaaaa#######################.....................................",
".....................############aaaaaaaaaaaaaaaaaaaaaaaaaaaaaaaaaaa#######################.....................................",
".....................#######################aaaaaaaaaaaaaaaaaaaaaaaa#######################.....................................",
".....................#######################aaaaaaaaaaaaaaaaaaaaaaaa#######################.....................................",
".....................#######################aaaaaaaaaaaaaaaaaaaaaaaa#######################.....................................",
".....................#######################aaaaaaaaaaaaaaaaaaaaaaaa#######################.....................................",
".....................#######################aaaaaaaaaaaaaaaaaaaaaaaa#######################.....................................",
".....................#######################aaaaaaaaaaaaaaaaaaaaaaaa#######################.....................................",
".....................#######################aaaaaaaaaaaaaaaaaaaaaaaa#######################.....................................",
".....................#######################aaaaaaaaaaaaaaaaaaaaaaaa#######################.....................................",
".....................#######################aaaaaaaaaaaaaaaaaaaaaaaa#######################.....................................",
".....................#######################aaaaaaaaaaaaaaaaaaaaaaaa#######################.....................................",
".....................#######################aaaaaaaaaaaaaaaaaaaaaaaa#######################.....................................",
".....................#######################aaaaaaaaaaaaaaaaaaaaaaaa#######################.....................................",
".................................###########aaaaaaaaaaaaaaaaaaaaaaaa#######################.....................................",
".................................###########aaaaaaaaaaaaaaaaaaaaaaaa#######################.....................................",
".................................###########aaaaaaaaaaaaaaaaaaaaaaaa#######################.....................................",
".................................###########aaaaaaaaaaaaaaaaaaaaaaaa#######################.....................................",
".................................###########aaaaaaaaaaaaaaaaaaaaaaaa#######################.....................................",
".................................###########aaaaaaaaaaaaaaaaaaaaaaaa#######################.....................................",
".................................###########aaaaaaaaaaaaaaaaaaaaaaaa#######################.....................................",
".................................###########aaaaaaaaaaaaaaaaaaaaaaaa#######################.....................................",
".................................###########aaaaaaaaaaaaaaaaaaaaaaaa#######################.....................................",
".................................###########aaaaaaaaaaaaaaaaaaaaaaaa#######################.....................................",
".................................###########aaaaaaaaaaaaaaaaaaaaaaaa#######################.....................................",
".................................###########aaaaaaaaaaaaaaaaaaaaaaaa#######################.....................................",
".................................###########aaaaaaaaaaaaaaaaaaaaaaaa#######################.....................................",
".................................###########aaaaaaaaaaaaaaaaaaaaaaaa#######################.....................................",
".................................###########aaaaaaaaaaaaaaaaaaaaaaaa#######################.....................................",
".................................###########aaaaaaaaaaaaaaaaaaaaaaaa#######################.....................................",
".................................###########aaaaaaaaaaaaaaaaaaaaaaaa#######################.....................................",
".................................###########aaaaaaaaaaaaaaaaaaaaaaaa#######################.....................................",
".................................###########aaaaaaaaaaaaaaaaaaaaaaaa#######################.....................................",
".................................###########aaaaaaaaaaaaaaaaaaaaaaaa#######################.....................................",
".................................###########aaaaaaaaaaaaaaaaaaaaaaaa#######################.....................................",
".................................###########aaaaaaaaaaaaaaaaaaaaaaaa#######################.....................................",
".................................###########aaaaaaaaaaaaaaaaaaaaaaaa#######################.....................................",
"................................############aaaaaaaaaaaaaaaaaaaaaaaa#######################.....................................",
".........###################################aaaaaaaaaaaaaaaaaaaaaaaa###################################.........................",
".........###################################aaaaaaaaaaaaaaaaaaaaaaaa###################################.........................",
".........###################################aaaaaaaaaaaaaaaaaaaaaaaa###################################.........................",
".........###################################aaaaaaaaaaaaaaaaaaaaaaaa###################################.........................",
".........###################################aaaaaaaaaaaaaaaaaaaaaaaa###################################.........................",
".........###################################aaaaaaaaaaaaaaaaaaaaaaaa###################################.........................",
".........###################################aaaaaaaaaaaaaaaaaaaaaaaa###################################.........................",
".........###################################aaaaaaaaaaaaaaaaaaaaaaaa###################################.........................",
".........###################################aaaaaaaaaaaaaaaaaaaaaaaa###################################.........................",
".........###################################aaaaaaaaaaaaaaaaaaaaaaaa###################################.........................",
".........###################################aaaaaaaaaaaaaaaaaaaaaaaa###################################.........................",
".........############aaaaaaaaaaaaaaaaaaaaaaaaaaaaaaaaaaaaaaaaaaaaaaaaaaaaaaaaaaaaaaaaaaaaaa#######################..............",
".........############aaaaaaaaaaaaaaaaaaaaaaaaaaaaaaaaaaaaaaaaaaaaaaaaaaaaaaaaaaaaaaaaaaaaaa########################.............",
".........############aaaaaaaaaaaaaaaaaaaaaaaaaaaaaaaaaaaaaaaaaaaaaaaaaaaaaaaaaaaaaaaaaaaaaa########################.............",
".........############aaaaaaaaaaaaaaaaaaaaaaaaaaaaaaaaaaaaaaaaaaaaaaaaaaaaaaaaaaaaaaaaaaaaaa########################.............",
".........############aaaaaaaaaaaaaaaaaaaaaaaaaaaaaaaaaaaaaaaaaaaaaaaaaaaaaaaaaaaaaaaaaaaaaa########################.............",
".........############aaaaaaaaaaaaaaaaaaaaaaaaaaaaaaaaaaaaaaaaaaaaaaaaaaaaaaaaaaaaaaaaaaaaaa########################.............",
".........############aaaaaaaaaaaaaaaaaaaaaaaaaaaaaaaaaaaaaaaaaaaaaaaaaaaaaaaaaaaaaaaaaaaaaa########################.............",
".........############aaaaaaaaaaaaaaaaaaaaaaaaaaaaaaaaaaaaaaaaaaaaaaaaaaaaaaaaaaaaaaaaaaaaaa########################.............",
".........############aaaaaaaaaaaaaaaaaaaaaaaaaaaaaaaaaaaaaaaaaaaaaaaaaaaaaaaaaaaaaaaaaaaaaa########################.............",
".........############aaaaaaaaaaaaaaaaaaaaaaaaaaaaaaaaaaaaaaaaaaaaaaaaaaaaaaaaaaaaaaaaaaaaaa########################.............",
".........############aaaaaaaaaaaaaaaaaaaaaaaaaaaaaaaaaaaaaaaaaaaaaaaaaaaaaaaaaaaaaaaaaaaaaa########################.............",
".........############aaaaaaaaaaaaaaaaaaaaaaaaaaaaaaaaaaaaaaaaaaaaaaaaaaaaaaaaaaaaaaaaaaaaaa########################.............",
".........##########################################################################################################.............",
".........##########################################################################################################.............",
".........##########################################################################################################.............",
".........##########################################################################################################.............",
".........##########################################################################################################.............",
".........##########################################################################################################.............",
".........##########################################################################################################.............",
".........##########################################################################################################.............",
".........##########################################################################################################.............",
".........##########################################################################################################.............",
".........##########################################################################################################.............",
".........##########################################################################################################.............",
".....................##############################################################################################.............",
".....................##############################################################################################.............",
".....................##############################################################################################.............",
".....................##############################################################################################.............",
".....................##############################################################################################.............",
".....................##############################################################################################.............",
".....................##############################################################################################.............",
".....................##############################################################################################.............",
".....................##############################################################################################.............",
".....................##############################################################################################.............",
".....................##############################################################################################.............",
"................................................................................................................................",
"................................................................................................................................",
"................................................................................................................................",
"................................................................................................................................",
"................................................................................................................................",
"................................................................................................................................",
"................................................................................................................................",
"................................................................................................................................"};
