/* XPM */
static xpm_row_t const slash_xpm[] = {
"40 121 25 1",
". c None",
"o c #dbffff",
"# c #ffffdb",
"f c #000000",
"g c #00003a",
"k c #000066",
"n c #003a90",
"p c #0066b6",
"j c #3a0000",
"w c #3a3a3a",
"r c #3a90db",
"e c #660000",
"b c #666666",
"t c #66b6ff",
"u c #903a00",
"h c #90dbff",
"s c #b66600",
"v c #b6663a",
"a c #b69066",
"c c #b6dbff",
"l c #b6ffff",
"q c #db903a",
"m c #ffb666",
"i c #ffdb90",
"d c #ffffb6",
"........................................",
"........................................",
"........................................",
"........................................",
"........................................",
"........................................",
"........................................",
"........................................",
"........................................",
"........................................",
"........................................",
"........................................",
"........................................",
"........................................",
"........................................",
"........................................",
"........................................",
"........................................",
"........................................",
"........................................",
"........................................",
"........................................",
"........................................",
"........................................",
".....................#abbbbbbbbc........",
".....................defffffffgh........",
".....................ijfffffffkl........",
".....................mffffffffno........",
".....................mffffffffp.........",
".....................qffffffffr.........",
".....................sfffffffft.........",
"....................#ufffffffgh.........",
"....................defffffffkl.........",
"....................ijfffffffno.........",
"....................mffffffffp..........",
"....................qffffffffr..........",
"....................sfffffffft..........",
"...................#ufffffffgh..........",
"...................defffffffkl..........",
"...................ijfffffffno..........",
"...................mffffffffp...........",
"...................qffffffffr...........",
"...................sfffffffft...........",
"..................#ufffffffgh...........",
"..................defffffffkl...........",
"..................ijfffffffno...........",
"..................mffffffffp............",
"..................qffffffffr............",
"..................sffffffffr............",
".................#ufffffffft............",
".................defffffffgh............",
".................ijfffffffkl............",
".................mffffffffno............",
".................qffffffffp.............",
".................sffffffffr.............",
"................#ufffffffft.............",
"................defffffffgh.............",
"................ijfffffffkl.............",
"................mffffffffno.............",
"................qffffffffp..............",
"................sffffffffr..............",
"...............#ufffffffft..............",
"...............defffffffgh..............",
"...............ijfffffffkl..............",
"...............ijfffffffno..............",
"...............mffffffffp...............",
"...............qffffffffr...............",
"...............sfffffffft...............",
"..............#ufffffffgh...............",
"..............defffffffkl...............",
"..............ijfffffffno...............",
"..............mffffffffp................",
"..............qffffffffr................",
"..............sfffffffft................",
".............#ufffffffgh................",
".............defffffffkl................",
".............ijfffffffno................",
".............mffffffffp.................",
".............qffffffffr.................",
".............sfffffffft.................",
"............#ufffffffgh.................",
"............defffffffgh.................",
"............ijfffffffkl.................",
"............mffffffffno.................",
"............qffffffffp..................",
"............sffffffffr..................",
"...........#ufffffffft..................",
"...........defffffffgh..................",
"...........ijfffffffkl..................",
"...........mffffffffno..................",
"...........qffffffffp...................",
"...........sffffffffr...................",
"..........#ufffffffft...................",
"..........defffffffgh...................",
"..........ijfffffffkl...................",
"..........mffffffffno...................",
"..........qffffffffp....................",
"..........sffffffffr....................",
"..........vwwwwwwwwt....................",
"........................................",
"........................................",
"........................................",
"........................................",
"........................................",
"........................................",
"........................................",
"........................................",
"........................................",
"........................................",
"........................................",
"........................................",
"........................................",
"........................................",
"........................................",
"........................................",
"........................................",
"........................................",
"........................................",
"........................................",
"........................................",
"........................................"};
