/* XPM */
static xpm_row_t const twodots_xpm[] = {
"57 118 3 1",
". c None",
"# c #ffffdb",
"a c #000000",
".........................................................",
".........................................................",
".........................................................",
".........................................................",
".........................................................",
".........................................................",
".........................................................",
".........................................................",
".........................................................",
".........................................................",
".......#aaaaaaaaaaaaaaaaaaaaaaaaaaaaaaaaaaa..............",
".......aaaaaaaaaaaaaaaaaaaaaaaaaaaaaaaaaaaaa.............",
".......aaaaaaaaaaaaaaaaaaaaaaaaaaaaaaaaaaaaa.............",
".......aaaaaaaaaaaaaaaaaaaaaaaaaaaaaaaaaaaaa.............",
".......aaaaaaaaaaaaaaaaaaaaaaaaaaaaaaaaaaaaa.............",
".......aaaaaaaaaaaaaaaaaaaaaaaaaaaaaaaaaaaaa.............",
".......aaaaaaaaaaaaaaaaaaaaaaaaaaaaaaaaaaaaa.............",
".......aaaaaaaaaaaaaaaaaaaaaaaaaaaaaaaaaaaaa.............",
".......aaaaaaaaaaaaaaaaaaaaaaaaaaaaaaaaaaaaa.............",
".......aaaaaaaaaaaaaaaaaaaaaaaaaaaaaaaaaaaaaaaaaaaa......",
".......aaaaaaaaaa...............aaaaaaaaaaaaaaaaaaaa.....",
".......aaaaaaaaaa...............aaaaaaaaaaaaaaaaaaaa.....",
".......aaaaaaaaaa...............aaaaaaaaaaaaaaaaaaaa.....",
".......aaaaaaaaaa...............aaaaaaaaaaaaaaaaaaaa.....",
".......aaaaaaaaaa...............aaaaaaaaaaaaaaaaaaaa.....",
".......aaaaaaaaaa...............aaaaaaaaaaaaaaaaaaaa.....",
".......aaaaaaaaaa...............aaaaaaaaaaaaaaaaaaaa.....",
".......aaaaaaaaaa...............aaaaaaaaaaaaaaaaaaaa.....",
".......aaaaaaaaaa...............aaaaaaaaaaaaaaaaaaaa.....",
".......aaaaaaaaaa...............aaaaaaaaaaaaaaaaaaaa.....",
".......aaaaaaaaaa...............aaaaaaaaaaaaaaaaaaaa.....",
".......aaaaaaaaaa...............aaaaaaaaaaaaaaaaaaaa.....",
".......aaaaaaaaaa...............aaaaaaaaaaaaaaaaaaaa.....",
".......aaaaaaaaaa...............aaaaaaaaaaaaaaaaaaaa.....",
".......aaaaaaaaaa...............aaaaaaaaaaaaaaaaaaaa.....",
".......aaaaaaaaaa...............aaaaaaaaaaaaaaaaaaaa.....",
".......aaaaaaaaaa...............aaaaaaaaaaaaaaaaaaaa.....",
".......aaaaaaaaaaaaaaaaaaaaaaaaaaaaaaaaaaaaaaaaaaaaa.....",
".......aaaaaaaaaaaaaaaaaaaaaaaaaaaaaaaaaaaaaaaaaaaaa.....",
".......aaaaaaaaaaaaaaaaaaaaaaaaaaaaaaaaaaaaaaaaaaaaa.....",
".......aaaaaaaaaaaaaaaaaaaaaaaaaaaaaaaaaaaaaaaaaaaaa.....",
".......aaaaaaaaaaaaaaaaaaaaaaaaaaaaaaaaaaaaaaaaaaaaa.....",
".......aaaaaaaaaaaaaaaaaaaaaaaaaaaaaaaaaaaaaaaaaaaaa.....",
".......aaaaaaaaaaaaaaaaaaaaaaaaaaaaaaaaaaaaaaaaaaaaa.....",
".......aaaaaaaaaaaaaaaaaaaaaaaaaaaaaaaaaaaaaaaaaaaaa.....",
"........aaaaaaaaaaaaaaaaaaaaaaaaaaaaaaaaaaaaaaaaaaaa.....",
"................aaaaaaaaaaaaaaaaaaaaaaaaaaaaaaaaaaaa.....",
"................aaaaaaaaaaaaaaaaaaaaaaaaaaaaaaaaaaaa.....",
"................aaaaaaaaaaaaaaaaaaaaaaaaaaaaaaaaaaaa.....",
"................aaaaaaaaaaaaaaaaaaaaaaaaaaaaaaaaaaaa.....",
"................aaaaaaaaaaaaaaaaaaaaaaaaaaaaaaaaaaaa.....",
"................aaaaaaaaaaaaaaaaaaaaaaaaaaaaaaaaaaaa.....",
"................aaaaaaaaaaaaaaaaaaaaaaaaaaaaaaaaaaaa.....",
".................aaaaaaaaaaaaaaaaaaaaaaaaaaaaaaaaaa......",
".........................................................",
".........................................................",
".........................................................",
".........................................................",
".........................................................",
".........................................................",
".........................................................",
".........................................................",
".........................................................",
".........................................................",
".........................................................",
".........................................................",
".........................................................",
".........................................................",
".........................................................",
".........................................................",
".........#aaaaaaaaaaaaaaaaaaaaaaaaaaaaaaaaaaa............",
".........aaaaaaaaaaaaaaaaaaaaaaaaaaaaaaaaaaaaa...........",
".........aaaaaaaaaaaaaaaaaaaaaaaaaaaaaaaaaaaaa...........",
".........aaaaaaaaaaaaaaaaaaaaaaaaaaaaaaaaaaaaa...........",
".........aaaaaaaaaaaaaaaaaaaaaaaaaaaaaaaaaaaaa...........",
".........aaaaaaaaaaaaaaaaaaaaaaaaaaaaaaaaaaaaa...........",
".........aaaaaaaaaaaaaaaaaaaaaaaaaaaaaaaaaaaaa...........",
".........aaaaaaaaaaaaaaaaaaaaaaaaaaaaaaaaaaaaa...........",
".........aaaaaaaaaaaaaaaaaaaaaaaaaaaaaaaaaaaaa...........",
".........aaaaaaaaaaaaaaaaaaaaaaaaaaaaaaaaaaaaaaaaaaaa....",
".........aaaaaaaaaa...............aaaaaaaaaaaaaaaaaaaa...",
".........aaaaaaaaaa...............aaaaaaaaaaaaaaaaaaaa...",
".........aaaaaaaaaa...............aaaaaaaaaaaaaaaaaaaa...",
".........aaaaaaaaaa...............aaaaaaaaaaaaaaaaaaaa...",
".........aaaaaaaaaa...............aaaaaaaaaaaaaaaaaaaa...",
".........aaaaaaaaaa...............aaaaaaaaaaaaaaaaaaaa...",
".........aaaaaaaaaa...............aaaaaaaaaaaaaaaaaaaa...",
".........aaaaaaaaaa...............aaaaaaaaaaaaaaaaaaaa...",
".........aaaaaaaaaa...............aaaaaaaaaaaaaaaaaaaa...",
".........aaaaaaaaaa...............aaaaaaaaaaaaaaaaaaaa...",
".........aaaaaaaaaa...............aaaaaaaaaaaaaaaaaaaa...",
".........aaaaaaaaaa...............aaaaaaaaaaaaaaaaaaaa...",
".........aaaaaaaaaa...............aaaaaaaaaaaaaaaaaaaa...",
".........aaaaaaaaaa...............aaaaaaaaaaaaaaaaaaaa...",
".........aaaaaaaaaa...............aaaaaaaaaaaaaaaaaaaa...",
".........aaaaaaaaaa...............aaaaaaaaaaaaaaaaaaaa...",
".........aaaaaaaaaa...............aaaaaaaaaaaaaaaaaaaa...",
".........aaaaaaaaaaaaaaaaaaaaaaaaaaaaaaaaaaaaaaaaaaaaa...",
".........aaaaaaaaaaaaaaaaaaaaaaaaaaaaaaaaaaaaaaaaaaaaa...",
".........aaaaaaaaaaaaaaaaaaaaaaaaaaaaaaaaaaaaaaaaaaaaa...",
".........aaaaaaaaaaaaaaaaaaaaaaaaaaaaaaaaaaaaaaaaaaaaa...",
".........aaaaaaaaaaaaaaaaaaaaaaaaaaaaaaaaaaaaaaaaaaaaa...",
".........aaaaaaaaaaaaaaaaaaaaaaaaaaaaaaaaaaaaaaaaaaaaa...",
".........aaaaaaaaaaaaaaaaaaaaaaaaaaaaaaaaaaaaaaaaaaaaa...",
".........aaaaaaaaaaaaaaaaaaaaaaaaaaaaaaaaaaaaaaaaaaaaa...",
"..........aaaaaaaaaaaaaaaaaaaaaaaaaaaaaaaaaaaaaaaaaaaa...",
"..................aaaaaaaaaaaaaaaaaaaaaaaaaaaaaaaaaaaa...",
"..................aaaaaaaaaaaaaaaaaaaaaaaaaaaaaaaaaaaa...",
"..................aaaaaaaaaaaaaaaaaaaaaaaaaaaaaaaaaaaa...",
"..................aaaaaaaaaaaaaaaaaaaaaaaaaaaaaaaaaaaa...",
"..................aaaaaaaaaaaaaaaaaaaaaaaaaaaaaaaaaaaa...",
"..................aaaaaaaaaaaaaaaaaaaaaaaaaaaaaaaaaaaa...",
"..................aaaaaaaaaaaaaaaaaaaaaaaaaaaaaaaaaaaa...",
"...................aaaaaaaaaaaaaaaaaaaaaaaaaaaaaaaaaa....",
".........................................................",
".........................................................",
".........................................................",
"........................................................."};
