/* XPM */
static xpm_row_t const arrow_xpm[]={
"16 16 5 1",
"a c None",
". c #000000",
"# c #686868",
"b c #ababab",
"c c #ffffff",
".#aaaaaaaaaaaaaa",
".b.aaaaaaaaaaaaa",
".cb.aaaaaaaaaaaa",
".ccb.aaaaaaaaaaa",
".cccb.aaaaaaaaaa",
".ccccb.aaaaaaaaa",
".cccccb.aaaaaaaa",
".ccccccb.aaaaaaa",
".cccccccb.aaaaaa",
".ccccccccb.aaaaa",
".cccccccccb.aaaa",
".ccccccc....baaa",
".ccbcccc.aaaaaaa",
".cb.bccc.aaaaaaa",
".b.a.bbc.aaaaaaa",
"..aaa....aaaaaaa"};
