/* XPM */
static xpm_row_t const car[] = {
"16 32 320 2",
"bv c #040000",
".Z c #0a0d18",
"bF c #0d0b0b",
".b c #0d152f",
"bj c #0e0403",
"#5 c #0e2124",
"bh c #0f0e1f",
".c c #0f1836",
"a9 c #101124",
".o c #101834",
".N c #101932",
".A c #111934",
"#b c #12192c",
".0 c #12192d",
".Y c #121b38",
"aI c #121d2f",
"c4 c #12265e",
"bx c #123b3a",
"c2 c #13265b",
"c3 c #13265c",
"c1 c #13275f",
".8 c #141721",
"cS c #141b32",
"cV c #171e35",
"#o c #171f3a",
"c0 c #17254e",
"cT c #182039",
"cU c #18213a",
"c5 c #182753",
"a# c #18292d",
"cA c #1a1e28",
"cs c #1a2441",
"bw c #1b1818",
"bH c #1b2250",
"#n c #1b2a4c",
"#w c #1d2328",
"cD c #1d2337",
"b2 c #1d283a",
"bZ c #1d283c",
"c6 c #1e2332",
".1 c #1e2640",
"al c #1e2942",
"cE c #1e294c",
"aa c #1e3130",
".7 c #1f2436",
".m c #1f253c",
"b0 c #1f2a3f",
"b1 c #1f2b40",
"b. c #1f5150",
".S c #202840",
".Q c #202841",
"cY c #202a46",
"bJ c #204146",
"aO c #212c3b",
"aJ c #212e4b",
"bI c #212f4e",
"bQ c #214046",
".d c #223367",
"a1 c #224249",
"#m c #23282c",
"cM c #232839",
"au c #232a3a",
".R c #232c46",
"cW c #232e4f",
"bE c #234d4c",
"aH c #236269",
"#R c #243163",
"cl c #252934",
"cZ c #252936",
"cm c #25386e",
"aY c #25444b",
"#j c #262b3c",
"bG c #262c38",
".6 c #262f4a",
".B c #263663",
"ad c #272f62",
"cR c #273357",
".e c #27386b",
"#a c #27386e",
"cr c #282a32",
"cq c #282c38",
".W c #282e43",
".9 c #282e44",
".K c #282f45",
"cP c #283048",
"aZ c #284d53",
"aU c #285756",
"bT c #292e3b",
"b7 c #292f3f",
".x c #292f46",
"#z c #293061",
"#J c #293264",
"ct c #293b6f",
"a0 c #294d54",
"bU c #2a2f41",
"cg c #2a3042",
".n c #2a3043",
"#Y c #2a3264",
"cC c #2a3a6a",
".f c #2a3b6e",
"aT c #2a5160",
"## c #2b3043",
"cF c #2b3a68",
"#4 c #2b3b3b",
".p c #2b3b6b",
"b8 c #2b3f79",
"a6 c #2b5864",
".M c #2c3346",
".l c #2c344f",
"cN c #2c3b6a",
"cc c #2c3f7a",
"a5 c #2c5857",
"#y c #2c6164",
"cO c #2d3449",
"cQ c #2d4079",
"ch c #2d417d",
"aC c #2e3144",
".z c #2e3547",
"cX c #2e417b",
"#X c #2e6467",
"bg c #2e6968",
"#F c #2f5c61",
"ac c #2f6265",
"bV c #304785",
"#u c #313850",
"aN c #313d5b",
"#6 c #313e70",
"cb c #323749",
".y c #32384b",
"cz c #323a56",
"ah c #325c61",
"#c c #33457a",
"#2 c #336064",
"b6 c #34394c",
".X c #343a4c",
"b3 c #344069",
".4 c #34426a",
".3 c #34426b",
"ck c #353a4d",
"bR c #35445c",
"#I c #35686a",
".L c #363c4e",
"#. c #363c4f",
"#l c #363c50",
".2 c #36456e",
".5 c #36456f",
"cG c #364570",
"bY c #37426e",
".T c #374773",
".g c #37487b",
".i c #37497c",
"aP c #376870",
"ap c #383d56",
"av c #384a88",
"#N c #386367",
"by c #38a5a3",
"cB c #393e4e",
"bi c #394158",
".h c #394a7d",
"cu c #394d88",
"#G c #396e6c",
"bk c #399d9d",
"#v c #3a4663",
"cJ c #3a4a76",
"cn c #3a4e87",
"bK c #3a7377",
"ar c #3b7677",
"cI c #3c4b77",
"cH c #3d4c78",
"#d c #3e5087",
".q c #3e538e",
"aj c #3e6d6d",
"ai c #3e7271",
"#3 c #3e7372",
"aL c #3f4a7f",
"am c #3f528c",
"bP c #3f8083",
".P c #404f7d",
"aM c #414c84",
".j c #415080",
"a8 c #424a5e",
"aK c #424d84",
".C c #42558f",
"#x c #426e6d",
"bX c #434e85",
"#p c #435790",
".O c #435792",
"aV c #43c2c1",
"cL c #444c6a",
"bS c #45486f",
"#T c #455181",
"#W c #457272",
"#O c #457777",
"a7 c #464453",
"an c #465991",
"aw c #465a93",
"ab c #467171",
"cd c #475a91",
"bW c #475a92",
"#C c #475b93",
"cK c #48567f",
"#q c #485a92",
"#s c #485b92",
"#r c #485b93",
"ae c #485d97",
"ce c #495b93",
"#8 c #495c93",
"#B c #495c94",
"c# c #495d93",
".H c #495d97",
"b4 c #4a5c93",
"ci c #4a5d95",
"#0 c #4a5f98",
"az c #4a6098",
"#1 c #4b5282",
"#9 c #4b5f97",
".u c #4b5f98",
"c. c #4b6098",
"ay c #4b6099",
"#H c #4b7575",
".t c #4c5f97",
".D c #4c5f98",
"ax c #4c6099",
"cv c #4c609a",
"#A c #4c619a",
".s c #4d6098",
".r c #4d6099",
"b9 c #4d609b",
"#7 c #4d619a",
"cw c #4d619b",
"#e c #4d619d",
"#L c #4d629a",
"#Z c #4d629c",
"#g c #4d629e",
"co c #4e6198",
"#S c #4e629c",
"#f c #4e629d",
".E c #4e629e",
"#K c #4e639c",
".F c #4e639e",
"as c #4e6869",
"aW c #4edfdb",
"#M c #4f5584",
"#U c #4f6166",
".G c #4f639f",
"b# c #4fe6e7",
"#h c #506194",
"#Q c #506668",
".I c #51639a",
"a. c #525e8e",
".k c #525f8b",
"aA c #52649b",
"af c #52659b",
"aS c #53505e",
".U c #53659d",
"aE c #537375",
"aX c #53b1b1",
"#E c #545883",
"#k c #54608b",
"ao c #54669d",
"#D c #54679c",
"aF c #546b6a",
"aR c #547170",
"a2 c #54a3a5",
".J c #56638c",
"cx c #56679d",
"ag c #575c89",
".V c #57638c",
"bD c #58bbba",
"bu c #59b7b7",
"cy c #5b6897",
"bl c #5bffff",
".v c #5c6da2",
".w c #5d6994",
"cp c #5d6b9b",
"ca c #5f6fa1",
"aQ c #5fa6a6",
"cf c #6070a3",
"#V c #607574",
"#i c #616e9c",
"cj c #6171a5",
"#t c #6272a5",
"#P c #627373",
"aG c #62a9a8",
"ba c #62f9fa",
"aq c #64c3c3",
"bN c #64d7d4",
"bM c #65d7d5",
"a4 c #65d9d9",
"bm c #67f0f1",
"aB c #6875aa",
"b5 c #687bb1",
"ak c #68cecd",
"bL c #69e0dc",
"bO c #6ae2df",
"bz c #6cfefd",
"br c #6dfbfc",
"bo c #75fafb",
"bp c #76fafb",
"bq c #77fafb",
"bn c #79fcfd",
"bB c #7afdfd",
"bb c #7affff",
"bc c #7bffff",
"bd c #7cfefe",
"bA c #7cffff",
"bC c #7dffff",
"a3 c #81e8e5",
"bs c #95f5f6",
"bf c #98fdfe",
"aD c #b1e8e5",
"bt c #b5ffff",
"at c #b8f4f0",
"be c #baffff",
"c7 c None",
"c9 c None",
"Qt c None",
"c8 c None",
".a c None",
".# c None",
"Qt.#.#.#.#.#.#.#.#.#.#.#.#.#.#.a",
".#.#.b.c.d.e.f.g.h.i.j.k.l.m.#.#",
".#.n.o.p.q.r.s.t.t.t.u.v.w.x.y.#",
".#.z.A.B.C.D.E.F.E.G.H.I.J.K.L.#",
".#.M.N.B.O.P.Q.R.R.S.T.U.V.W.X.#",
".#.M.Y.Z.0.1.2.3.4.5.6.7.8.9#..#",
".####a#b#c#d.F#e#f#g#h#i#j#k#l.#",
".##m#n#o#p.t#q#r#r#s#r#t#u#v#w.#",
".##x#y#z#A#r#B#B#B#B#C#D#E#F#G.#",
".##H#I#J#K#r#B#B#B#B#r#L#M#N#O.#",
".##P#Q#R#S#r#B#B#B#B#B.u#T#U#V.#",
".##W#X#Y#Z#r#B#B#B#B#B#0#1#2#3.#",
".##4#5#6#7#r#B#B#B#B#8#9a.a#aa.#",
".#abacadae#B#B#B#B#B#Cafagahai.#",
".#ajakalam.t#r#8#8#Banaoapaqar.#",
".#asatauavawaxayayazaAaBaCaDaE.#",
".#aFaGaHaIaJaKaLaLaMaNaOaPaQaR.#",
"aSaTaUaVaWaXaYaZa0a1a2a3a4a5a6a7",
"a8a9b.b#babbbcbcbcbbbdbebfbgbhbi",
".#bjbkblbmbnbobpbobqbrbsbtbubv.#",
".#bwbxbybzbAbcbcbcbcbBbCbDbEbF.#",
".#bGbHbIbJbKbLbMbNbObPbQbRbSbT.#",
".#bUbVbWbXbYbZb0b1b2b3aKb4b5b6.#",
".#b7b8#saxayb9b9b9b9axc.c#cacb.#",
".#b7cccd#B#8#r#r#r#r#8ce#8cfcb.#",
".#cgchcdci#B#B#B#B#B#B#B#scjck.#",
".#clcmcnce#8#r#r#rceceancocpcq.#",
".#crcsctcucvcvcvcvcvcwcxcyczcA.#",
".#cBcCcDcEcFcGcHcIcJcKcLcMcNcO.#",
".#.#cPcQcRcScTcTcTcUcVcWcXcY.#.#",
".#.#.#cZc0c1c2c3c3c2c4c5c6.#.#c7",
"c8c7.#.#.#.#.#.#.#.#.#.#.#.#c9c8"};
