/* XPM */
static xpm_row_t const fire_xpm[]={
"48 64 8 1",
". c None",
"d c #6a0500",
"# c #a07500",
"f c #a64527",
"b c #cca200",
"a c #ffda4c",
"c c #fff26d",
"e c #ffffff",
"...................###..........................",
"...................###..........................",
"...................###..........................",
"..........######...#######......................",
"..........######...#######......................",
"..........######...#######......................",
"......####aaa###...###bbbb###...................",
"......####aaa###...###bbbb###...................",
"......####aaa###...###bbbb###...................",
"......####aaa###...###bbbb###...................",
"...###ccccaaa###...###bbbbaaa###................",
"...###ccccaaa###...###bbbbaaa###................",
"...###ccccaaa###...###bbbbaaa###................",
"...###ccccaaa###...###aaaaccc###................",
"...###ccccaaa###...###aaaaccc###................",
"...###ccccaaa###...###aaaaccc###................",
"...dddeeeebbb######bbbccccccc###................",
"...dddeeeebbb######bbbccccccc###................",
"...dddeeeebbb######bbbccccccc###................",
"dddaaaeeeeaaabbbaaaccccccccccaaa###.............",
"dddaaaeeeeaaabbbaaaccccccccccaaa###.............",
"dddaaaeeeeaaabbbaaaccccccccccaaa###.............",
"dddccceeeeaaaaaaaaaccccccccccaaa###.............",
"dddccceeeeaaaaaaaaaccccccccccaaa###.............",
"dddccceeeeaaaaaaaaaccccccccccaaa###.............",
"dddccceeeeaaaaaaaaaccccccccccaaa###.............",
"dddccceeeeeeeaaacccccccccccccaaa###.............",
"dddccceeeeeeeaaacccccccccccccaaa###.............",
"dddccceeeeeeeaaacccccccccccccaaa###.............",
"dddaaaeeeeeeeccceeeeeecccccccaaa###.............",
"dddaaaeeeeeeeccceeeeeecccccccaaa###.............",
"dddaaaeeeeeeeccceeeeeecccccccaaa###.............",
"dddaaacccceeeeeeeeeeeeeeeecccaaaaaaffff.........",
"dddaaacccceeeeeeeeeeeeeeeecccaaaaaaffff.........",
"dddaaacccceeeeeeeeeeeeeeeecccaaaaaaffff.........",
"dddaaaaaaaccceeeeeeeeeccccccccccaaaffff.........",
"dddaaaaaaaccceeeeeeeeeccccccccccaaaffff.........",
"dddaaaaaaaccceeeeeeeeeccccccccccaaaffff.........",
"...dddaaaaaaacccccccccccccaaaaaafff.............",
"...dddaaaaaaacccccccccccccaaaaaafff.............",
"...dddaaaaaaacccccccccccccaaaaaafff.............",
"...dddaaaaaaacccccccccccccaaaaaafff.............",
"......ddddaaaaaaaaaaaaaaaaaaaddd................",
"......ddddaaaaaaaaaaaaaaaaaaaddd................",
"......ddddaaaaaaaaaaaaaaaaaaaddd................",
"..........ddddddddddddddddddd...................",
"..........ddddddddddddddddddd...................",
"..........ddddddddddddddddddd...................",
"................................................",
"................................................",
"................................................",
"................................................",
"................................................",
"................................................",
"................................................",
"................................................",
"................................................",
"................................................",
"................................................",
"................................................",
"................................................",
"................................................",
"................................................",
"................................................"};
